<svg xmlns="http://www.w3.org/2000/svg" xmlns:xlink="http://www.w3.org/1999/xlink" width="1366.017" height="636.162" viewBox="0 0 1366.017 636.162"><defs><style>.a{fill:#377dff;}.b{opacity:0.2;fill:url(#a);}.c{fill:#42a1ff;}.d{fill:rgba(0,82,224,0.8);stroke:rgba(0,0,0,0);opacity:0.5;}</style><linearGradient id="a" x1="0.863" y1="0.741" x2="0.719" y2="0.027" gradientUnits="objectBoundingBox"><stop offset="0" stop-color="#0052e0"/><stop offset="1" stop-color="#1b1464" stop-opacity="0"/></linearGradient></defs><g transform="translate(0.017 -739)"><path class="a" d="M1365.937,429.574l-1365.953.1V455.11c202.84-35.162,178.067,67.179,311.69,93.455C463.2,578.362,539.9,479.374,704.5,513.279c134.455,27.7,101.8,104.427,257.7,126.22,150.992,21.107,310.079-96.35,403.733,31.246Z" transform="translate(0 704.417)"/><path class="a" d="M0,0H1366V400.275H0Z" transform="translate(0 739.499)"/><path class="b" d="M690.5,424.761V158.229c-38.933-29.836-87.66,61.96-141.7-4.317S605.819,80.3,599.427,70.475l-190.715,39.3c-3.367,20.641-3.211,42.413,7.319,60.194,12.57,21.2,37.2,32.1,61.151,37.895s49.02,7.924,71.613,17.762c17.1,7.446,33.543,21.451,35.045,40.032,2.168,26.711-7.8,30.117-16.318,55.53-6.724,20.074.693,44.053,17.576,56.828a51.244,51.244,0,0,0,30.712,10.013c20.035.039,29.393-6.844,48.228,8.38,7.622,6.168,4.18,17.481,12.377,22.878A37.206,37.206,0,0,0,690.5,424.761Z" transform="translate(675.477 681.381)"/><path class="c" d="M77.625,134.18a2.218,2.218,0,1,1,2.218,2.219A2.218,2.218,0,0,1,77.625,134.18Zm-15.525,0a2.218,2.218,0,1,1,2.218,2.219A2.218,2.218,0,0,1,62.1,134.18Zm-15.524,0a2.218,2.218,0,1,1,2.218,2.219A2.218,2.218,0,0,1,46.575,134.18Zm-15.525,0a2.218,2.218,0,1,1,2.218,2.219A2.218,2.218,0,0,1,31.05,134.18Zm-15.524,0a2.218,2.218,0,1,1,2.218,2.219A2.217,2.217,0,0,1,15.525,134.18ZM93.15,118.655a2.218,2.218,0,1,1,2.219,2.218A2.218,2.218,0,0,1,93.15,118.655Zm-15.524,0a2.218,2.218,0,1,1,2.218,2.218A2.218,2.218,0,0,1,77.625,118.655Zm-15.525,0a2.218,2.218,0,1,1,2.218,2.218A2.218,2.218,0,0,1,62.1,118.655Zm-15.524,0a2.218,2.218,0,1,1,2.218,2.218A2.218,2.218,0,0,1,46.575,118.655Zm-15.525,0a2.218,2.218,0,1,1,2.218,2.218A2.218,2.218,0,0,1,31.05,118.655Zm-15.524,0a2.218,2.218,0,1,1,2.218,2.218A2.217,2.217,0,0,1,15.525,118.655ZM170.775,103.13a2.218,2.218,0,1,1,2.218,2.219A2.218,2.218,0,0,1,170.775,103.13Zm-15.524,0a2.218,2.218,0,1,1,2.218,2.219A2.217,2.217,0,0,1,155.25,103.13Zm-15.525,0a2.218,2.218,0,1,1,2.218,2.219A2.218,2.218,0,0,1,139.725,103.13Zm-15.525,0a2.218,2.218,0,1,1,2.219,2.219A2.218,2.218,0,0,1,124.2,103.13Zm-15.524,0a2.218,2.218,0,1,1,2.218,2.219A2.218,2.218,0,0,1,108.675,103.13Zm-15.525,0a2.218,2.218,0,1,1,2.219,2.219A2.218,2.218,0,0,1,93.15,103.13Zm-15.524,0a2.218,2.218,0,1,1,2.218,2.219A2.218,2.218,0,0,1,77.625,103.13Zm-15.525,0a2.218,2.218,0,1,1,2.218,2.219A2.218,2.218,0,0,1,62.1,103.13Zm-15.524,0a2.218,2.218,0,1,1,2.218,2.219A2.218,2.218,0,0,1,46.575,103.13Zm-15.525,0a2.218,2.218,0,1,1,2.218,2.219A2.218,2.218,0,0,1,31.05,103.13Zm-15.524,0a2.218,2.218,0,1,1,2.218,2.219A2.217,2.217,0,0,1,15.525,103.13ZM186.3,87.606a2.218,2.218,0,1,1,2.218,2.218A2.217,2.217,0,0,1,186.3,87.606Zm-15.525,0a2.218,2.218,0,1,1,2.218,2.218A2.217,2.217,0,0,1,170.775,87.606Zm-15.524,0a2.218,2.218,0,1,1,2.218,2.218A2.217,2.217,0,0,1,155.25,87.606Zm-15.525,0a2.218,2.218,0,1,1,2.218,2.218A2.217,2.217,0,0,1,139.725,87.606Zm-15.525,0a2.218,2.218,0,1,1,2.219,2.218A2.217,2.217,0,0,1,124.2,87.606Zm-15.524,0a2.218,2.218,0,1,1,2.218,2.218A2.217,2.217,0,0,1,108.675,87.606Zm-15.525,0a2.218,2.218,0,1,1,2.219,2.218A2.217,2.217,0,0,1,93.15,87.606Zm-15.524,0a2.218,2.218,0,1,1,2.218,2.218A2.217,2.217,0,0,1,77.625,87.606Zm-15.525,0a2.218,2.218,0,1,1,2.218,2.218A2.217,2.217,0,0,1,62.1,87.606Zm-15.524,0a2.218,2.218,0,1,1,2.218,2.218A2.217,2.217,0,0,1,46.575,87.606Zm-15.525,0a2.218,2.218,0,1,1,2.218,2.218A2.217,2.217,0,0,1,31.05,87.606Zm-15.524,0a2.218,2.218,0,1,1,2.218,2.218A2.217,2.217,0,0,1,15.525,87.606ZM186.3,72.08a2.218,2.218,0,1,1,2.218,2.218A2.218,2.218,0,0,1,186.3,72.08Zm-15.525,0a2.218,2.218,0,1,1,2.218,2.218A2.218,2.218,0,0,1,170.775,72.08Zm-15.524,0a2.218,2.218,0,1,1,2.218,2.218A2.217,2.217,0,0,1,155.25,72.08Zm-15.525,0a2.218,2.218,0,1,1,2.218,2.218A2.218,2.218,0,0,1,139.725,72.08Zm-15.525,0a2.218,2.218,0,1,1,2.219,2.218A2.218,2.218,0,0,1,124.2,72.08Zm-15.524,0a2.218,2.218,0,1,1,2.218,2.218A2.218,2.218,0,0,1,108.675,72.08Zm-15.525,0A2.218,2.218,0,1,1,95.368,74.3,2.218,2.218,0,0,1,93.15,72.08Zm-15.524,0A2.218,2.218,0,1,1,79.843,74.3,2.218,2.218,0,0,1,77.625,72.08Zm-15.525,0A2.218,2.218,0,1,1,64.317,74.3,2.218,2.218,0,0,1,62.1,72.08Zm-15.524,0A2.218,2.218,0,1,1,48.793,74.3,2.218,2.218,0,0,1,46.575,72.08Zm-15.525,0A2.218,2.218,0,1,1,33.268,74.3,2.218,2.218,0,0,1,31.05,72.08Zm-15.524,0A2.218,2.218,0,1,1,17.743,74.3,2.217,2.217,0,0,1,15.525,72.08ZM0,72.08A2.218,2.218,0,1,1,2.218,74.3,2.218,2.218,0,0,1,0,72.08ZM186.3,56.556a2.218,2.218,0,1,1,2.218,2.218A2.218,2.218,0,0,1,186.3,56.556Zm-15.525,0a2.218,2.218,0,1,1,2.218,2.218A2.218,2.218,0,0,1,170.775,56.556Zm-15.524,0a2.218,2.218,0,1,1,2.218,2.218A2.217,2.217,0,0,1,155.25,56.556Zm-15.525,0a2.218,2.218,0,1,1,2.218,2.218A2.218,2.218,0,0,1,139.725,56.556Zm-15.525,0a2.218,2.218,0,1,1,2.219,2.218A2.218,2.218,0,0,1,124.2,56.556Zm-15.524,0a2.218,2.218,0,1,1,2.218,2.218A2.218,2.218,0,0,1,108.675,56.556Zm-15.525,0a2.218,2.218,0,1,1,2.219,2.218A2.218,2.218,0,0,1,93.15,56.556Zm-15.524,0a2.218,2.218,0,1,1,2.218,2.218A2.218,2.218,0,0,1,77.625,56.556Zm-15.525,0a2.218,2.218,0,1,1,2.218,2.218A2.218,2.218,0,0,1,62.1,56.556Zm-15.524,0a2.218,2.218,0,1,1,2.218,2.218A2.218,2.218,0,0,1,46.575,56.556Zm-15.525,0a2.218,2.218,0,1,1,2.218,2.218A2.218,2.218,0,0,1,31.05,56.556Zm-15.524,0a2.218,2.218,0,1,1,2.218,2.218A2.217,2.217,0,0,1,15.525,56.556Zm186.3-15.525a2.218,2.218,0,1,1,2.218,2.218A2.218,2.218,0,0,1,201.825,41.03Zm-15.524,0a2.218,2.218,0,1,1,2.218,2.218A2.218,2.218,0,0,1,186.3,41.03Zm-15.525,0a2.218,2.218,0,1,1,2.218,2.218A2.218,2.218,0,0,1,170.775,41.03Zm-15.524,0a2.218,2.218,0,1,1,2.218,2.218A2.217,2.217,0,0,1,155.25,41.03Zm-15.525,0a2.218,2.218,0,1,1,2.218,2.218A2.218,2.218,0,0,1,139.725,41.03Zm-15.525,0a2.218,2.218,0,1,1,2.219,2.218A2.218,2.218,0,0,1,124.2,41.03Zm-15.524,0a2.218,2.218,0,1,1,2.218,2.218A2.218,2.218,0,0,1,108.675,41.03Zm-15.525,0a2.218,2.218,0,1,1,2.219,2.218A2.218,2.218,0,0,1,93.15,41.03Zm-15.524,0a2.218,2.218,0,1,1,2.218,2.218A2.218,2.218,0,0,1,77.625,41.03Zm-15.525,0a2.218,2.218,0,1,1,2.218,2.218A2.218,2.218,0,0,1,62.1,41.03Zm-15.524,0a2.218,2.218,0,1,1,2.218,2.218A2.218,2.218,0,0,1,46.575,41.03Zm-15.525,0a2.218,2.218,0,1,1,2.218,2.218A2.218,2.218,0,0,1,31.05,41.03Zm-15.524,0a2.218,2.218,0,1,1,2.218,2.218A2.217,2.217,0,0,1,15.525,41.03Zm186.3-15.524a2.218,2.218,0,1,1,2.218,2.218A2.218,2.218,0,0,1,201.825,25.506Zm-15.524,0a2.218,2.218,0,1,1,2.218,2.218A2.218,2.218,0,0,1,186.3,25.506Zm-15.525,0a2.218,2.218,0,1,1,2.218,2.218A2.218,2.218,0,0,1,170.775,25.506Zm-15.524,0a2.218,2.218,0,1,1,2.218,2.218A2.217,2.217,0,0,1,155.25,25.506Zm-15.525,0a2.218,2.218,0,1,1,2.218,2.218A2.218,2.218,0,0,1,139.725,25.506Zm-15.525,0a2.218,2.218,0,1,1,2.219,2.218A2.218,2.218,0,0,1,124.2,25.506Zm-15.524,0a2.218,2.218,0,1,1,2.218,2.218A2.218,2.218,0,0,1,108.675,25.506Zm-15.525,0a2.218,2.218,0,1,1,2.219,2.218A2.218,2.218,0,0,1,93.15,25.506Zm-15.524,0a2.218,2.218,0,1,1,2.218,2.218A2.218,2.218,0,0,1,77.625,25.506Zm-15.525,0a2.218,2.218,0,1,1,2.218,2.218A2.218,2.218,0,0,1,62.1,25.506Zm-15.524,0a2.218,2.218,0,1,1,2.218,2.218A2.218,2.218,0,0,1,46.575,25.506Zm31.05-11.09a2.218,2.218,0,1,1,2.218,2.219A2.218,2.218,0,0,1,77.625,14.416ZM186.3,9.98a2.218,2.218,0,1,1,2.218,2.218A2.218,2.218,0,0,1,186.3,9.98Zm-15.525,0a2.218,2.218,0,1,1,2.218,2.218A2.218,2.218,0,0,1,170.775,9.98Zm-15.524,0a2.218,2.218,0,1,1,2.218,2.218A2.217,2.217,0,0,1,155.25,9.98Zm-15.525,0a2.218,2.218,0,1,1,2.218,2.218A2.218,2.218,0,0,1,139.725,9.98Zm-15.525,0a2.218,2.218,0,1,1,2.219,2.218A2.218,2.218,0,0,1,124.2,9.98Zm-15.524,0a2.218,2.218,0,1,1,2.218,2.218A2.218,2.218,0,0,1,108.675,9.98Zm-15.525,0A2.218,2.218,0,1,1,95.368,12.2,2.218,2.218,0,0,1,93.15,9.98Zm-31.05,0A2.218,2.218,0,1,1,64.317,12.2,2.218,2.218,0,0,1,62.1,9.98ZM77.625,2.218a2.218,2.218,0,1,1,2.218,2.218A2.218,2.218,0,0,1,77.625,2.218Z" transform="translate(173.058 807.785) rotate(5)"/><path class="d" d="M6925.772,472.557v-180H7108.2c11.036,15.435,23.084,30.858,28.942,48.327,10.1,30.157-1.041,66.18-26.4,85.371-13.166,9.969-29.7,15.013-46.138,15.042-10.87.02-21.466-3.824-31.9-7.666-18.468-6.8-36.433-13.6-54.509,1.009-11.451,9.266-19.721,22.227-32.036,30.334a54.872,54.872,0,0,1-18,7.583Z" transform="translate(-6925.272 446.943)"/></g></svg>