<svg xmlns="http://www.w3.org/2000/svg" xmlns:xlink="http://www.w3.org/1999/xlink" width="370.226" height="522.202" viewBox="0 0 370.226 522.202"><defs><style>.a{fill:#4fdc6f;opacity:0.8;}.a,.c,.d{stroke:rgba(0,0,0,0);}.b,.c{fill:#cfe0ff;}.b{opacity:0.5;}.d{fill:url(#a);}.e{fill:#8dbbff;}.f{fill:url(#b);}.g{fill:#b9cfff;}.h{fill:#0074ff;}.i{fill:#458cff;}</style><linearGradient id="a" x1="0.358" y1="0.208" x2="0.497" y2="0.556" gradientUnits="objectBoundingBox"><stop offset="0" stop-color="#6beb88"/><stop offset="1" stop-color="#4fdc6f"/></linearGradient><linearGradient id="b" x1="0.5" y1="1" x2="0.5" gradientUnits="objectBoundingBox"><stop offset="0" stop-color="#0052e0"/><stop offset="1" stop-color="#387dff"/></linearGradient></defs><g transform="translate(-223.506 -5023.543)"><path class="a" d="M23.274,38.834c-.091-.1-.138-.151-.138-.151.093-.064.186-.126.277-.187l.022-.051c-1.332-1.322-2.611-2.714-3.84-4.156,1.433,1.585,2.749,2.95,3.877,4.072.046-.1.073-.155.073-.155l.139.115C32.425,32.787,36.8,41.481,36.8,41.481a9.709,9.709,0,0,1-9.918.092c.339.3.522.453.522.453-.2-.162-.4-.326-.593-.491q-.289-.156-.558-.32c2.871,4.813-1.6,8.478-1.6,8.478C21.021,45.773,22.576,40.607,23.274,38.834Zm-7.1-7.606C23.109,40.98,13.8,45.164,13.8,45.164,10.08,38.059,16.172,31.227,16.172,31.227ZM6.287,16.995C15.031,29.285,3.3,34.56,3.3,34.56-1.39,25.6,6.287,16.995,6.287,16.995Zm9.48,12.824c-.408-.385-.628-.64-.628-.64l.073-.05C9.653,22.164,3.535,12.749,0,1.813V0A133.909,133.909,0,0,0,7.7,16.622c10.289-6.585,15.433,3.649,15.433,3.649-6.264,3.668-11.762.4-14.377-1.75a113.124,113.124,0,0,0,6.677,10.457c8.909-5.863,13.363,3,13.363,3-5.3,3.1-9.95.4-12.209-1.439.964,1.275,1.967,2.53,3.006,3.75C18.387,32.95,17.1,31.457,15.767,29.819Z" transform="translate(293.739 5123.785) rotate(180)"/><g transform="translate(0 -924)"><g transform="translate(223.506 6346.637)"><path class="b" d="M7546.74,5491.547s-87.511,21.325,42.2,31.153,237.484.259,237.773-17.806S7649.509,5475.608,7546.74,5491.547Z" transform="translate(-7498.639 -5412.484)"/><path class="c" d="M12.271.676C9.03-1.034,2.935.8.836,2.816c-4.7,4.508,11.915,4.406,13.2,3.987S15.512,2.387,12.271.676Z" transform="matrix(0.999, -0.035, 0.035, 0.999, 319.866, 115.47)"/><path class="c" d="M22.33,1.231c-5.9-3.113-16.988.231-20.809,3.893C-7.037,13.327,23.2,13.14,25.55,12.38S28.228,4.344,22.33,1.231Z" transform="matrix(0.999, -0.035, 0.035, 0.999, 342.098, 106.541)"/><path class="d" d="M0,83.47a136.474,136.474,0,0,1,9.542-22.4q-.447.676-.94,1.369S-6.059,46,2.9,28.9c0,0,18.193,8.182,9.564,26.98A147.914,147.914,0,0,1,27.327,35.086c-1.341-1.6-11-13.789-4.373-26.438,0,0,16.752,7.532,5.6,25.015A144.3,144.3,0,0,1,40.929,21.131l-.152-.1s.09-.1.264-.289C39.708,17.352,36.739,7.486,43.663,0c0,0,8.543,7,3.059,16.191.161-.1.323-.194.49-.289,1.1-.839,1.71-1.261,1.71-1.261-.383.312-.765.628-1.143.944,4.786-2.6,11.6-4.286,19.085.1,0,0-8.348,16.606-25.04,6.037l-.265.22s-.091-.181-.236-.516a144.164,144.164,0,0,0-14.148,16.1c3.743-3.368,13.345-10.169,24.416-3.688,0,0-8.6,17.107-25.8,5.538a193.087,193.087,0,0,0-13.4,20.949c4.522-4,15.621-11.606,28.383-4.134,0,0-9.937,19.768-29.811,6.75A188.355,188.355,0,0,0,0,86.932Z" transform="matrix(0.999, -0.035, 0.035, 0.999, 255.439, 6.251)"/><path class="e" d="M7564.547,5493.614c3.542-37.085,1.02-39.324,1.02-39.324s-2.84,23.466-6.278,37.1c-3.661-10.166-3.193-30.559-3.193-30.559l-5.128,31.267c-.553-20.981-3.16-44.518-3.16-44.518s-1.309,26.064-5.02,43.81c-7.3-44.426-5.418-69.713-5.418-69.713s-5.208,34.856-1.667,71.941c-7.292-5.889-16.669-26.1-16.669-26.1l11.668,31.549a52.014,52.014,0,0,0,19.236,4.275,77.8,77.8,0,0,0,18.69-2.435l12.588-33.389S7572.23,5485.346,7564.547,5493.614Z" transform="translate(-7519.034 -5403.861)"/></g><g transform="translate(232 5947.543)"><path class="f" d="M7621.1,5530.324c-4.562-.05-8.26-2.579-8.26-7.142V5171.537a8.261,8.261,0,0,1,8.26-8.262h0a8.262,8.262,0,0,1,8.262,8.262v351.646C7629.365,5527.745,7625.948,5530.376,7621.1,5530.324Z" transform="translate(-7456.131 -5055.188)"/><path class="f" d="M7577.1,5441.691l44.47-266.806h16.521l44.468,266.807Zm140.468,109.543L7637.985,5073.7c-.009-.046-.022-.09-.031-.135-.017-.1-.036-.2-.057-.292s-.045-.194-.07-.291c-.02-.076-.041-.152-.062-.226-.028-.094-.055-.187-.085-.279s-.059-.167-.089-.25-.063-.173-.1-.259-.068-.166-.1-.248-.066-.145-.1-.217c-.044-.1-.09-.189-.14-.282-.038-.072-.076-.143-.117-.214s-.077-.131-.115-.2c-.058-.1-.117-.192-.179-.288-.042-.061-.082-.121-.125-.183s-.094-.13-.142-.194c-.066-.091-.134-.182-.2-.268-.042-.054-.086-.1-.13-.159-.06-.068-.12-.134-.181-.2s-.14-.155-.213-.229c-.047-.048-.094-.1-.142-.143-.072-.07-.147-.138-.222-.206s-.139-.125-.209-.185c-.054-.045-.105-.089-.158-.132-.085-.068-.172-.133-.26-.2-.067-.051-.136-.1-.2-.149l-.184-.125c-.091-.059-.184-.117-.278-.171-.067-.042-.137-.084-.207-.123s-.142-.079-.214-.117c-.09-.047-.18-.092-.271-.134s-.152-.072-.229-.107-.165-.07-.248-.1-.163-.062-.246-.093-.175-.064-.264-.093-.185-.058-.279-.085l-.212-.059c-.1-.026-.2-.05-.3-.073s-.2-.04-.3-.058c-.041-.009-.083-.02-.126-.028-.025-.005-.052-.005-.078-.009-.106-.017-.213-.031-.32-.044s-.188-.018-.283-.025c-.079-.008-.16-.016-.241-.019-.1-.007-.2-.008-.3-.009-.045,0-.086-.007-.131-.007s-.091.007-.138.007c-.1,0-.19,0-.283.008s-.175.012-.261.021-.193.016-.292.028-.2.023-.293.041c-.03,0-.062,0-.091.01s-.086.019-.13.028c-.1.019-.205.039-.308.061s-.183.043-.271.066l-.23.063c-.1.028-.2.059-.295.091-.075.024-.151.053-.229.081s-.176.064-.264.1-.177.074-.265.112l-.192.09c-.1.047-.2.094-.289.143s-.155.084-.231.126c-.057.034-.114.066-.171.1-.1.062-.2.122-.3.185-.065.043-.131.091-.194.134s-.114.083-.171.125c-.094.069-.189.14-.278.212-.059.047-.115.1-.172.144s-.118.1-.18.159c-.081.073-.161.145-.238.22-.053.05-.1.1-.151.154-.066.066-.127.135-.191.2s-.13.14-.191.216c-.047.055-.093.11-.138.168-.065.079-.128.163-.188.245s-.1.137-.152.207-.085.127-.128.191c-.058.088-.113.178-.168.27-.04.068-.083.137-.123.207s-.079.146-.118.221-.091.177-.134.268c-.036.074-.07.148-.105.224s-.071.168-.106.253-.062.164-.092.248-.063.169-.092.256-.059.187-.085.281c-.021.073-.041.145-.062.217-.024.1-.049.2-.07.3s-.04.2-.059.3c-.008.042-.021.083-.028.127l-80,480c-.751,4.5,2.672,6.473,7.2,7.038,5.613.7,8.426-.281,9.1-4.322l16.366-98.2h110.967l15.957,95.734c.672,4.042,3.664,6.651,9.43,6.557C7717.173,5560.4,7718.322,5555.736,7717.572,5551.234Z" transform="translate(-7464.706 -5066.796)"/><path class="g" d="M7492.23,5349.346a1.175,1.175,0,0,0-1.177,1.175v15.349h289.164v-15.349a1.176,1.176,0,0,0-1.177-1.175Z" transform="translate(-7470.785 -5032.801)"/><path class="h" d="M7492.23,5369.405a1.177,1.177,0,0,1-1.177-1.176v-15.348h289.164v15.348a1.177,1.177,0,0,1-1.177,1.176Z" transform="translate(-7470.785 -5032.375)"/><path class="g" d="M7715.391,5164.559H7544.248a1.179,1.179,0,0,1-1.179-1.177v-22.431a1.18,1.18,0,0,1,1.179-1.178h171.144a1.178,1.178,0,0,1,1.179,1.178v22.431a1.178,1.178,0,0,1-1.179,1.177" transform="translate(-7464.527 -5058.016)"/><path class="i" d="M7715.391,5160.559H7544.248a1.179,1.179,0,0,1-1.179-1.177v-22.431a1.18,1.18,0,0,1,1.179-1.178h171.144a1.178,1.178,0,0,1,1.179,1.178v22.431a1.178,1.178,0,0,1-1.179,1.177" transform="translate(-7464.527 -5058.497)"/></g></g></g></svg>