<svg xmlns="http://www.w3.org/2000/svg" width="146.8" height="35.95" viewBox="0 0 146.8 35.95"><defs><style>.a{fill:#5690ff;}</style></defs><g transform="translate(0 -0.025)"><path class="a" d="M42.1,25.2a.441.441,0,0,0-.6-.4h0a6.7,6.7,0,0,1-3.1.7c-4.8,0-6.9-3.9-6.9-8.1s1.4-7.3,5.7-7.3c1.5,0,2.4.3,2.6,1.3l.3,1.6a.43.43,0,0,0,.4.4h1.2a.43.43,0,0,0,.4-.4h0V8.4a.55.55,0,0,0-.3-.5,17.223,17.223,0,0,0-3.9-.4c-6.3,0-11,4-11,10.4a10.246,10.246,0,0,0,9.9,10.5h.7a16.445,16.445,0,0,0,4.9-1,.618.618,0,0,0,.2-.7C42.5,26.8,42.1,25.2,42.1,25.2Zm11.7-1.8a2.433,2.433,0,0,1-2.4,2.4h-.1A2.219,2.219,0,0,1,49,23.7h0c0-1.6,1.2-2.9,4.6-2.9.2,0,.2.1.2.3Zm5.7,2.7a.43.43,0,0,0-.4-.4h-.7c-.6,0-.8-.3-.8-.9V18c0-4.1-2.3-5.6-6-5.6a14.812,14.812,0,0,0-5.1.9.481.481,0,0,0-.2.6l.3,1.8c.1.4.4.4.7.3a7.216,7.216,0,0,1,3.2-.8c1.9,0,3.3.7,3.3,2.5v.7c0,.1,0,.4-.2.4-4.5,0-8.4,1.5-8.4,5.6a4.055,4.055,0,0,0,4,4.2h.4a5.792,5.792,0,0,0,4.6-2h.1a2.006,2.006,0,0,0,2,2h.3a9.034,9.034,0,0,0,2.8-.4.55.55,0,0,0,.3-.5Zm7.3-8.4a2.475,2.475,0,0,1,2.6-2.4h.1c2.5,0,3.4,2.4,3.4,5s-.9,5.3-3.7,5.3-2.4-.8-2.4-2Zm2.3,16.2a.43.43,0,0,0,.4-.4h0v-.7c0-.2-.1-.5-.3-.5l-1.8-.2a.875.875,0,0,1-.6-.9V27.9h1.6c5.6,0,8.7-3.4,8.7-8.6s-2.4-7-5.9-7a5.926,5.926,0,0,0-4.6,2.3h-.1L66.3,13a.55.55,0,0,0-.3-.5.367.367,0,0,0-.3.1L61,13a.472.472,0,0,0-.5.5v.7c0,.2.2.5.4.5h1.3a.993.993,0,0,1,.7,1V31.2c0,.6-.3.9-.6.9l-1.2.3a.55.55,0,0,0-.3.5v.7a.43.43,0,0,0,.4.4h0Zm20.1-8.3c0-.3-.3-.4-.6-.4a5.84,5.84,0,0,1-1.8.4,2.372,2.372,0,0,1-2.5-2.3V15.8c0-.1.2-.3.5-.3h3.6c.1,0,.2-.2.2-.3V13.4c0-.1-.1-.3-.2-.3H84.8c-.2,0-.4-.1-.4-.3V9.6c0-.3-.1-.5-.5-.4l-2.8.9c-.4.1-.5.3-.5.7v1.9c0,.3,0,.4-.4.4H78.4v.3l-.2,1.7c0,.3,0,.4.2.4h1.9c.2,0,.4.1.4.3v8c0,2.9,2.1,4.7,5,4.7a9.464,9.464,0,0,0,3.7-.8.764.764,0,0,0,.2-.5Zm10.9-8.9c0,2.1-2,2.8-4,2.8H94.9c-.2,0-.3,0-.3-.3-.1-1.9.9-4.6,3.2-4.6a2.219,2.219,0,0,1,2.3,2.1v.1m3.1,8.3c-.1-.2-.3-.4-.6-.2a7.389,7.389,0,0,1-3.3.9c-2.1,0-4.4-1.4-4.5-3.7,0-.3,0-.4.3-.4h2c3.1,0,6.8-1.4,6.8-4.8s-2.7-4.6-5.5-4.6a7.81,7.81,0,0,0-7.8,7.8v.2c0,4.8,2.7,8.2,8,8.2a9.666,9.666,0,0,0,4.7-1.2c.2-.1.4-.4.3-.6Zm11.1,3.1a.472.472,0,0,0,.5-.5V27c0-.2-.1-.3-.4-.4l-1.8-.3c-.3,0-.5-.4-.5-.9V18.5a2.647,2.647,0,0,1,2.6-2.6h.2a5.663,5.663,0,0,1,1.8.3c.2.1.5-.1.6-.3l.6-2.8a.471.471,0,0,0-.1-.6h-.1a2.768,2.768,0,0,0-1.3-.3c-1.9,0-3.3,1.3-4.4,2.9h-.1l-.3-2.2c0-.4-.2-.6-.4-.6l-4.8.6c-.3,0-.5.1-.5.4V14c0,.2.2.5.4.5l1.4.3c.5,0,.7.6.7.9v9.5c0,.6-.3.9-.6.9l-1.2.3c-.3.1-.4.3-.4.4v.8c0,.2.3.4.5.4-.2.1,7.6.1,7.6.1Zm13.1,0c.2,0,.4-.3.4-.5V27c0-.2-.1-.3-.3-.4l-1.8-.3c-.3,0-.6-.4-.6-.9V18.5a2.688,2.688,0,0,1,2.8-2.6h0a5.662,5.662,0,0,1,1.8.3.517.517,0,0,0,.7-.3l.6-2.8a.471.471,0,0,0-.1-.6h-.1a3.079,3.079,0,0,0-1.3-.3c-1.9,0-3.3,1.3-4.5,2.9h-.1l-.2-2.2c0-.4-.2-.6-.5-.6l-4.8.6a.43.43,0,0,0-.4.4h0V14c0,.2.2.5.4.5l1.4.3c.4,0,.6.6.6.9v9.5c0,.6-.2.9-.5.9l-1.3.3c-.2.1-.3.2-.3.4v.8a.43.43,0,0,0,.4.4h0c-.1.1,7.7.1,7.7.1v.1Zm13.8-4.7a2.433,2.433,0,0,1-2.4,2.4h-.2a2.219,2.219,0,0,1-2.3-2.1h0c0-1.6,1.2-2.9,4.6-2.9a.265.265,0,0,1,.3.3h0v2.3Zm5.6,2.7c0-.3-.1-.4-.4-.4h-.7c-.6,0-.8-.3-.8-.9V18c0-4.1-2.4-5.6-6.1-5.6a14.259,14.259,0,0,0-5,.9.43.43,0,0,0-.4.4c0,.1,0,.1.1.2l.4,1.8c.1.4.3.4.6.3a7.216,7.216,0,0,1,3.2-.8c1.9,0,3.4.7,3.4,2.5v.7c0,.1-.1.4-.3.4-4.6,0-8.4,1.5-8.4,5.6a4.055,4.055,0,0,0,4,4.2h.4a5.593,5.593,0,0,0,4.5-2h.1a2,2,0,0,0,2.2,2h.2a9.034,9.034,0,0,0,2.8-.4c.2-.1.2-.2.2-.5Z"/><path class="a" d="M.4,17H5.6c.2,0,.4-.1.4-.3a4.689,4.689,0,0,1,4.5-3.6A4.523,4.523,0,0,1,15,16.7c0,.2.2.3.4.3h5.2a.43.43,0,0,0,.4-.4v-.3C20.7,12.8,18,6.4,10.8.1a.638.638,0,0,0-.6,0C10.1.2,2.8,6.5.5,14.5a5.638,5.638,0,0,0-.4,1.2v1.1Z"/><path class="a" d="M20.6,19H15.4c-.2,0-.4.1-.4.3a4.689,4.689,0,0,1-4.5,3.6A4.523,4.523,0,0,1,6,19.3c0-.2-.2-.3-.4-.3H.4a.43.43,0,0,0-.4.4v.3c.3,3.5,3.1,9.9,10.2,16.2a.638.638,0,0,0,.6,0c.1-.1,7.4-6.4,9.7-14.4a5.638,5.638,0,0,0,.4-1.2V19.2Z"/></g></svg>