<svg xmlns="http://www.w3.org/2000/svg" xmlns:xlink="http://www.w3.org/1999/xlink" width="200.808" height="46" viewBox="0 0 200.808 46"><defs><style>.a{fill:rgba(0,0,0,0);}.b{fill:#5690ff;opacity:0.47;}.c{fill:url(#a);}.d{fill:#363f5a;}</style><linearGradient id="a" y1="0.5" x2="1" y2="0.5" gradientUnits="objectBoundingBox"><stop offset="0" stop-color="#5690ff" stop-opacity="0.988"/><stop offset="1" stop-color="#0052e0"/></linearGradient></defs><rect class="a" width="200.808" height="46"/><path class="b" d="M33.421,21.063l-8.05-5.308L3.308,2.176a20.045,20.045,0,0,1,3.83,6.378,21.231,21.231,0,0,1,1.2,4.715L24.884,23.637a1.353,1.353,0,0,1,.345,1.884l-.062.08h0l-.062.071-.071.071H24.99l-.115.088L8.9,35.562a.955.955,0,0,1-1.336-.257.973.973,0,0,1-.168-.54V12.57a21.018,21.018,0,0,0-1.07-4.016A18.772,18.772,0,0,0,.522.345L0,0V41.772a4.1,4.1,0,0,0,6.343,3.415L33.421,28.308a4.335,4.335,0,0,0,0-7.245Z"/><path class="c" d="M33.421,21.063l-8.05-5.308a6.263,6.263,0,0,1,.885,8.846,6.13,6.13,0,0,1-1.062,1.026h0l-.062.071-.071.071h0l-.115.088-11.5,6.776h0l-4.423,3a.955.955,0,0,1-1.4-.248.973.973,0,0,1-.168-.54V12.606A20.709,20.709,0,0,0,6.325,8.554,18.772,18.772,0,0,0,.522.345L0,0V41.772a4.1,4.1,0,0,0,6.343,3.415L33.421,28.308a4.335,4.335,0,0,0,0-7.245Z"/><path class="d" d="M14.18,19.081H10.3c-.256,0-.36-.212-.47-.436l-.034-.069L6.369,12.155H6.086c-.276,0-.62-.014-.953-.028-.308-.013-.6-.025-.816-.025v6.475a.523.523,0,0,1-.5.5H.5a.525.525,0,0,1-.5-.5V1.557C0,.677.352.469,1.141.336A40.351,40.351,0,0,1,6.29,0c5.066,0,7.634,2,7.634,5.936v.327a5.113,5.113,0,0,1-3.273,5.077l3.83,7.157a.8.8,0,0,1,.08.283C14.561,18.977,14.429,19.081,14.18,19.081ZM6.281,3.689c-.351,0-1.666.053-1.982.08V8.643L6.068,8.7A4.936,4.936,0,0,0,8.833,8.14a2.054,2.054,0,0,0,.774-1.85V5.945C9.607,4.448,8.488,3.689,6.281,3.689Z" transform="translate(44.054 12.385)"/><path class="d" d="M6.722,14.962c-.117,0-.236,0-.353,0a6.7,6.7,0,0,1-4.336-1.426A6.313,6.313,0,0,1,0,8.439V6.67A6.889,6.889,0,0,1,1.7,1.8,6.321,6.321,0,0,1,6.423,0,6.048,6.048,0,0,1,11.08,1.9,6.99,6.99,0,0,1,12.712,6.67V8.138c-.074.388-.288.6-.6.6H4.016v.053c0,1.263.461,2.769,2.654,2.769,1.579,0,3.836-.121,4.874-.23h.08c.308,0,.478.144.478.407v1.929c0,.389-.077.579-.531.681A19.464,19.464,0,0,1,6.722,14.962ZM6.352,3.273c-1.463,0-2.336,1.052-2.336,2.813v.1H8.633v-.1a3.2,3.2,0,0,0-.617-2.109A2.068,2.068,0,0,0,6.352,3.273Z" transform="translate(60.711 16.746)"/><path class="d" d="M12,14.764H8.882a.531.531,0,0,1-.5-.531V5.308c0-1.115-.177-1.9-1.495-1.9H5.609c-1.318,0-1.5.787-1.5,1.9V14.26a.531.531,0,0,1-.5.531H.478A.513.513,0,0,1,0,14.26V5.308C0,1.769,1.955,0,5.609,0H6.874c3.653,0,5.608,1.769,5.608,5.308V14.26A.513.513,0,0,1,12,14.764Z" transform="translate(75.891 16.702)"/><path class="d" d="M6.369,19.727A6.315,6.315,0,0,1,1.642,18.02,6.616,6.616,0,0,1,0,13.234v-1.99C0,7.056,2.262,4.751,6.369,4.751a18.232,18.232,0,0,1,2.079.177V.5a.524.524,0,0,1,.5-.5H12a.529.529,0,0,1,.53.5V18.285c-.027.446-.143.621-.778.778A23.948,23.948,0,0,1,6.369,19.727ZM6.334,8.156a1.959,1.959,0,0,0-1.8.881,4.139,4.139,0,0,0-.478,2.215v1.982c0,2.13.725,3.123,2.283,3.123a14.821,14.821,0,0,0,2.079-.15V8.28A18.223,18.223,0,0,0,6.334,8.156Z" transform="translate(90.868 11.978)"/><path class="d" d="M6.722,14.962c-.117,0-.236,0-.353,0a6.7,6.7,0,0,1-4.336-1.426A6.313,6.313,0,0,1,0,8.439V6.67A6.889,6.889,0,0,1,1.7,1.8,6.321,6.321,0,0,1,6.423,0a6.011,6.011,0,0,1,4.644,1.9A7.018,7.018,0,0,1,12.685,6.67V8.138a.582.582,0,0,1-.116.458.488.488,0,0,1-.379.144H4.1v.053c0,1.263.461,2.769,2.654,2.769,1.579,0,3.836-.121,4.874-.23.308,0,.478.144.478.407v1.929c0,.389-.077.579-.531.681A19.464,19.464,0,0,1,6.722,14.962ZM6.431,3.273C4.969,3.273,4.1,4.325,4.1,6.086v.1H8.713v-.1A3.2,3.2,0,0,0,8.1,3.976,2.068,2.068,0,0,0,6.431,3.273Z" transform="translate(105.995 16.746)"/><path class="d" d="M6.387,3.435a15.145,15.145,0,0,0-2.282.15v10.66a.531.531,0,0,1-.5.531H.531A.575.575,0,0,1,0,14.245V1.56C0,1.206.2.949.787.746A16.967,16.967,0,0,1,6.4.012c.3,0,.681.124.681.478V2.949C7.068,3.232,6.882,3.435,6.387,3.435Z" transform="translate(121.387 16.716)"/><path class="d" d="M7.581,8.368H4.131v10.96a.575.575,0,0,1-.531.531H.531A.575.575,0,0,1,0,19.329V4.29C0,.752,2.388,0,4.945,0A22.328,22.328,0,0,1,7.714.23c.283.053.38.15.38.3V2.663c0,.283-.1.407-.354.407H5.087c-.787,0-.964.478-.964,1.221V5.308h3.45a.522.522,0,0,1,.5.5V7.829a.513.513,0,0,1-.487.54Z" transform="translate(130.49 11.633)"/><path class="d" d="M6.369,14.968a6.285,6.285,0,0,1-4.727-1.787A6.863,6.863,0,0,1,0,8.368V6.6A6.863,6.863,0,0,1,1.642,1.787,6.285,6.285,0,0,1,6.369,0a6.247,6.247,0,0,1,4.714,1.787A6.889,6.889,0,0,1,12.712,6.6V8.368a6.89,6.89,0,0,1-1.629,4.816A6.25,6.25,0,0,1,6.369,14.968Zm0-11.465c-1.493,0-2.283,1.071-2.283,3.1V8.368A3.9,3.9,0,0,0,4.677,10.7a1.982,1.982,0,0,0,1.692.792c1.476,0,2.256-1.08,2.256-3.123V6.6C8.625,4.574,7.845,3.5,6.369,3.5Z" transform="translate(140.327 16.728)"/><path class="d" d="M6.387,3.435a15.145,15.145,0,0,0-2.282.15v10.66a.531.531,0,0,1-.5.531H.531A.575.575,0,0,1,0,14.245V1.56C0,1.206.2.949.787.746A16.967,16.967,0,0,1,6.4.012c.3,0,.681.124.681.478V2.949C7.086,3.232,6.873,3.435,6.387,3.435Z" transform="translate(155.683 16.716)"/><path class="d" d="M6.722,14.962c-.117,0-.236,0-.353,0a6.7,6.7,0,0,1-4.336-1.426A6.313,6.313,0,0,1,0,8.439V6.67A6.889,6.889,0,0,1,1.7,1.8,6.321,6.321,0,0,1,6.423,0a6.011,6.011,0,0,1,4.644,1.9A7.018,7.018,0,0,1,12.685,6.67V8.138a.613.613,0,0,1-.575.6H4.016v.053c0,1.263.461,2.769,2.654,2.769,1.579,0,3.836-.121,4.874-.23h.08c.308,0,.478.144.478.407v1.929c0,.389-.077.579-.531.681A19.464,19.464,0,0,1,6.722,14.962ZM6.352,3.273c-1.463,0-2.336,1.052-2.336,2.813v.1H8.633v-.1a3.2,3.2,0,0,0-.617-2.109A2.068,2.068,0,0,0,6.352,3.273Z" transform="translate(164.53 16.746)"/><path class="d" d="M5.2,14.96A19.807,19.807,0,0,1,.584,14.4a.575.575,0,0,1-.478-.584V11.767a.469.469,0,0,1,.46-.478H.681c1.371.177,3.538.354,4.317.354,1.221,0,1.5-.327,1.5-.991,0-.38-.23-.663-.938-1.062l-3.3-1.9A4.193,4.193,0,0,1,0,3.938C0,1.372,1.7,0,5.2,0a16.224,16.224,0,0,1,4.52.584.575.575,0,0,1,.478.584V3.221c0,.3-.15.478-.407.478H9.7a39.507,39.507,0,0,0-4.211-.327c-.991,0-1.345.15-1.345.734,0,.38.283.584.787.885L8.077,6.76c2.105,1.221,2.565,2.539,2.565,3.91C10.633,13.085,8.908,14.96,5.2,14.96Z" transform="translate(179.373 16.736)"/><path class="d" d="M7.617,6.263H4.14V13.8c0,.885.407,1.044,1.495,1.044h1.9c.327,0,.531.15.531.433v1.946c0,.283-.177.46-.5.5a20.638,20.638,0,0,1-3.043.23c-2.84,0-4.52-.885-4.52-4.184V1.035a.548.548,0,0,1,.5-.5L3.6,0h.08a.522.522,0,0,1,.46.5V3.158H7.617a.522.522,0,0,1,.5.5V5.723a.513.513,0,0,1-.487.54Z" transform="translate(192.51 13.738)"/></svg>