<svg xmlns="http://www.w3.org/2000/svg" width="49.184" height="49.184" viewBox="0 0 49.184 49.184"><defs><style>.a{fill:#fff;}</style></defs><path class="a" d="M24.592,0A24.592,24.592,0,1,0,49.184,24.592,24.62,24.62,0,0,0,24.592,0ZM6.934,18.989a.821.821,0,0,1-.8.629.856.856,0,0,1-.192-.022.821.821,0,0,1-.606-.989A17.947,17.947,0,0,1,18.607,5.34a.82.82,0,1,1,.383,1.594A16.3,16.3,0,0,0,6.934,18.989Zm3.159,1.689a.819.819,0,0,1-.8-1A13.88,13.88,0,0,1,19.673,9.295a.819.819,0,1,1,.371,1.6,12.239,12.239,0,0,0-9.153,9.153A.819.819,0,0,1,10.093,20.679Zm4.756.415a.82.82,0,0,1-.8.644.865.865,0,0,1-.176-.019.82.82,0,0,1-.625-.975,9.848,9.848,0,0,1,7.495-7.495.819.819,0,0,1,.35,1.6A8.209,8.209,0,0,0,14.849,21.093Zm3.119,3.5a6.623,6.623,0,1,1,6.623,6.623A6.631,6.631,0,0,1,17.969,24.592Zm10.3,11.362a.819.819,0,0,1-.175-1.62,8.206,8.206,0,0,0,6.244-6.244.819.819,0,0,1,1.6.35,9.848,9.848,0,0,1-7.495,7.495A.793.793,0,0,1,28.264,35.954Zm1.06,3.957a.819.819,0,0,1-.185-1.617,12.239,12.239,0,0,0,9.153-9.153.819.819,0,0,1,1.6.371A13.88,13.88,0,0,1,29.51,39.891.829.829,0,0,1,29.324,39.911Zm9.759-.828a17.962,17.962,0,0,1-8.506,4.762.811.811,0,0,1-.192.022.82.82,0,0,1-.191-1.617A16.3,16.3,0,0,0,42.25,30.195a.82.82,0,1,1,1.594.383A17.966,17.966,0,0,1,39.083,39.083Z"/></svg>