<svg xmlns="http://www.w3.org/2000/svg" xmlns:xlink="http://www.w3.org/1999/xlink" width="37.572" height="26.499" viewBox="0 0 37.572 26.499"><defs><style>.a{fill:url(#a);}.b{fill:#fff;}</style><linearGradient id="a" x1="0.5" x2="0.5" y2="1" gradientUnits="objectBoundingBox"><stop offset="0" stop-color="#ffa330"/><stop offset="1" stop-color="#f07378"/></linearGradient></defs><g transform="translate(-4810.751 -1099.711)"><path class="a" d="M31.469,2.861a2.861,2.861,0,0,0-2.861,2.861,2.83,2.83,0,0,0,.143.883l-2.32,1.475a3.576,3.576,0,0,1-4.689-.751L19.468,4.546a2.828,2.828,0,0,0,.558-1.685,2.861,2.861,0,1,0-5.722,0,2.828,2.828,0,0,0,.558,1.685L12.588,7.328A3.576,3.576,0,0,1,7.9,8.079L5.579,6.6a2.826,2.826,0,0,0,.143-.883A2.861,2.861,0,1,0,2.611,8.571l1.44,8.81a.715.715,0,0,0,.705.6s4.49-3.48,12.554.344,12.014.988,12.014.988c.477-.238.648-.253.705-.6L31.72,8.571a2.861,2.861,0,0,0-.25-5.71Z" transform="translate(4814.629 1099.711) rotate(11)"/><ellipse class="b" cx="0.452" cy="1.106" rx="0.452" ry="1.106" transform="translate(4846.073 1110.157)"/><ellipse class="b" cx="0.452" cy="1.106" rx="0.452" ry="1.106" transform="translate(4832.212 1104.431) rotate(-13)"/><ellipse class="b" cx="0.452" cy="1.106" rx="0.452" ry="1.106" transform="translate(4817.267 1104.156) rotate(-29)"/><path class="b" d="M232.332,182.152l1.771.253-1.771.253a1.112,1.112,0,0,0-.843.759l-.337,2.192-.337-2.192a.9.9,0,0,0-.843-.759L228.2,182.4l1.771-.253a1.112,1.112,0,0,0,.843-.759l.337-2.192.337,2.192A1.112,1.112,0,0,0,232.332,182.152Z" transform="translate(4606.546 935.663)"/></g></svg>