<svg xmlns="http://www.w3.org/2000/svg" xmlns:xlink="http://www.w3.org/1999/xlink" width="10.5" height="22.5" viewBox="0 0 10.5 22.5"><defs><style>.a{fill:#fff;}.b{fill:none;}.c{clip-path:url(#a);}.d{clip-path:url(#b);}.e{fill:rgba(0,0,0,0);}</style><clipPath id="a"><rect class="b" width="10.5" height="22.5"/></clipPath><clipPath id="b"><path class="a" d="M2.27,4.358v3.1H0v3.788H2.27V22.5H6.932V11.244H10.06s.293-1.816.435-3.8H6.949V4.851A1.1,1.1,0,0,1,7.96,3.944H10.5V0H7.046C2.154,0,2.27,3.792,2.27,4.358Z" transform="translate(6.75 0.75)"/></clipPath></defs><g class="c"><path class="a" d="M2.27,4.358v3.1H0v3.788H2.27V22.5H6.932V11.244H10.06s.293-1.816.435-3.8H6.949V4.851A1.1,1.1,0,0,1,7.96,3.944H10.5V0H7.046C2.154,0,2.27,3.792,2.27,4.358Z"/><g class="d" transform="translate(-6.75 -0.75)"><rect class="e" width="24" height="24"/><rect class="a" width="24" height="24"/></g></g></svg>