<svg xmlns="http://www.w3.org/2000/svg" xmlns:xlink="http://www.w3.org/1999/xlink" width="22.5" height="15.922" viewBox="0 0 22.5 15.922"><defs><style>.a{fill:#fff;}.b{fill:none;}.c{clip-path:url(#a);}.d{clip-path:url(#b);}.e{fill:rgba(0,0,0,0);}</style><clipPath id="a"><rect class="b" width="22.5" height="15.922"/></clipPath><clipPath id="b"><path class="a" d="M17.827,15.922H4.673A4.679,4.679,0,0,1,0,11.248V4.673A4.678,4.678,0,0,1,4.673,0H17.827A4.678,4.678,0,0,1,22.5,4.673v6.575A4.679,4.679,0,0,1,17.827,15.922ZM8.408,4.693a.247.247,0,0,0-.247.247v6.053a.246.246,0,0,0,.353.222l6.152-2.934a.247.247,0,0,0,.005-.444L8.519,4.72A.244.244,0,0,0,8.408,4.693Z" transform="translate(0.75 3.75)"/></clipPath></defs><g class="c"><path class="a" d="M17.827,15.922H4.673A4.679,4.679,0,0,1,0,11.248V4.673A4.678,4.678,0,0,1,4.673,0H17.827A4.678,4.678,0,0,1,22.5,4.673v6.575A4.679,4.679,0,0,1,17.827,15.922ZM8.408,4.693a.247.247,0,0,0-.247.247v6.053a.246.246,0,0,0,.353.222l6.152-2.934a.247.247,0,0,0,.005-.444L8.519,4.72A.244.244,0,0,0,8.408,4.693Z" transform="translate(0 0)"/><g class="d" transform="translate(-0.75 -3.75)"><rect class="e" width="24" height="24"/><rect class="a" width="24" height="24"/></g></g></svg>