<svg xmlns="http://www.w3.org/2000/svg" xmlns:xlink="http://www.w3.org/1999/xlink" width="19.499" height="23.999" viewBox="0 0 19.499 23.999"><defs><style>.a{fill:none;}.b{clip-path:url(#a);}.c{clip-path:url(#b);}.d{fill:rgba(0,0,0,0);}.e{fill:#fff;}</style><clipPath id="a"><rect class="a" width="19.499" height="23.999"/></clipPath><clipPath id="b"><path class="a" d="M10.075,0C3.5,0,0,4.215,0,8.811c0,2.132,1.191,4.79,3.1,5.632.289.131.447.075.511-.193.057-.2.308-1.186.429-1.65a.424.424,0,0,0-.1-.417A5.465,5.465,0,0,1,2.8,8.866c0-3.206,2.549-6.318,6.885-6.318,3.75,0,6.373,2.436,6.373,5.92,0,3.938-2.083,6.661-4.791,6.661A2.145,2.145,0,0,1,9.007,12.5c.428-1.733,1.266-3.6,1.266-4.845A1.861,1.861,0,0,0,8.347,5.607c-1.525,0-2.763,1.51-2.763,3.539A5.045,5.045,0,0,0,6.041,11.3s-1.509,6.1-1.79,7.234a16.188,16.188,0,0,0,.111,5.318.158.158,0,0,0,.288.073,18.9,18.9,0,0,0,2.484-4.679c.186-.685.95-3.465.95-3.465a4.147,4.147,0,0,0,3.5,1.668c4.6,0,7.917-4.04,7.917-9.053C19.482,3.6,15.369,0,10.075,0Z" transform="translate(2.25)"/></clipPath></defs><g class="b"><path class="a" d="M10.075,0C3.5,0,0,4.215,0,8.811c0,2.132,1.191,4.79,3.1,5.632.289.131.447.075.511-.193.057-.2.308-1.186.429-1.65a.424.424,0,0,0-.1-.417A5.465,5.465,0,0,1,2.8,8.866c0-3.206,2.549-6.318,6.885-6.318,3.75,0,6.373,2.436,6.373,5.92,0,3.938-2.083,6.661-4.791,6.661A2.145,2.145,0,0,1,9.007,12.5c.428-1.733,1.266-3.6,1.266-4.845A1.861,1.861,0,0,0,8.347,5.607c-1.525,0-2.763,1.51-2.763,3.539A5.045,5.045,0,0,0,6.041,11.3s-1.509,6.1-1.79,7.234a16.188,16.188,0,0,0,.111,5.318.158.158,0,0,0,.288.073,18.9,18.9,0,0,0,2.484-4.679c.186-.685.95-3.465.95-3.465a4.147,4.147,0,0,0,3.5,1.668c4.6,0,7.917-4.04,7.917-9.053C19.482,3.6,15.369,0,10.075,0Z"/><g class="c" transform="translate(-2.25)"><rect class="d" width="24" height="24"/><rect class="e" width="24" height="24"/></g></g></svg>