<svg xmlns="http://www.w3.org/2000/svg" xmlns:xlink="http://www.w3.org/1999/xlink" width="30" height="30" viewBox="0 0 30 30"><defs><style>.a{fill:#545f7e;}.b{fill:rgba(0,0,0,0);}.c{clip-path:url(#a);}</style><clipPath id="a"><path class="a" d="M23.611,13.889H1.389A1.391,1.391,0,0,1,0,12.5V11.112A1.391,1.391,0,0,1,1.389,9.722H23.611A1.39,1.39,0,0,1,25,11.112V12.5A1.39,1.39,0,0,1,23.611,13.889Zm0-9.722H1.389A1.391,1.391,0,0,1,0,2.778V1.389A1.391,1.391,0,0,1,1.389,0H23.611A1.39,1.39,0,0,1,25,1.389V2.778A1.39,1.39,0,0,1,23.611,4.167Z"/></clipPath></defs><rect class="b" width="30" height="30"/><path class="a" d="M23.611,13.889H1.389A1.391,1.391,0,0,1,0,12.5V11.112A1.391,1.391,0,0,1,1.389,9.722H23.611A1.39,1.39,0,0,1,25,11.112V12.5A1.39,1.39,0,0,1,23.611,13.889Zm0-9.722H1.389A1.391,1.391,0,0,1,0,2.778V1.389A1.391,1.391,0,0,1,1.389,0H23.611A1.39,1.39,0,0,1,25,1.389V2.778A1.39,1.39,0,0,1,23.611,4.167Z" transform="translate(2.5 7.5)"/><g class="c" transform="translate(2.5 7.5)"><g transform="translate(-2.5 -7.5)"><rect class="b" width="30" height="30"/><rect class="a" width="30" height="30"/></g></g></svg>