<svg xmlns="http://www.w3.org/2000/svg" xmlns:xlink="http://www.w3.org/1999/xlink" width="22.5" height="18.276" viewBox="0 0 22.5 18.276"><defs><style>.a{fill:#fff;}.b{fill:none;}.c{clip-path:url(#a);}.d{clip-path:url(#b);}.e{fill:rgba(0,0,0,0);}</style><clipPath id="a"><rect class="b" width="22.5" height="18.276"/></clipPath><clipPath id="b"><path class="a" d="M22.5,2.162a9.217,9.217,0,0,1-2.65.727A4.635,4.635,0,0,0,21.879.337a9.305,9.305,0,0,1-2.933,1.121,4.619,4.619,0,0,0-7.865,4.208A13.1,13.1,0,0,1,1.568.844,4.621,4.621,0,0,0,3,7,4.616,4.616,0,0,1,.905,6.425v.058a4.62,4.62,0,0,0,3.7,4.526,4.675,4.675,0,0,1-1.216.162,4.43,4.43,0,0,1-.869-.086A4.618,4.618,0,0,0,6.833,14.29,9.261,9.261,0,0,1,1.1,16.263,9.81,9.81,0,0,1,0,16.2a13.047,13.047,0,0,0,7.075,2.077A13.041,13.041,0,0,0,20.207,5.145l-.015-.6A9.217,9.217,0,0,0,22.5,2.162Z" transform="translate(0.75 3)"/></clipPath></defs><g class="c"><path class="a" d="M22.5,2.162a9.217,9.217,0,0,1-2.65.727A4.635,4.635,0,0,0,21.879.337a9.305,9.305,0,0,1-2.933,1.121,4.619,4.619,0,0,0-7.865,4.208A13.1,13.1,0,0,1,1.568.844,4.621,4.621,0,0,0,3,7,4.616,4.616,0,0,1,.905,6.425v.058a4.62,4.62,0,0,0,3.7,4.526,4.675,4.675,0,0,1-1.216.162,4.43,4.43,0,0,1-.869-.086A4.618,4.618,0,0,0,6.833,14.29,9.261,9.261,0,0,1,1.1,16.263,9.81,9.81,0,0,1,0,16.2a13.047,13.047,0,0,0,7.075,2.077A13.041,13.041,0,0,0,20.207,5.145l-.015-.6A9.217,9.217,0,0,0,22.5,2.162Z"/><g class="d" transform="translate(-0.75 -3)"><rect class="e" width="24" height="24"/><rect class="a" width="24" height="24"/></g></g></svg>