<svg xmlns="http://www.w3.org/2000/svg" xmlns:xlink="http://www.w3.org/1999/xlink" width="22.5" height="22.5" viewBox="0 0 22.5 22.5"><defs><style>.a{fill:#fff;}.b{fill:none;}.c{clip-path:url(#a);}.d{clip-path:url(#b);}.e{fill:rgba(0,0,0,0);}</style><clipPath id="a"><rect class="b" width="22.5" height="22.5"/></clipPath><clipPath id="b"><path class="a" d="M15.468,22.5H7.031A7.039,7.039,0,0,1,0,15.468V7.031A7.039,7.039,0,0,1,7.031,0h8.438A7.039,7.039,0,0,1,22.5,7.031v8.438A7.04,7.04,0,0,1,15.468,22.5ZM7.031,2.11A4.927,4.927,0,0,0,2.11,7.031v8.438A4.927,4.927,0,0,0,7.031,20.39h8.438a4.928,4.928,0,0,0,4.922-4.922V7.031A4.927,4.927,0,0,0,15.468,2.11ZM11.25,16.875a5.625,5.625,0,1,1,5.625-5.625A5.631,5.631,0,0,1,11.25,16.875Zm0-9.14a3.515,3.515,0,1,0,3.515,3.515A3.519,3.519,0,0,0,11.25,7.735ZM17.3,5.953a.75.75,0,1,1,.75-.75A.751.751,0,0,1,17.3,5.953Z" transform="translate(0.75 0.75)"/></clipPath></defs><g class="c"><path class="a" d="M15.468,22.5H7.031A7.039,7.039,0,0,1,0,15.468V7.031A7.039,7.039,0,0,1,7.031,0h8.438A7.039,7.039,0,0,1,22.5,7.031v8.438A7.04,7.04,0,0,1,15.468,22.5ZM7.031,2.11A4.927,4.927,0,0,0,2.11,7.031v8.438A4.927,4.927,0,0,0,7.031,20.39h8.438a4.928,4.928,0,0,0,4.922-4.922V7.031A4.927,4.927,0,0,0,15.468,2.11ZM11.25,16.875a5.625,5.625,0,1,1,5.625-5.625A5.631,5.631,0,0,1,11.25,16.875Zm0-9.14a3.515,3.515,0,1,0,3.515,3.515A3.519,3.519,0,0,0,11.25,7.735ZM17.3,5.953a.75.75,0,1,1,.75-.75A.751.751,0,0,1,17.3,5.953Z"/><g class="d" transform="translate(-0.75 -0.75)"><rect class="e" width="24" height="24"/><rect class="a" width="24" height="24"/></g></g></svg>