<svg xmlns="http://www.w3.org/2000/svg" width="213.881" height="190.74" viewBox="0 0 213.881 190.74"><defs><style>.a{fill:#cfe0ff;opacity:0.6;}.b{fill:#e79e00;}.c{fill:#6beb88;}</style></defs><g transform="translate(212.662 167.479) rotate(149)"><path class="a" d="M43.082,124.115a2.051,2.051,0,1,1,2.052,2.052A2.051,2.051,0,0,1,43.082,124.115Zm-14.36,0a2.051,2.051,0,1,1,2.051,2.052A2.051,2.051,0,0,1,28.721,124.115ZM71.8,109.755a2.052,2.052,0,1,1,2.052,2.052A2.051,2.051,0,0,1,71.8,109.755Zm-14.36,0a2.051,2.051,0,1,1,2.052,2.052A2.051,2.051,0,0,1,57.442,109.755Zm-14.36,0a2.051,2.051,0,1,1,2.052,2.052A2.051,2.051,0,0,1,43.082,109.755Zm-14.36,0a2.051,2.051,0,1,1,2.051,2.052A2.051,2.051,0,0,1,28.721,109.755Zm-14.361,0a2.052,2.052,0,1,1,2.052,2.052A2.051,2.051,0,0,1,14.36,109.755Zm100.524-14.36a2.051,2.051,0,1,1,2.052,2.051A2.052,2.052,0,0,1,114.884,95.395Zm-14.36,0a2.051,2.051,0,1,1,2.052,2.051A2.052,2.052,0,0,1,100.524,95.395Zm-14.36,0a2.051,2.051,0,1,1,2.051,2.051A2.051,2.051,0,0,1,86.163,95.395Zm-14.361,0a2.052,2.052,0,1,1,2.052,2.051A2.052,2.052,0,0,1,71.8,95.395Zm-14.36,0a2.051,2.051,0,1,1,2.052,2.051A2.052,2.052,0,0,1,57.442,95.395Zm-14.36,0a2.051,2.051,0,1,1,2.052,2.051A2.052,2.052,0,0,1,43.082,95.395Zm-14.36,0a2.051,2.051,0,1,1,2.051,2.051A2.051,2.051,0,0,1,28.721,95.395Zm-14.361,0a2.052,2.052,0,1,1,2.052,2.051A2.052,2.052,0,0,1,14.36,95.395ZM0,95.395a2.051,2.051,0,1,1,2.052,2.051A2.052,2.052,0,0,1,0,95.395Zm157.965-14.36a2.051,2.051,0,1,1,2.052,2.051A2.052,2.052,0,0,1,157.965,81.034Zm-14.36,0a2.051,2.051,0,1,1,2.051,2.051A2.051,2.051,0,0,1,143.605,81.034Zm-14.361,0a2.052,2.052,0,1,1,2.052,2.051A2.052,2.052,0,0,1,129.244,81.034Zm-14.36,0a2.051,2.051,0,1,1,2.052,2.051A2.052,2.052,0,0,1,114.884,81.034Zm-14.36,0a2.051,2.051,0,1,1,2.052,2.051A2.052,2.052,0,0,1,100.524,81.034Zm-14.36,0a2.051,2.051,0,1,1,2.051,2.051A2.051,2.051,0,0,1,86.163,81.034Zm-14.361,0a2.052,2.052,0,1,1,2.052,2.051A2.052,2.052,0,0,1,71.8,81.034Zm-14.36,0a2.051,2.051,0,1,1,2.052,2.051A2.052,2.052,0,0,1,57.442,81.034Zm-14.36,0a2.051,2.051,0,1,1,2.052,2.051A2.052,2.052,0,0,1,43.082,81.034Zm-14.36,0a2.051,2.051,0,1,1,2.051,2.051A2.051,2.051,0,0,1,28.721,81.034Zm-14.361,0a2.052,2.052,0,1,1,2.052,2.051A2.052,2.052,0,0,1,14.36,81.034ZM0,81.034a2.051,2.051,0,1,1,2.052,2.051A2.052,2.052,0,0,1,0,81.034ZM157.965,66.674a2.051,2.051,0,1,1,2.052,2.052A2.051,2.051,0,0,1,157.965,66.674Zm-14.36,0a2.051,2.051,0,1,1,2.051,2.052A2.051,2.051,0,0,1,143.605,66.674Zm-14.361,0a2.052,2.052,0,1,1,2.052,2.052A2.051,2.051,0,0,1,129.244,66.674Zm-14.36,0a2.051,2.051,0,1,1,2.052,2.052A2.051,2.051,0,0,1,114.884,66.674Zm-14.36,0a2.051,2.051,0,1,1,2.052,2.052A2.051,2.051,0,0,1,100.524,66.674Zm-14.36,0a2.051,2.051,0,1,1,2.051,2.052A2.051,2.051,0,0,1,86.163,66.674Zm-14.361,0a2.052,2.052,0,1,1,2.052,2.052A2.051,2.051,0,0,1,71.8,66.674Zm-14.36,0a2.051,2.051,0,1,1,2.052,2.052A2.051,2.051,0,0,1,57.442,66.674Zm-14.36,0a2.051,2.051,0,1,1,2.052,2.052A2.051,2.051,0,0,1,43.082,66.674Zm-14.36,0a2.051,2.051,0,1,1,2.051,2.052A2.051,2.051,0,0,1,28.721,66.674Zm-14.361,0a2.052,2.052,0,1,1,2.052,2.052A2.051,2.051,0,0,1,14.36,66.674Zm143.605-14.36a2.051,2.051,0,1,1,2.052,2.052A2.052,2.052,0,0,1,157.965,52.313Zm-14.36,0a2.051,2.051,0,1,1,2.051,2.052A2.051,2.051,0,0,1,143.605,52.313Zm-14.361,0a2.052,2.052,0,1,1,2.052,2.052A2.052,2.052,0,0,1,129.244,52.313Zm-14.36,0a2.051,2.051,0,1,1,2.052,2.052A2.052,2.052,0,0,1,114.884,52.313Zm-14.36,0a2.051,2.051,0,1,1,2.052,2.052A2.052,2.052,0,0,1,100.524,52.313Zm-14.36,0a2.051,2.051,0,1,1,2.051,2.052A2.051,2.051,0,0,1,86.163,52.313Zm-14.361,0a2.052,2.052,0,1,1,2.052,2.052A2.052,2.052,0,0,1,71.8,52.313Zm-14.36,0a2.051,2.051,0,1,1,2.052,2.052A2.052,2.052,0,0,1,57.442,52.313Zm-14.36,0a2.051,2.051,0,1,1,2.052,2.052A2.052,2.052,0,0,1,43.082,52.313Zm-14.36,0a2.051,2.051,0,1,1,2.051,2.052A2.051,2.051,0,0,1,28.721,52.313Zm-14.36,0a2.051,2.051,0,1,1,2.051,2.052A2.051,2.051,0,0,1,14.361,52.313Zm157.965-14.36A2.051,2.051,0,1,1,174.378,40,2.052,2.052,0,0,1,172.326,37.953Zm-14.36,0A2.051,2.051,0,1,1,160.017,40,2.052,2.052,0,0,1,157.965,37.953Zm-14.36,0A2.051,2.051,0,1,1,145.656,40,2.051,2.051,0,0,1,143.605,37.953Zm-14.361,0A2.052,2.052,0,1,1,131.3,40,2.052,2.052,0,0,1,129.244,37.953Zm-14.36,0A2.051,2.051,0,1,1,116.936,40,2.052,2.052,0,0,1,114.884,37.953Zm-14.36,0A2.051,2.051,0,1,1,102.575,40,2.052,2.052,0,0,1,100.524,37.953Zm-14.36,0A2.051,2.051,0,1,1,88.214,40,2.051,2.051,0,0,1,86.163,37.953Zm-14.361,0A2.052,2.052,0,1,1,73.854,40,2.052,2.052,0,0,1,71.8,37.953Zm-14.36,0A2.051,2.051,0,1,1,59.494,40,2.052,2.052,0,0,1,57.442,37.953Zm-14.36,0A2.051,2.051,0,1,1,45.133,40,2.052,2.052,0,0,1,43.082,37.953Zm-14.36,0A2.051,2.051,0,1,1,30.772,40,2.051,2.051,0,0,1,28.721,37.953Zm143.6-14.361a2.051,2.051,0,1,1,2.052,2.052A2.052,2.052,0,0,1,172.326,23.592Zm-14.36,0a2.051,2.051,0,1,1,2.052,2.052A2.052,2.052,0,0,1,157.965,23.592Zm-14.36,0a2.051,2.051,0,1,1,2.051,2.052A2.051,2.051,0,0,1,143.605,23.592Zm-14.361,0a2.052,2.052,0,1,1,2.052,2.052A2.052,2.052,0,0,1,129.244,23.592Zm-14.36,0a2.051,2.051,0,1,1,2.052,2.052A2.052,2.052,0,0,1,114.884,23.592Zm-14.36,0a2.051,2.051,0,1,1,2.052,2.051A2.052,2.052,0,0,1,100.524,23.593Zm-14.36,0a2.051,2.051,0,1,1,2.051,2.051A2.051,2.051,0,0,1,86.163,23.593Zm-14.361,0a2.052,2.052,0,1,1,2.052,2.051A2.052,2.052,0,0,1,71.8,23.593Zm-14.36,0a2.051,2.051,0,1,1,2.052,2.051A2.052,2.052,0,0,1,57.442,23.593Zm-14.36,0a2.051,2.051,0,1,1,2.052,2.051A2.052,2.052,0,0,1,43.082,23.593Zm-14.36,0a2.051,2.051,0,1,1,2.051,2.051A2.051,2.051,0,0,1,28.721,23.593ZM57.442,13.334a2.051,2.051,0,1,1,2.052,2.052A2.052,2.052,0,0,1,57.442,13.334Zm100.524-4.1a2.051,2.051,0,1,1,2.052,2.052A2.051,2.051,0,0,1,157.965,9.232Zm-14.36,0a2.051,2.051,0,1,1,2.051,2.052A2.051,2.051,0,0,1,143.605,9.232Zm-14.361,0a2.052,2.052,0,1,1,2.052,2.052A2.051,2.051,0,0,1,129.244,9.232Zm-14.36,0a2.051,2.051,0,1,1,2.052,2.052A2.051,2.051,0,0,1,114.884,9.232Zm-14.36,0a2.051,2.051,0,1,1,2.052,2.052A2.051,2.051,0,0,1,100.524,9.232Zm-14.36,0a2.051,2.051,0,1,1,2.051,2.052A2.051,2.051,0,0,1,86.163,9.232Zm-14.36,0a2.051,2.051,0,1,1,2.051,2.052A2.051,2.051,0,0,1,71.8,9.232Zm-28.721,0a2.051,2.051,0,1,1,2.052,2.052A2.051,2.051,0,0,1,43.082,9.232Zm14.36-7.18A2.051,2.051,0,1,1,59.494,4.1,2.052,2.052,0,0,1,57.442,2.052Z" transform="matrix(0.996, 0.087, -0.087, 0.996, -28.899, 45.729)"/><path class="b" d="M13.466,26.931A13.465,13.465,0,1,1,26.931,13.465,13.464,13.464,0,0,1,13.466,26.931Zm0-20.434A6.733,6.733,0,1,0,20.2,13.23,6.735,6.735,0,0,0,13.466,6.5Z" transform="matrix(0.966, -0.259, 0.259, 0.966, 45.244, 172.143)"/><ellipse class="c" cx="6.733" cy="6.733" rx="6.733" ry="6.733" transform="matrix(0.966, -0.259, 0.259, 0.966, 76.916, 119.348)"/></g></svg>