<svg xmlns="http://www.w3.org/2000/svg" width="292.41" height="270.333" viewBox="0 0 292.41 270.333"><defs><style>.a{fill:#42a1ff;opacity:0.5;}.b{fill:#f7cf06;}.c{fill:#4fceff;}.d{fill:#f37c6a;}</style></defs><g transform="translate(-1193.382 -2647.573) rotate(-22)"><path class="a" d="M95.722,165.462a2.735,2.735,0,1,1,2.735,2.736A2.735,2.735,0,0,1,95.722,165.462Zm-19.145,0a2.735,2.735,0,1,1,2.735,2.736A2.735,2.735,0,0,1,76.577,165.462Zm-19.144,0a2.735,2.735,0,1,1,2.735,2.736A2.735,2.735,0,0,1,57.434,165.462Zm-19.145,0a2.735,2.735,0,1,1,2.735,2.736A2.735,2.735,0,0,1,38.289,165.462Zm-19.144,0A2.735,2.735,0,1,1,21.88,168.2,2.734,2.734,0,0,1,19.145,165.462Zm95.721-19.144a2.735,2.735,0,1,1,2.736,2.735A2.735,2.735,0,0,1,114.866,146.318Zm-19.144,0a2.735,2.735,0,1,1,2.735,2.735A2.735,2.735,0,0,1,95.722,146.318Zm-19.145,0a2.735,2.735,0,1,1,2.735,2.735A2.735,2.735,0,0,1,76.577,146.318Zm-19.144,0a2.735,2.735,0,1,1,2.735,2.735A2.735,2.735,0,0,1,57.434,146.318Zm-19.145,0a2.735,2.735,0,1,1,2.735,2.735A2.735,2.735,0,0,1,38.289,146.318Zm-19.144,0a2.735,2.735,0,1,1,2.735,2.735A2.734,2.734,0,0,1,19.145,146.318Zm191.443-19.145a2.735,2.735,0,1,1,2.735,2.736A2.735,2.735,0,0,1,210.588,127.173Zm-19.144,0a2.735,2.735,0,1,1,2.735,2.736A2.734,2.734,0,0,1,191.445,127.173Zm-19.145,0a2.735,2.735,0,1,1,2.735,2.736A2.735,2.735,0,0,1,172.3,127.173Zm-19.145,0a2.735,2.735,0,1,1,2.736,2.736A2.735,2.735,0,0,1,153.155,127.173Zm-19.144,0a2.735,2.735,0,1,1,2.735,2.736A2.735,2.735,0,0,1,134.011,127.173Zm-19.145,0a2.735,2.735,0,1,1,2.736,2.736A2.735,2.735,0,0,1,114.866,127.173Zm-19.144,0a2.735,2.735,0,1,1,2.735,2.736A2.735,2.735,0,0,1,95.722,127.173Zm-19.145,0a2.735,2.735,0,1,1,2.735,2.736A2.735,2.735,0,0,1,76.577,127.173Zm-19.144,0a2.735,2.735,0,1,1,2.735,2.736A2.735,2.735,0,0,1,57.434,127.173Zm-19.145,0a2.735,2.735,0,1,1,2.735,2.736A2.735,2.735,0,0,1,38.289,127.173Zm-19.144,0a2.735,2.735,0,1,1,2.735,2.736A2.734,2.734,0,0,1,19.145,127.173Zm210.588-19.144a2.735,2.735,0,1,1,2.735,2.735A2.734,2.734,0,0,1,229.733,108.029Zm-19.145,0a2.735,2.735,0,1,1,2.735,2.735A2.734,2.734,0,0,1,210.588,108.029Zm-19.144,0a2.735,2.735,0,1,1,2.735,2.735A2.733,2.733,0,0,1,191.445,108.029Zm-19.145,0a2.735,2.735,0,1,1,2.735,2.735A2.734,2.734,0,0,1,172.3,108.029Zm-19.145,0a2.735,2.735,0,1,1,2.736,2.735A2.734,2.734,0,0,1,153.155,108.029Zm-19.144,0a2.735,2.735,0,1,1,2.735,2.735A2.734,2.734,0,0,1,134.011,108.029Zm-19.145,0a2.735,2.735,0,1,1,2.736,2.735A2.734,2.734,0,0,1,114.866,108.029Zm-19.144,0a2.735,2.735,0,1,1,2.735,2.735A2.734,2.734,0,0,1,95.722,108.029Zm-19.145,0a2.735,2.735,0,1,1,2.735,2.735A2.734,2.734,0,0,1,76.577,108.029Zm-19.144,0a2.735,2.735,0,1,1,2.735,2.735A2.734,2.734,0,0,1,57.434,108.029Zm-19.145,0a2.735,2.735,0,1,1,2.735,2.735A2.734,2.734,0,0,1,38.289,108.029Zm-19.144,0a2.735,2.735,0,1,1,2.735,2.735A2.733,2.733,0,0,1,19.145,108.029ZM229.733,88.884a2.735,2.735,0,1,1,2.735,2.735A2.735,2.735,0,0,1,229.733,88.884Zm-19.145,0a2.735,2.735,0,1,1,2.735,2.735A2.735,2.735,0,0,1,210.588,88.884Zm-19.144,0a2.735,2.735,0,1,1,2.735,2.735A2.734,2.734,0,0,1,191.445,88.884Zm-19.145,0a2.735,2.735,0,1,1,2.735,2.735A2.735,2.735,0,0,1,172.3,88.884Zm-19.145,0a2.735,2.735,0,1,1,2.736,2.735A2.735,2.735,0,0,1,153.155,88.884Zm-19.144,0a2.735,2.735,0,1,1,2.735,2.735A2.735,2.735,0,0,1,134.011,88.884Zm-19.145,0a2.735,2.735,0,1,1,2.736,2.735A2.735,2.735,0,0,1,114.866,88.884Zm-19.144,0a2.735,2.735,0,1,1,2.735,2.735A2.735,2.735,0,0,1,95.722,88.884Zm-19.145,0a2.735,2.735,0,1,1,2.735,2.735A2.735,2.735,0,0,1,76.577,88.884Zm-19.144,0a2.735,2.735,0,1,1,2.735,2.735A2.735,2.735,0,0,1,57.434,88.884Zm-19.145,0a2.735,2.735,0,1,1,2.735,2.735A2.735,2.735,0,0,1,38.289,88.884Zm-19.144,0a2.735,2.735,0,1,1,2.735,2.735A2.734,2.734,0,0,1,19.145,88.884ZM0,88.884a2.735,2.735,0,1,1,2.735,2.735A2.735,2.735,0,0,1,0,88.884ZM229.733,69.741a2.735,2.735,0,1,1,2.735,2.735A2.735,2.735,0,0,1,229.733,69.741Zm-19.145,0a2.735,2.735,0,1,1,2.735,2.735A2.735,2.735,0,0,1,210.588,69.741Zm-19.144,0a2.735,2.735,0,1,1,2.735,2.735A2.734,2.734,0,0,1,191.445,69.741Zm-19.145,0a2.735,2.735,0,1,1,2.735,2.735A2.735,2.735,0,0,1,172.3,69.741Zm-19.145,0a2.735,2.735,0,1,1,2.736,2.735A2.735,2.735,0,0,1,153.155,69.741Zm-19.144,0a2.735,2.735,0,1,1,2.735,2.735A2.735,2.735,0,0,1,134.011,69.741Zm-19.145,0a2.735,2.735,0,1,1,2.736,2.735A2.735,2.735,0,0,1,114.866,69.741Zm-19.144,0a2.735,2.735,0,1,1,2.735,2.735A2.735,2.735,0,0,1,95.722,69.741Zm-19.145,0a2.735,2.735,0,1,1,2.735,2.735A2.735,2.735,0,0,1,76.577,69.741Zm-19.144,0a2.735,2.735,0,1,1,2.735,2.735A2.735,2.735,0,0,1,57.434,69.741Zm-19.145,0a2.735,2.735,0,1,1,2.735,2.735A2.735,2.735,0,0,1,38.289,69.741Zm-19.144,0a2.735,2.735,0,1,1,2.735,2.735A2.734,2.734,0,0,1,19.145,69.741ZM248.877,50.6a2.735,2.735,0,1,1,2.735,2.735A2.735,2.735,0,0,1,248.877,50.6Zm-19.144,0a2.735,2.735,0,1,1,2.735,2.735A2.735,2.735,0,0,1,229.733,50.6Zm-19.145,0a2.735,2.735,0,1,1,2.735,2.735A2.735,2.735,0,0,1,210.588,50.6Zm-19.144,0a2.735,2.735,0,1,1,2.735,2.735A2.734,2.734,0,0,1,191.445,50.6Zm-19.145,0a2.735,2.735,0,1,1,2.735,2.735A2.735,2.735,0,0,1,172.3,50.6Zm-19.145,0a2.735,2.735,0,1,1,2.736,2.735A2.735,2.735,0,0,1,153.155,50.6Zm-19.144,0a2.735,2.735,0,1,1,2.735,2.735A2.735,2.735,0,0,1,134.011,50.6Zm-19.145,0A2.735,2.735,0,1,1,117.6,53.33,2.735,2.735,0,0,1,114.866,50.6Zm-19.144,0a2.735,2.735,0,1,1,2.735,2.735A2.735,2.735,0,0,1,95.722,50.6Zm-19.145,0a2.735,2.735,0,1,1,2.735,2.735A2.735,2.735,0,0,1,76.577,50.6Zm-19.144,0a2.735,2.735,0,1,1,2.735,2.735A2.735,2.735,0,0,1,57.434,50.6Zm-19.145,0a2.735,2.735,0,1,1,2.735,2.735A2.735,2.735,0,0,1,38.289,50.6Zm-19.144,0A2.735,2.735,0,1,1,21.88,53.33,2.734,2.734,0,0,1,19.145,50.6ZM248.877,31.452a2.735,2.735,0,1,1,2.735,2.735A2.735,2.735,0,0,1,248.877,31.452Zm-19.144,0a2.735,2.735,0,1,1,2.735,2.735A2.735,2.735,0,0,1,229.733,31.452Zm-19.145,0a2.735,2.735,0,1,1,2.735,2.735A2.735,2.735,0,0,1,210.588,31.452Zm-19.144,0a2.735,2.735,0,1,1,2.735,2.735A2.734,2.734,0,0,1,191.445,31.452Zm-19.145,0a2.735,2.735,0,1,1,2.735,2.735A2.735,2.735,0,0,1,172.3,31.452Zm-19.145,0a2.735,2.735,0,1,1,2.736,2.735A2.735,2.735,0,0,1,153.155,31.452Zm-19.144,0a2.735,2.735,0,1,1,2.735,2.735A2.735,2.735,0,0,1,134.011,31.452Zm-19.145,0a2.735,2.735,0,1,1,2.736,2.735A2.735,2.735,0,0,1,114.866,31.452Zm-19.144,0a2.735,2.735,0,1,1,2.735,2.735A2.735,2.735,0,0,1,95.722,31.452Zm-19.145,0a2.735,2.735,0,1,1,2.735,2.735A2.735,2.735,0,0,1,76.577,31.452Zm-19.144,0a2.735,2.735,0,1,1,2.735,2.735A2.735,2.735,0,0,1,57.434,31.452ZM95.722,17.776a2.735,2.735,0,1,1,2.735,2.736A2.735,2.735,0,0,1,95.722,17.776Zm134.011-5.469a2.735,2.735,0,1,1,2.735,2.735A2.735,2.735,0,0,1,229.733,12.307Zm-19.145,0a2.735,2.735,0,1,1,2.735,2.735A2.735,2.735,0,0,1,210.588,12.307Zm-19.144,0a2.735,2.735,0,1,1,2.735,2.735A2.734,2.734,0,0,1,191.445,12.307Zm-19.145,0a2.735,2.735,0,1,1,2.735,2.735A2.735,2.735,0,0,1,172.3,12.307Zm-19.145,0a2.735,2.735,0,1,1,2.736,2.735A2.735,2.735,0,0,1,153.155,12.307Zm-19.144,0a2.735,2.735,0,1,1,2.735,2.735A2.735,2.735,0,0,1,134.011,12.307Zm-19.145,0a2.735,2.735,0,1,1,2.736,2.735A2.735,2.735,0,0,1,114.866,12.307Zm-38.289,0a2.735,2.735,0,1,1,2.735,2.735A2.735,2.735,0,0,1,76.577,12.307ZM95.722,2.735a2.735,2.735,0,1,1,2.735,2.735A2.735,2.735,0,0,1,95.722,2.735Z" transform="matrix(0.996, 0.087, -0.087, 0.996, 86.829, 2970.785)"/><path class="b" d="M12.759,25.517A12.759,12.759,0,1,1,25.517,12.758,12.757,12.757,0,0,1,12.759,25.517Zm0-19.361a6.379,6.379,0,1,0,6.379,6.379A6.381,6.381,0,0,0,12.759,6.156Z" transform="matrix(0.966, -0.259, 0.259, 0.966, 134.082, 3179.257)"/><path class="c" d="M28.794,5.084,35.12,24.552a7.352,7.352,0,0,1-8.557,9.457L5.79,29.483a7.354,7.354,0,0,1-3.717-12.3L16.514,2.246A7.353,7.353,0,0,1,28.794,5.084Z" transform="matrix(0.966, -0.259, 0.259, 0.966, 158.053, 3069.92)"/><ellipse class="d" cx="10.65" cy="10.65" rx="10.65" ry="10.65" transform="matrix(0.966, -0.259, 0.259, 0.966, 229.506, 3153.348)"/></g></svg>