<svg xmlns="http://www.w3.org/2000/svg" width="231.318" height="191.153" viewBox="0 0 231.318 191.153"><defs><style>.a{fill:#b9cfff;opacity:0.5;}.b{fill:#f7cf06;}.c{fill:#f37c6a;}</style></defs><path class="a" d="M74.67,129.072a2.133,2.133,0,1,1,2.133,2.134A2.133,2.133,0,0,1,74.67,129.072Zm-14.934,0a2.134,2.134,0,1,1,2.133,2.134A2.133,2.133,0,0,1,59.736,129.072Zm-14.933,0a2.133,2.133,0,1,1,2.133,2.134A2.133,2.133,0,0,1,44.8,129.072Zm-14.934,0A2.134,2.134,0,1,1,32,131.206,2.133,2.133,0,0,1,29.868,129.072Zm-14.933,0a2.133,2.133,0,1,1,2.133,2.134A2.133,2.133,0,0,1,14.934,129.072ZM89.6,114.139a2.134,2.134,0,1,1,2.134,2.133A2.134,2.134,0,0,1,89.6,114.139Zm-14.933,0a2.133,2.133,0,1,1,2.133,2.133A2.133,2.133,0,0,1,74.67,114.139Zm-14.934,0a2.134,2.134,0,1,1,2.133,2.133A2.133,2.133,0,0,1,59.736,114.139Zm-14.933,0a2.133,2.133,0,1,1,2.133,2.133A2.133,2.133,0,0,1,44.8,114.139Zm-14.934,0A2.134,2.134,0,1,1,32,116.272,2.133,2.133,0,0,1,29.868,114.139Zm-14.933,0a2.133,2.133,0,1,1,2.133,2.133A2.133,2.133,0,0,1,14.934,114.139ZM164.274,99.2a2.134,2.134,0,1,1,2.133,2.134A2.133,2.133,0,0,1,164.274,99.2Zm-14.933,0a2.133,2.133,0,1,1,2.133,2.134A2.133,2.133,0,0,1,149.34,99.2Zm-14.934,0a2.133,2.133,0,1,1,2.133,2.134A2.133,2.133,0,0,1,134.406,99.2Zm-14.934,0a2.134,2.134,0,1,1,2.134,2.134A2.134,2.134,0,0,1,119.471,99.2Zm-14.933,0a2.133,2.133,0,1,1,2.133,2.134A2.133,2.133,0,0,1,104.538,99.2ZM89.6,99.2a2.134,2.134,0,1,1,2.134,2.134A2.134,2.134,0,0,1,89.6,99.2Zm-14.933,0a2.133,2.133,0,1,1,2.133,2.134A2.133,2.133,0,0,1,74.67,99.2Zm-14.934,0a2.134,2.134,0,1,1,2.133,2.134A2.133,2.133,0,0,1,59.736,99.2ZM44.8,99.2a2.133,2.133,0,1,1,2.133,2.134A2.133,2.133,0,0,1,44.8,99.2Zm-14.934,0A2.134,2.134,0,1,1,32,101.338,2.133,2.133,0,0,1,29.868,99.2Zm-14.933,0a2.133,2.133,0,1,1,2.133,2.134A2.133,2.133,0,0,1,14.934,99.2ZM179.208,84.271a2.133,2.133,0,1,1,2.133,2.133A2.133,2.133,0,0,1,179.208,84.271Zm-14.934,0a2.134,2.134,0,1,1,2.133,2.133A2.133,2.133,0,0,1,164.274,84.271Zm-14.933,0a2.133,2.133,0,1,1,2.133,2.133A2.132,2.132,0,0,1,149.34,84.271Zm-14.934,0a2.133,2.133,0,1,1,2.133,2.133A2.133,2.133,0,0,1,134.406,84.271Zm-14.934,0a2.134,2.134,0,1,1,2.134,2.133A2.133,2.133,0,0,1,119.471,84.271Zm-14.933,0a2.133,2.133,0,1,1,2.133,2.133A2.133,2.133,0,0,1,104.538,84.271Zm-14.934,0A2.134,2.134,0,1,1,91.738,86.4,2.133,2.133,0,0,1,89.6,84.271Zm-14.933,0A2.133,2.133,0,1,1,76.8,86.4,2.133,2.133,0,0,1,74.67,84.271Zm-14.934,0A2.134,2.134,0,1,1,61.869,86.4,2.133,2.133,0,0,1,59.736,84.271Zm-14.933,0A2.133,2.133,0,1,1,46.935,86.4,2.133,2.133,0,0,1,44.8,84.271Zm-14.934,0A2.134,2.134,0,1,1,32,86.4,2.133,2.133,0,0,1,29.868,84.271Zm-14.933,0A2.133,2.133,0,1,1,17.068,86.4,2.132,2.132,0,0,1,14.934,84.271ZM179.208,69.336a2.133,2.133,0,1,1,2.133,2.133A2.133,2.133,0,0,1,179.208,69.336Zm-14.934,0a2.134,2.134,0,1,1,2.133,2.133A2.133,2.133,0,0,1,164.274,69.336Zm-14.933,0a2.133,2.133,0,1,1,2.133,2.133A2.133,2.133,0,0,1,149.34,69.336Zm-14.934,0a2.133,2.133,0,1,1,2.133,2.133A2.133,2.133,0,0,1,134.406,69.336Zm-14.934,0a2.134,2.134,0,1,1,2.134,2.133A2.134,2.134,0,0,1,119.471,69.336Zm-14.933,0a2.133,2.133,0,1,1,2.133,2.133A2.133,2.133,0,0,1,104.538,69.336Zm-14.934,0a2.134,2.134,0,1,1,2.134,2.133A2.134,2.134,0,0,1,89.6,69.336Zm-14.933,0A2.133,2.133,0,1,1,76.8,71.469,2.133,2.133,0,0,1,74.67,69.336Zm-14.934,0a2.134,2.134,0,1,1,2.133,2.133A2.133,2.133,0,0,1,59.736,69.336Zm-14.933,0a2.133,2.133,0,1,1,2.133,2.133A2.133,2.133,0,0,1,44.8,69.336Zm-14.934,0A2.134,2.134,0,1,1,32,71.469,2.133,2.133,0,0,1,29.868,69.336Zm-14.933,0a2.133,2.133,0,1,1,2.133,2.133A2.133,2.133,0,0,1,14.934,69.336ZM0,69.336a2.133,2.133,0,1,1,2.133,2.133A2.133,2.133,0,0,1,0,69.336ZM179.208,54.4a2.133,2.133,0,1,1,2.133,2.133A2.134,2.134,0,0,1,179.208,54.4Zm-14.934,0a2.134,2.134,0,1,1,2.133,2.133A2.134,2.134,0,0,1,164.274,54.4Zm-14.933,0a2.133,2.133,0,1,1,2.133,2.133A2.133,2.133,0,0,1,149.34,54.4Zm-14.934,0a2.133,2.133,0,1,1,2.133,2.133A2.134,2.134,0,0,1,134.406,54.4Zm-14.934,0a2.134,2.134,0,1,1,2.134,2.133A2.134,2.134,0,0,1,119.471,54.4Zm-14.933,0a2.133,2.133,0,1,1,2.133,2.133A2.134,2.134,0,0,1,104.538,54.4ZM89.6,54.4a2.134,2.134,0,1,1,2.134,2.133A2.134,2.134,0,0,1,89.6,54.4Zm-14.933,0A2.133,2.133,0,1,1,76.8,56.536,2.134,2.134,0,0,1,74.67,54.4Zm-14.934,0a2.134,2.134,0,1,1,2.133,2.133A2.134,2.134,0,0,1,59.736,54.4ZM44.8,54.4a2.133,2.133,0,1,1,2.133,2.133A2.134,2.134,0,0,1,44.8,54.4Zm-14.934,0A2.134,2.134,0,1,1,32,56.536,2.134,2.134,0,0,1,29.868,54.4Zm-14.933,0a2.133,2.133,0,1,1,2.133,2.133A2.133,2.133,0,0,1,14.934,54.4ZM194.141,39.468a2.134,2.134,0,1,1,2.133,2.133A2.133,2.133,0,0,1,194.141,39.468Zm-14.933,0a2.133,2.133,0,1,1,2.133,2.133A2.133,2.133,0,0,1,179.208,39.468Zm-14.934,0a2.134,2.134,0,1,1,2.133,2.133A2.133,2.133,0,0,1,164.274,39.468Zm-14.933,0a2.133,2.133,0,1,1,2.133,2.133A2.133,2.133,0,0,1,149.34,39.468Zm-14.934,0a2.133,2.133,0,1,1,2.133,2.133A2.133,2.133,0,0,1,134.406,39.468Zm-14.934,0a2.134,2.134,0,1,1,2.134,2.133A2.134,2.134,0,0,1,119.471,39.468Zm-14.933,0a2.133,2.133,0,1,1,2.133,2.133A2.133,2.133,0,0,1,104.538,39.468Zm-14.934,0A2.134,2.134,0,1,1,91.738,41.6,2.134,2.134,0,0,1,89.6,39.468Zm-14.933,0A2.133,2.133,0,1,1,76.8,41.6,2.133,2.133,0,0,1,74.67,39.468Zm-14.934,0A2.134,2.134,0,1,1,61.869,41.6,2.133,2.133,0,0,1,59.736,39.468Zm-14.933,0A2.133,2.133,0,1,1,46.935,41.6,2.133,2.133,0,0,1,44.8,39.468Zm-14.934,0A2.134,2.134,0,1,1,32,41.6,2.133,2.133,0,0,1,29.868,39.468Zm-14.933,0A2.133,2.133,0,1,1,17.068,41.6,2.133,2.133,0,0,1,14.934,39.468ZM194.141,24.535a2.134,2.134,0,1,1,2.133,2.133A2.134,2.134,0,0,1,194.141,24.535Zm-14.933,0a2.133,2.133,0,1,1,2.133,2.133A2.134,2.134,0,0,1,179.208,24.535Zm-14.934,0a2.134,2.134,0,1,1,2.133,2.133A2.134,2.134,0,0,1,164.274,24.535Zm-14.933,0a2.133,2.133,0,1,1,2.133,2.133A2.133,2.133,0,0,1,149.34,24.535Zm-14.934,0a2.133,2.133,0,1,1,2.133,2.133A2.134,2.134,0,0,1,134.406,24.535Zm-14.934,0a2.134,2.134,0,1,1,2.134,2.133A2.134,2.134,0,0,1,119.471,24.535Zm-14.933,0a2.133,2.133,0,1,1,2.133,2.133A2.134,2.134,0,0,1,104.538,24.535Zm-14.934,0a2.134,2.134,0,1,1,2.134,2.133A2.134,2.134,0,0,1,89.6,24.535Zm-14.933,0A2.133,2.133,0,1,1,76.8,26.668,2.134,2.134,0,0,1,74.67,24.535Zm-14.934,0a2.134,2.134,0,1,1,2.133,2.133A2.134,2.134,0,0,1,59.736,24.535Zm-14.933,0a2.133,2.133,0,1,1,2.133,2.133A2.134,2.134,0,0,1,44.8,24.535ZM74.67,13.867A2.133,2.133,0,1,1,76.8,16,2.133,2.133,0,0,1,74.67,13.867ZM179.208,9.6a2.133,2.133,0,1,1,2.133,2.133A2.133,2.133,0,0,1,179.208,9.6Zm-14.934,0a2.134,2.134,0,1,1,2.133,2.133A2.133,2.133,0,0,1,164.274,9.6Zm-14.933,0a2.133,2.133,0,1,1,2.133,2.133A2.133,2.133,0,0,1,149.34,9.6Zm-14.934,0a2.133,2.133,0,1,1,2.133,2.133A2.133,2.133,0,0,1,134.406,9.6Zm-14.934,0a2.134,2.134,0,1,1,2.134,2.133A2.134,2.134,0,0,1,119.471,9.6Zm-14.933,0a2.133,2.133,0,1,1,2.133,2.133A2.133,2.133,0,0,1,104.538,9.6ZM89.6,9.6a2.134,2.134,0,1,1,2.134,2.133A2.134,2.134,0,0,1,89.6,9.6Zm-29.868,0a2.134,2.134,0,1,1,2.133,2.133A2.133,2.133,0,0,1,59.736,9.6ZM74.67,2.133A2.133,2.133,0,1,1,76.8,4.267,2.133,2.133,0,0,1,74.67,2.133Z" transform="translate(186.443 191.153) rotate(-160)"/><path class="b" d="M640.94,2585.319a11.763,11.763,0,1,1-11.763,11.763A11.764,11.764,0,0,1,640.94,2585.319Zm0,17.851a5.882,5.882,0,1,0-5.881-5.881A5.882,5.882,0,0,0,640.94,2603.17Z" transform="translate(-451.287 -2443.467)"/><ellipse class="c" cx="5.881" cy="5.881" rx="5.881" ry="5.881" transform="translate(94.499 21.298)"/></svg>