<svg xmlns="http://www.w3.org/2000/svg" xmlns:xlink="http://www.w3.org/1999/xlink" width="1366.258" height="452.042" viewBox="0 0 1366.258 452.042"><defs><style>.a{fill:#387dff;}.b{fill:#5690ff;}.c,.g,.i,.j,.p,.t{fill:none;}.d{fill:#fffffe;}.e{fill:#0052e0;}.f{fill:#003ea9;opacity:0.257;}.g{stroke:#b9cfff;}.h{fill:#f7ce05;}.i{stroke:#6aea87;}.i,.j,.p,.t{stroke-miterlimit:10;}.i,.j{stroke-width:3px;}.j{stroke:#4fceff;}.k{fill:#b9cfff;}.l{fill:#4fdc6f;}.m{fill:#f37b6a;}.n,.w{opacity:0.5;}.n{fill:url(#a);}.o{fill:#fff;}.p{stroke:#f37b6a;}.p,.t{stroke-width:2px;}.q{fill:#766de8;}.r{fill:#f7cf06;}.s{fill:#f37c6a;}.t{stroke:#766de8;}.u{fill:#0051e0;}.v{fill:#5590ff;}.w{stroke:rgba(0,0,0,0);fill:url(#b);}</style><linearGradient id="a" x1="0.286" y1="0.24" x2="0.847" y2="0.773" gradientUnits="objectBoundingBox"><stop offset="0" stop-color="#edf4ff"/><stop offset="1" stop-color="#cfe0ff"/></linearGradient><linearGradient id="b" x1="0.137" y1="0.741" x2="0.154" y2="0.069" gradientUnits="objectBoundingBox"><stop offset="0" stop-color="#0052e0" stop-opacity="0.796"/><stop offset="1" stop-color="#0052e0" stop-opacity="0"/></linearGradient></defs><g transform="translate(0.258 -288.426)"><path class="a" d="M0,352.469V36.007c157.183,42.138,227.287-49.43,376.183-34.3C529.919,17.329,526.829,132.939,662.51,162.374c166.095,36.034,245.311-78.861,375.243-51.552,133.4,28.038,88.179,139.3,328.248,154.864v86.783Z" transform="translate(0 388)"/><g transform="translate(-134.935 -190.878) rotate(34)"><path class="b" d="M16.417,50.018c-.376-.29-.741-.554-1.1-.793C9.177,46.361,0,40.144,0,28.58,0,11.21,9.242,0,20.708,0,32.088,0,41.416,11.21,41.416,28.58c0,11.865-9.662,18.1-15.786,20.862a21.06,21.06,0,0,0-4.942,4.985A24.2,24.2,0,0,0,16.417,50.018Z" transform="translate(455.755 326.839)"/><path class="c" d="M16.417,50.018c-.376-.29-.741-.554-1.1-.793C9.177,46.361,0,40.144,0,28.58,0,11.21,9.242,0,20.708,0,32.088,0,41.416,11.21,41.416,28.58c0,11.865-9.662,18.1-15.786,20.862a21.06,21.06,0,0,0-4.942,4.985A24.2,24.2,0,0,0,16.417,50.018Z" transform="translate(455.755 326.839)"/><ellipse class="d" cx="3.508" cy="2.567" rx="3.508" ry="2.567" transform="translate(459.467 350.998) rotate(-69.849)"/><ellipse class="d" cx="1.027" cy="1.369" rx="1.027" ry="1.369" transform="matrix(0.997, -0.072, 0.072, 0.997, 460.282, 354.987)"/><path class="a" d="M235.272,231.229a17.527,17.527,0,0,0,2.973-10.493c-.595-15.952-7.815-26.7-17.924-28.237a53.757,53.757,0,0,1,7.73,28.407s-.51,12.114-10.109,13.734A22.515,22.515,0,0,1,199,229.353c2.548,5.374,7.22,8.957,12.062,11.431a22.047,22.047,0,0,1,6.541,5.886s2.718-4.009,6.2-5.716c.085,0,2.294-1.194,2.548-1.365,0,0,2.379-1.536,3.483-2.389a.083.083,0,0,0,.085-.085A23.437,23.437,0,0,0,235.272,231.229Z" transform="translate(258.839 134.159)"/><path class="e" d="M35.613,28.405c-4.706-.77-20.109-.77-24.815,0-7.1.856-10.525-1.2-10.782-5.99C-.326,17.624,4.722,11.548,11.483,8.81a30.379,30.379,0,0,1,8.066-1.97,4.1,4.1,0,0,0,1.261-2.65A21.673,21.673,0,0,0,20.9,1.964,1.973,1.973,0,0,1,21.836.253L25.118,0s.808.275.971.546a3.218,3.218,0,0,1,.369,1.675,11.238,11.238,0,0,0,.575,4.508,19.919,19.919,0,0,1,7.9,2.081c6.332,3.594,11.808,8.813,11.466,13.605-.292,4.084-2.759,6.179-7.879,6.179A24.383,24.383,0,0,1,35.613,28.405Z" transform="translate(453 314.692)"/><path class="f" d="M0,26.355a19.314,19.314,0,0,0,7.616.342,137.966,137.966,0,0,1,16.429-.6c4.792.085,10.011-3.765,10.011-8.642a11.178,11.178,0,0,0-.428-3.765,5.126,5.126,0,0,0-3.08-3.423c-5.9-2.31-13.691-2.225-14.632-3.252l6.244-.525A6.8,6.8,0,0,0,23.7,1.711,5.83,5.83,0,0,0,23.532,0,2.247,2.247,0,0,1,24.9,2.225a11.413,11.413,0,0,0,.544,4.441l1.367.113a21.542,21.542,0,0,1,11.009,4.944c4.193,3.252,7.274,7.1,7.188,10.525a5.937,5.937,0,0,1-3.081,5.22s-.77.685-3.508.941a73.54,73.54,0,0,1-7.958-.514c-6.5-.428-17.371-.342-21.221.343a22.864,22.864,0,0,1-2.98.212C3.328,28.45,1.24,27.726,0,26.355Z" transform="translate(454.557 314.688)"/><path class="a" d="M.46,8.131c-.7-.614-.614-1.4.351-2.544A28.135,28.135,0,0,0,3.794,1.375C4.5.059,5.2-.292,6.076.235h0c.79.439,1.141,2.018.79,3.509A6.771,6.771,0,0,1,4.058,7.78c-1.6,1.1-2.9.877-3.6.351Z" transform="matrix(-0.985, 0.174, -0.174, -0.985, 466.31, 336.509)"/></g><g transform="matrix(0.643, -0.766, 0.766, 0.643, 566.284, 440.123)"><path class="b" d="M13,3.492c-.3.23-.587.439-.874.628C7.269,6.389,0,11.313,0,20.472,0,34.23,7.32,43.109,16.4,43.109c9.014,0,16.4-8.879,16.4-22.637,0-9.4-7.653-14.337-12.5-16.524A16.681,16.681,0,0,1,16.386,0,19.164,19.164,0,0,1,13,3.492Z" transform="translate(2.182 0)"/><path class="c" d="M13,3.492c-.3.23-.587.439-.874.628C7.269,6.389,0,11.313,0,20.472,0,34.23,7.32,43.109,16.4,43.109c9.014,0,16.4-8.879,16.4-22.637,0-9.4-7.653-14.337-12.5-16.524A16.681,16.681,0,0,1,16.386,0,19.164,19.164,0,0,1,13,3.492Z" transform="translate(2.182 0)"/><ellipse class="d" cx="2.779" cy="2.033" rx="2.779" ry="2.033" transform="translate(8.94 22.573) rotate(69.849)"/><ellipse class="d" cx="0.813" cy="1.084" rx="0.813" ry="1.084" transform="matrix(0.997, 0.072, -0.072, 0.997, 5.924, 18.651)"/><path class="a" d="M28.73,12.23a13.882,13.882,0,0,1,2.355,8.311c-.471,12.635-6.19,21.149-14.2,22.365a42.578,42.578,0,0,0,6.123-22.5S22.607,10.811,15,9.527A17.833,17.833,0,0,0,0,13.716C2.018,9.46,5.719,6.622,9.554,4.662A17.462,17.462,0,0,0,14.735,0a15.328,15.328,0,0,0,4.912,4.527c.067,0,1.817.946,2.018,1.081,0,0,1.884,1.216,2.759,1.892a.066.066,0,0,1,.067.068A18.563,18.563,0,0,1,28.73,12.23Z" transform="translate(3.833 0.346)"/><path class="e" d="M28.207.15A105.787,105.787,0,0,1,8.553.15C2.927-.528.216,1.1.013,4.894-.258,8.69,3.74,13.5,9.095,15.67a24.062,24.062,0,0,0,6.389,1.561,3.248,3.248,0,0,1,1,2.1,17.166,17.166,0,0,1,.068,1.762,1.563,1.563,0,0,0,.746,1.356l2.6.2s.64-.218.769-.433a2.549,2.549,0,0,0,.292-1.327,8.9,8.9,0,0,1,.455-3.571,15.777,15.777,0,0,0,6.255-1.648c5.015-2.846,9.353-6.981,9.082-10.776C36.516,1.659,34.562,0,30.507,0A19.312,19.312,0,0,0,28.207.15Z" transform="translate(0 30.082)"/><path class="f" d="M0,1.659a15.3,15.3,0,0,1,6.032-.271,109.277,109.277,0,0,0,13.013.474c3.8-.068,7.929,2.982,7.929,6.845a8.853,8.853,0,0,1-.339,2.982A4.06,4.06,0,0,1,24.2,14.4c-4.677,1.83-10.844,1.762-11.59,2.575l4.945.415a5.382,5.382,0,0,1,1.222,3.787,4.618,4.618,0,0,1-.135,1.356,1.78,1.78,0,0,0,1.085-1.762,9.039,9.039,0,0,1,.431-3.518l1.083-.089a17.062,17.062,0,0,0,8.72-3.916c3.321-2.576,5.761-5.625,5.693-8.337A4.7,4.7,0,0,0,33.21.778,5.309,5.309,0,0,0,30.431.032a58.247,58.247,0,0,0-6.3.407C18.977.778,10.37.71,7.32.168A18.11,18.11,0,0,0,4.96,0C2.636,0,.982.573,0,1.659Z" transform="translate(1.233 30.199)"/><path class="a" d="M.365.344C-.191.83-.122,1.456.643,2.359A22.285,22.285,0,0,1,3.005,5.695c.556,1.042,1.112,1.32,1.807.9h0c.625-.347.9-1.6.625-2.78A5.363,5.363,0,0,0,3.214.622,2.4,2.4,0,0,0,.365.344Z" transform="matrix(-0.985, -0.174, 0.174, -0.985, 9.365, 42.131)"/></g><g transform="matrix(0.643, -0.766, 0.766, 0.643, 345.792, 299.751)"><path class="b" d="M5.495,1.476c-.126.1-.248.185-.37.265C3.072,2.7,0,4.78,0,8.651c0,5.814,3.093,9.566,6.931,9.566,3.809,0,6.931-3.752,6.931-9.566,0-3.971-3.234-6.058-5.284-6.983A7.049,7.049,0,0,1,6.924,0,8.1,8.1,0,0,1,5.495,1.476Z" transform="translate(0.922 0)"/><path class="c" d="M5.495,1.476c-.126.1-.248.185-.37.265C3.072,2.7,0,4.78,0,8.651c0,5.814,3.093,9.566,6.931,9.566,3.809,0,6.931-3.752,6.931-9.566,0-3.971-3.234-6.058-5.284-6.983A7.049,7.049,0,0,1,6.924,0,8.1,8.1,0,0,1,5.495,1.476Z" transform="translate(0.922 0)"/><ellipse class="d" cx="1.174" cy="0.859" rx="1.174" ry="0.859" transform="translate(3.778 9.539) rotate(69.849)"/><ellipse class="d" cx="0.344" cy="0.458" rx="0.344" ry="0.458" transform="matrix(0.997, 0.072, -0.072, 0.997, 2.504, 7.882)"/><path class="a" d="M12.14,5.168a5.866,5.866,0,0,1,1,3.512c-.2,5.339-2.616,8.937-6,9.451A17.993,17.993,0,0,0,9.724,8.623s-.171-4.054-3.383-4.6A7.536,7.536,0,0,0,0,5.8,8.6,8.6,0,0,1,4.037,1.97,7.379,7.379,0,0,0,6.227,0,6.477,6.477,0,0,0,8.3,1.913c.028,0,.768.4.853.457,0,0,.8.514,1.166.8a.028.028,0,0,1,.028.029A7.844,7.844,0,0,1,12.14,5.168Z" transform="translate(1.62 0.146)"/><path class="e" d="M11.92.063a44.7,44.7,0,0,1-8.306,0c-2.377-.286-3.523.4-3.609,2-.115,1.6,1.575,3.637,3.838,4.554a10.168,10.168,0,0,0,2.7.66,1.373,1.373,0,0,1,.422.887,7.254,7.254,0,0,1,.029.745.66.66,0,0,0,.315.573l1.1.085s.27-.092.325-.183a1.077,1.077,0,0,0,.123-.561,3.762,3.762,0,0,1,.192-1.509,6.667,6.667,0,0,0,2.643-.7c2.119-1.2,3.952-2.95,3.838-4.554C15.431.7,14.605,0,12.891,0A8.161,8.161,0,0,0,11.92.063Z" transform="translate(0 12.712)"/><path class="f" d="M0,.7A6.464,6.464,0,0,1,2.549.587a46.178,46.178,0,0,0,5.5.2C9.652.758,11.4,2.047,11.4,3.68a3.741,3.741,0,0,1-.143,1.26,1.716,1.716,0,0,1-1.031,1.146c-1.976.773-4.582.745-4.9,1.088l2.09.176a2.274,2.274,0,0,1,.516,1.6,1.951,1.951,0,0,1-.057.573.752.752,0,0,0,.458-.745,3.82,3.82,0,0,1,.182-1.486l.458-.038A7.21,7.21,0,0,0,12.659,5.6c1.4-1.088,2.435-2.377,2.406-3.523A1.987,1.987,0,0,0,14.034.329,2.243,2.243,0,0,0,12.859.014,24.614,24.614,0,0,0,10.2.186a43.2,43.2,0,0,1-7.1-.115A7.653,7.653,0,0,0,2.1,0,2.72,2.72,0,0,0,0,.7Z" transform="translate(0.521 12.761)"/><path class="a" d="M.154.145C-.081.351-.051.615.272,1a9.417,9.417,0,0,1,1,1.41c.235.44.47.558.763.382h0c.264-.147.382-.675.264-1.175A2.266,2.266,0,0,0,1.358.263,1.013,1.013,0,0,0,.154.145Z" transform="matrix(-0.985, -0.174, 0.174, -0.985, 3.957, 17.804)"/></g><g transform="translate(1045.227 456.974) rotate(146)"><path class="b" d="M9.045,2.429c-.207.16-.408.305-.608.437C5.056,4.444,0,7.869,0,14.24c0,9.57,5.091,15.746,11.409,15.746,6.27,0,11.409-6.176,11.409-15.746,0-6.537-5.323-9.972-8.7-11.493A11.6,11.6,0,0,1,11.4,0,13.33,13.33,0,0,1,9.045,2.429Z" transform="translate(1.518 0)"/><path class="c" d="M9.045,2.429c-.207.16-.408.305-.608.437C5.056,4.444,0,7.869,0,14.24c0,9.57,5.091,15.746,11.409,15.746,6.27,0,11.409-6.176,11.409-15.746,0-6.537-5.323-9.972-8.7-11.493A11.6,11.6,0,0,1,11.4,0,13.33,13.33,0,0,1,9.045,2.429Z" transform="translate(1.518 0)"/><ellipse class="d" cx="1.933" cy="1.414" rx="1.933" ry="1.414" transform="translate(6.218 15.701) rotate(69.849)"/><ellipse class="d" cx="0.566" cy="0.754" rx="0.566" ry="0.754" transform="matrix(0.997, 0.072, -0.072, 0.997, 4.121, 12.973)"/><path class="a" d="M19.983,8.507a9.656,9.656,0,0,1,1.638,5.781c-.328,8.789-4.306,14.71-9.875,15.556a29.616,29.616,0,0,0,4.259-15.65s-.281-6.674-5.569-7.567A12.4,12.4,0,0,0,0,9.541a14.149,14.149,0,0,1,6.646-6.3A12.146,12.146,0,0,0,10.249,0a10.662,10.662,0,0,0,3.416,3.149c.047,0,1.264.658,1.4.752,0,0,1.31.846,1.919,1.316a.046.046,0,0,1,.047.047A12.912,12.912,0,0,1,19.983,8.507Z" transform="translate(2.666 0.24)"/><path class="e" d="M19.62.1A73.582,73.582,0,0,1,5.949.1C2.036-.367.15.764.009,3.4-.179,6.044,2.6,9.391,6.326,10.9a16.736,16.736,0,0,0,4.444,1.086,2.259,2.259,0,0,1,.694,1.46,11.94,11.94,0,0,1,.047,1.226,1.087,1.087,0,0,0,.519.943l1.808.139s.445-.152.535-.3a1.773,1.773,0,0,0,.2-.923,6.192,6.192,0,0,1,.317-2.484,10.974,10.974,0,0,0,4.35-1.146c3.489-1.98,6.506-4.856,6.317-7.5C25.4,1.154,24.04,0,21.22,0A13.433,13.433,0,0,0,19.62.1Z" transform="translate(0 20.924)"/><path class="f" d="M0,1.154A10.641,10.641,0,0,1,4.2.965a76.01,76.01,0,0,0,9.051.33c2.64-.047,5.516,2.074,5.516,4.761a6.158,6.158,0,0,1-.236,2.074,2.824,2.824,0,0,1-1.7,1.886c-3.253,1.273-7.543,1.226-8.061,1.791l3.44.289a3.743,3.743,0,0,1,.85,2.634,3.212,3.212,0,0,1-.094.943,1.238,1.238,0,0,0,.754-1.226,6.288,6.288,0,0,1,.3-2.447l.753-.062a11.868,11.868,0,0,0,6.065-2.724c2.31-1.792,4.007-3.913,3.96-5.8A3.271,3.271,0,0,0,23.1.541,3.693,3.693,0,0,0,21.167.023a40.515,40.515,0,0,0-4.384.283A71.1,71.1,0,0,1,5.091.117,12.6,12.6,0,0,0,3.45,0,4.476,4.476,0,0,0,0,1.154Z" transform="translate(0.858 21.006)"/><path class="a" d="M.254.239c-.387.338-.338.773.193,1.4A15.5,15.5,0,0,1,2.09,3.961c.387.725.773.918,1.257.628h0c.435-.242.628-1.112.435-1.933A3.731,3.731,0,0,0,2.235.433,1.667,1.667,0,0,0,.254.239Z" transform="matrix(-0.985, -0.174, 0.174, -0.985, 6.514, 29.305)"/></g><path class="g" d="M-1279,310.943s58.088,35.014,137.331,19.443c58.164-11.429,137.908-63.427,241.063-54.318,37.523,3.313,91.845,25.827,121.879,49.229C-665.82,413.275-703.94,476.1-586.388,511.5S-293.1,351.024-174.062,409.728s138.3,197.058,259.835,209.281" transform="translate(1279 83)"/><g transform="translate(28.476 410.619)"><path class="h" d="M294.693,256.922c-3.792,0-7.585,4.425-7.585,9.482h0c0-5.689-3.792-9.482-7.585-9.482,4.426,0,7.585-4.425,7.585-10.746C287.107,251.866,290.268,256.922,294.693,256.922Z" transform="translate(-270.041 -217.731)"/><path class="h" d="M277.268,215.391c-2.528,0-4.425,2.528-5.057,6.321h0c0-3.161-2.528-6.321-5.056-6.321,2.528,0,5.056-3.161,5.056-6.321C272.21,212.863,274.739,215.391,277.268,215.391Z" transform="translate(-267.154 -209.07)"/><path class="h" d="M317.178,229.162c-1.9,0-3.161,1.9-3.161,3.793h0c0-2.528-1.264-3.793-3.16-3.793,1.9,0,3.16-1.9,3.16-4.425C314.017,227.266,315.913,229.162,317.178,229.162Z" transform="translate(-277.354 -212.727)"/></g><path class="i" d="M598.88,308.041c-2.94-1.468-2.94-4.407-1.47-5.877l8.816-8.816,8.818-8.818c1.47-1.468,5.878-1.468,5.878,1.47l2.939,11.755,2.94,11.756q0,4.408-4.409,4.409l-11.757-2.939Z" transform="translate(519.466 254.161)"/><path class="j" d="M598.88,308.041c-2.94-1.468-2.94-4.407-1.47-5.877l8.816-8.816,8.818-8.818c1.47-1.468,5.878-1.468,5.878,1.47l2.939,11.755,2.94,11.756q0,4.408-4.409,4.409l-11.757-2.939Z" transform="translate(-308.534 145.161)"/><ellipse class="k" cx="5.293" cy="5.293" rx="5.293" ry="5.293" transform="translate(1085.341 400.612)"/><ellipse class="l" cx="5.293" cy="5.293" rx="5.293" ry="5.293" transform="translate(426.341 446.612)"/><ellipse class="k" cx="5.293" cy="5.293" rx="5.293" ry="5.293" transform="translate(281.341 533.612)"/><g transform="translate(701.433 449.393) rotate(19)"><path class="m" d="M156.641,94.272h0a3.744,3.744,0,0,1-1.573-5.244L166.08,68.054l7.341,3.671L162.409,92.7C160.836,94.8,158.739,95.321,156.641,94.272Z" transform="translate(-154.544 -37.775)"/><ellipse class="n" cx="16.78" cy="16.78" rx="16.78" ry="16.78" transform="translate(4.197 0.915)"/><path class="m" d="M190.168,74.73a17.909,17.909,0,1,0-11.536,22.548C188.07,94.656,193.314,84.169,190.168,74.73Zm-31.462,9.963c-2.622-7.865,2.1-16.255,9.963-18.877s16.255,2.1,18.877,9.963-2.1,16.255-9.963,18.877A14.721,14.721,0,0,1,158.706,84.693Z" transform="translate(-151.889 -62.28)"/></g><g transform="translate(1275.969 559.215) rotate(41)"><path class="h" d="M156.536,106.579h26.391a7.346,7.346,0,0,0,7.331-7.331V72.858a7.346,7.346,0,0,0-7.331-7.331H156.536a7.346,7.346,0,0,0-7.331,7.331V99.249C148.472,103.647,152.137,106.579,156.536,106.579Z" transform="translate(-149.111 -65.527)"/><path class="o" d="M174.315,66.327H150.124v5.132h1.466V69.993h9.53V93.451h-1.466v2.2h6.6v-2.2h-1.466V69.993h9.53v1.466h1.466V66.327Z" transform="translate(-142.701 -60.461)"/></g><path class="p" d="M228.457,111.608c-.632.632-2.529.632-2.529-.632l-1.264-5.689L223.4,99.6a1.4,1.4,0,0,1,1.9-1.9l5.689,1.264,5.689,1.264c1.264.632,1.9,1.9.632,2.529l-3.793,3.792Z" transform="translate(980.574 373.634)"/><g transform="translate(1092.476 650.619)"><path class="h" d="M294.693,256.922c-3.792,0-7.585,4.425-7.585,9.482h0c0-5.689-3.792-9.482-7.585-9.482,4.426,0,7.585-4.425,7.585-10.746C287.107,251.866,290.268,256.922,294.693,256.922Z" transform="translate(-270.041 -217.731)"/><path class="h" d="M277.268,215.391c-2.528,0-4.425,2.528-5.057,6.321h0c0-3.161-2.528-6.321-5.056-6.321,2.528,0,5.056-3.161,5.056-6.321C272.21,212.863,274.739,215.391,277.268,215.391Z" transform="translate(-267.154 -209.07)"/><path class="h" d="M317.178,229.162c-1.9,0-3.161,1.9-3.161,3.793h0c0-2.528-1.264-3.793-3.16-3.793,1.9,0,3.16-1.9,3.16-4.425C314.017,227.266,315.913,229.162,317.178,229.162Z" transform="translate(-277.354 -212.727)"/></g><path class="q" d="M639.537,2606.04a10.36,10.36,0,1,1,10.36-10.361A10.361,10.361,0,0,1,639.537,2606.04Zm0-15.722a5.18,5.18,0,1,0,5.18,5.18A5.18,5.18,0,0,0,639.537,2590.318Z" transform="translate(-486.683 -2225.913)"/><path class="r" d="M642.664,2612.293a13.487,13.487,0,1,1,13.487-13.488A13.488,13.488,0,0,1,642.664,2612.293Zm0-20.467a6.744,6.744,0,1,0,6.744,6.744A6.744,6.744,0,0,0,642.664,2591.826Z" transform="translate(-186.937 -1994.913)"/><path class="l" d="M637.533,2602.031a8.356,8.356,0,1,1,8.356-8.356A8.356,8.356,0,0,1,637.533,2602.031Zm0-12.68a4.178,4.178,0,1,0,4.178,4.178A4.178,4.178,0,0,0,637.533,2589.351Z" transform="translate(216.322 -2106.908)"/><ellipse class="s" cx="5.18" cy="5.18" rx="5.18" ry="5.18" transform="translate(194.135 337.051)"/><ellipse class="k" cx="5.293" cy="5.293" rx="5.293" ry="5.293" transform="translate(1014.15 581.612)"/><g transform="translate(770.777 401.619)"><path class="h" d="M279.522,256.922c3.792,0,7.585,4.425,7.585,9.482h0c0-5.689,3.792-9.482,7.585-9.482-4.426,0-7.585-4.425-7.585-10.746C287.107,251.866,283.947,256.922,279.522,256.922Z" transform="translate(-264.351 -217.731)"/><path class="h" d="M267.154,215.391c2.528,0,4.425,2.528,5.057,6.321h0c0-3.161,2.528-6.321,5.056-6.321-2.528,0-5.056-3.161-5.056-6.321C272.211,212.863,269.682,215.391,267.154,215.391Z" transform="translate(-237.445 -209.07)"/><path class="h" d="M310.857,229.162c1.9,0,3.161,1.9,3.161,3.793h0c0-2.528,1.264-3.793,3.16-3.793-1.9,0-3.16-1.9-3.16-4.425C314.018,227.266,312.121,229.162,310.857,229.162Z" transform="translate(-310.857 -212.727)"/></g><path class="p" d="M232.77,111.608c.632.632,2.529.632,2.529-.632l1.264-5.689,1.264-5.689a1.4,1.4,0,0,0-1.9-1.9l-5.689,1.264-5.689,1.264c-1.264.632-1.9,1.9-.632,2.529l3.793,3.792Z" transform="translate(-215.724 192.634)"/><path class="t" d="M608.492,294.128a1.568,1.568,0,0,0,.634-2.536l-3.8-3.8-3.805-3.805c-.634-.634-2.536-.634-2.536.635l-1.268,5.072-1.269,5.073a1.682,1.682,0,0,0,1.9,1.9l5.073-1.268Z" transform="translate(740.879 315.376)"/><g transform="translate(914.508 395.796)"><path class="u" d="M545.4,168.39l10.114-6.321s6.321,5.689,4.425,8.218c-1.264,3.161-3.792,4.425-3.161,5.057-.632-.632-2.528.632-5.689.632S545.4,168.39,545.4,168.39Z" transform="translate(-543.502 -158.276)"/><path class="v" d="M550.584,165.628c0-1.264.633-3.161,4.425-5.689a7.9,7.9,0,0,1,6.953-1.264c.632.632,1.9,1.9,1.265,2.528a35.246,35.246,0,0,1-5.057,3.161c-1.264.632-3.793,3.161-5.057,3.161C551.216,167.524,550.584,166.26,550.584,165.628Z" transform="translate(-550.584 -157.41)"/><path class="v" d="M561.968,160.282l1.265-.632-1.265-2.528-1.264.632Z" transform="translate(-558.176 -157.122)"/></g><path class="w" d="M6925.772,291.556V72.631c28.532-5.955,57.524-12.647,79.246-31.566,12.785-11.132,22.338-25.924,31.82-40.508h311.575c1.062,6.6,1.881,13.266,2.36,19.938V45.438c-1.286,15.887-5.3,31.234-13.446,44.991-18.885,31.843-55.888,48.22-91.867,56.929s-73.641,11.905-107.583,26.683c-25.685,11.185-50.39,32.225-52.647,60.14-1.734,21.368,9.471,39.41,22.259,57.375Z" transform="translate(-6925.272 447.943)"/></g></svg>