<svg xmlns="http://www.w3.org/2000/svg" width="135.804" height="37.834" viewBox="0 0 135.804 37.834"><defs><style>.a{fill:#5690ff;}</style></defs><path class="a" d="M24.1,1.7a16.013,16.013,0,0,1,4.3,1.1,11.542,11.542,0,0,1,2.9,2,3.39,3.39,0,0,1,1,3A2.675,2.675,0,0,1,31,9.9a2.356,2.356,0,0,1-2,.3L26.8,9.1a12.66,12.66,0,0,0-3.2-1.3,6.614,6.614,0,0,0-8,4.1,9.954,9.954,0,0,0-.8,3.8,13.211,13.211,0,0,0,.6,4.8,6.142,6.142,0,0,0,1.5,2.6,6.438,6.438,0,0,0,4.7,2.1,6.279,6.279,0,0,0,1.9-.3,5.341,5.341,0,0,0,3.6-3.1,9.072,9.072,0,0,0,.5-2.1c.1-.3-.1-.4-.5-.4h-2s-1.1-.1-1.6-.2a4.179,4.179,0,0,1-1-.4,2.391,2.391,0,0,1-1.5-2,3.812,3.812,0,0,1,.1-1.5,2.317,2.317,0,0,1,1.4-1.5,5.867,5.867,0,0,1,2.3-.4h5.5a5.663,5.663,0,0,1,1.8.3,2.285,2.285,0,0,1,1.8,1.6c.1.4.3.8.4,1.2A15.315,15.315,0,0,1,33,24a11.807,11.807,0,0,1-9.1,6.7,13.43,13.43,0,0,1-6.6-.5,12.617,12.617,0,0,1-6.7-5,14.83,14.83,0,0,1-2.2-6.4,19.6,19.6,0,0,1,.5-8A13.206,13.206,0,0,1,14,3.6a12.4,12.4,0,0,1,4.9-2,21.276,21.276,0,0,1,2.9-.2C22.5,1.5,23.5,1.6,24.1,1.7Zm75.1,9.5.7-.7A7.451,7.451,0,0,1,103.7,9c3.9-.3,6.6,1.6,8.5,4.7a12.861,12.861,0,0,1,1.5,7.2,10.907,10.907,0,0,1-2,5.7,9.931,9.931,0,0,1-4.3,3.8c-2.7.9-5.2.9-7.5-.9l-.5-.3a1.7,1.7,0,0,0-.1.7c0,1.5.1,3.1,0,4.5a14.919,14.919,0,0,1-.2,2.1,1.421,1.421,0,0,1-.2.6c-.5,1.6-2,2-3.6,1.7a2.118,2.118,0,0,1-1.5-1.4,5.186,5.186,0,0,1-.5-2.4V13.4a7.267,7.267,0,0,1,.4-2.5,2.627,2.627,0,0,1,2.2-1.7,3.25,3.25,0,0,1,2.8,1.1Zm0,8.8v.7a5.96,5.96,0,0,0,1.2,3.2,3.9,3.9,0,0,0,5.3.7c.2-.2.5-.4.6-.6a5.244,5.244,0,0,0,1-1.8,10.179,10.179,0,0,0,.3-3.5,5.872,5.872,0,0,0-1.6-3,3.875,3.875,0,0,0-3.6-.9A3.926,3.926,0,0,0,99.9,17,4.762,4.762,0,0,0,99.2,20Zm22.7-8.8.6-.5a5.939,5.939,0,0,1,3.8-1.6,8.65,8.65,0,0,1,8.2,4.3,9.63,9.63,0,0,1,1.7,4.9,12.433,12.433,0,0,1-1.1,7.1,9.739,9.739,0,0,1-4.8,5,7.559,7.559,0,0,1-7.8-.7.55.55,0,0,0-.5-.3c0,.3-.1.5-.1.7,0,1.9,0,3.8-.1,5.6a5.84,5.84,0,0,1-.4,1.8,2.417,2.417,0,0,1-2.5,1.6,2.263,2.263,0,0,1-2.6-1.6,11.627,11.627,0,0,1-.4-1.8V13.6a5.833,5.833,0,0,1,.3-2.3,2.56,2.56,0,0,1,2.1-2,3.39,3.39,0,0,1,3,1Zm8.3,8.8v-.9a5.431,5.431,0,0,0-1.6-3.4,3.744,3.744,0,0,0-5.2,0l-.1.1a8.175,8.175,0,0,0-1.2,2,8,8,0,0,0-.3,3.1,5.234,5.234,0,0,0,1,2.7,3.705,3.705,0,0,0,5,1.2,3.447,3.447,0,0,0,1.2-1.2,4.8,4.8,0,0,0,1.2-3.6ZM88.9,30.8a2.529,2.529,0,0,1-2.3-1.3,7.572,7.572,0,0,1-.9-1.8,9.017,9.017,0,0,1-.6-2.2.548.548,0,0,0-.6-.4H74.9c-.4,0-.5.1-.6.4L73.4,28a7.973,7.973,0,0,1-.8,1.6,2.817,2.817,0,0,1-5-.9,3.892,3.892,0,0,1,.2-2.8c1-2.6,2-5.1,2.9-7.7,1.4-4,3-7.9,4.4-11.9a8.532,8.532,0,0,1,1.3-2.5,4.427,4.427,0,0,1,6.1-1,6.47,6.47,0,0,1,.9.8,9.172,9.172,0,0,1,1.3,2.1c2.3,6.7,4.7,13.3,7.1,20a9.544,9.544,0,0,1,.4,2.1,2.782,2.782,0,0,1-2.9,2.9A.756.756,0,0,1,88.9,30.8ZM79.7,8.9c-.3.7-3.4,9.9-3.4,10.4h3.4c1.1,0,2.1.1,3.3,0S80,9.3,79.7,8.9Zm-32,12.6H42c-.4,0-.5.2-.4.6a3.718,3.718,0,0,0,3.3,3.2,7.716,7.716,0,0,0,4.5-.5L52,23.7l.7-.2a2.111,2.111,0,0,1,2.5,1.8v.8a3.09,3.09,0,0,1-1.1,2,9.8,9.8,0,0,1-4.4,2.3,12.812,12.812,0,0,1-7,.1,10.26,10.26,0,0,1-7-7,11.892,11.892,0,0,1,.6-8.7,10.1,10.1,0,0,1,18.8,1.1,11.379,11.379,0,0,1,.4,3.7c-.1,1.4-.8,1.8-2.1,1.9Zm2-3.9a3.678,3.678,0,0,0-2-3.2,4.152,4.152,0,0,0-4.3,0,4.289,4.289,0,0,0-2,3.2Zm9.1-2.5-1-.2-1.1-.2a2.253,2.253,0,0,1-1.6-2.3,2.245,2.245,0,0,1,1.5-2.3l1.7-.3h.4V9.2c.1-1.1.1-2.2.2-3.4a4.191,4.191,0,0,1,.4-1.5,2.292,2.292,0,0,1,2.4-1.5,2.541,2.541,0,0,1,2.8,1.9,7.613,7.613,0,0,1,.3,2.1,20.9,20.9,0,0,1,.1,2.5c0,.8,0,.8.7.8a3.805,3.805,0,0,1,1.8.3,2.478,2.478,0,0,1,1.9,2.9c0,.1-.1.2-.1.3a2.433,2.433,0,0,1-1.3,1.5,5.105,5.105,0,0,1-2.1.3H65V26.7a5.867,5.867,0,0,1-.4,2.3,2.88,2.88,0,0,1-3.4,1.9.52.52,0,0,1-.4-.2,2.94,2.94,0,0,1-1.2-1,3.371,3.371,0,0,1-.5-1.7,10.869,10.869,0,0,1-.1-1.8V15.8C59,15.3,59,15.1,58.8,15.1Zm79.8-3.6a5.256,5.256,0,0,1-5.4-5.1,5.409,5.409,0,0,1,10.8,0A5.256,5.256,0,0,1,138.6,11.5Zm0-9.4a4.378,4.378,0,0,0-4.5,4.3,4.5,4.5,0,0,0,9,0A4.378,4.378,0,0,0,138.6,2.1Zm-1.5,1.3h1.4a2.934,2.934,0,0,1,1.6.4,1.284,1.284,0,0,1,.4,1,1.472,1.472,0,0,1-1.1,1.4h0a1.17,1.17,0,0,1,.8,1.1,8.528,8.528,0,0,1,.4,1.5H140c-.1-.4-.3-.8-.4-1.3-.2-.8-.4-1-1.1-1h-.7V8.8h-.7Zm.7,2.5h.7c.8,0,1.3-.4,1.3-1s-.5-1-1.3-1h-.7Z" transform="translate(-8.196 -1.3)"/></svg>