<svg xmlns="http://www.w3.org/2000/svg" width="46.95" height="49.326" viewBox="0 0 46.95 49.326"><defs><style>.a{fill:#fff;}</style></defs><path class="a" d="M16.071,20.854a4.682,4.682,0,0,0-.76-2.054L51.4,6.75,49.506,1.075A1.574,1.574,0,0,0,47.515.081L8.258,13.188a1.574,1.574,0,0,0-.995,1.991l.929,2.782A4.705,4.705,0,0,0,9.1,25.525V47.752a1.574,1.574,0,0,0,1.574,1.574H52.059a1.574,1.574,0,0,0,1.574-1.574v-26.9Zm23-16.1,4.778-1.6L42.7,7.8,37.923,9.4Zm-11.8,3.941,4.778-1.6L30.9,11.744l-4.778,1.6ZM11.394,23.813a2.4,2.4,0,1,1,2.4-2.4A2.4,2.4,0,0,1,11.394,23.813Zm4.07-11.18,4.778-1.6-1.15,4.647-4.778,1.6Zm4.694,13.535H15.121l2.562-4.044H22.72Zm9.97-4.044h5.037L32.6,26.168H27.566ZM28.891,41.668V31l8.5,5.334Zm16.157-15.5H40.011l2.562-4.044H47.61Z" transform="translate(-6.683 0)"/></svg>