<svg xmlns="http://www.w3.org/2000/svg" xmlns:xlink="http://www.w3.org/1999/xlink" width="283.734" height="354.286" viewBox="0 0 283.734 354.286"><defs><style>.a{opacity:0.2;fill:url(#a);}</style><linearGradient id="a" x1="0.863" y1="0.741" x2="0.719" y2="0.027" gradientUnits="objectBoundingBox"><stop offset="0" stop-color="#0052e0"/><stop offset="1" stop-color="#1b1464" stop-opacity="0"/></linearGradient></defs><path class="a" d="M690.5,424.761V158.229c-38.933-29.836-87.66,61.96-141.7-4.317S605.819,80.3,599.427,70.475l-190.715,39.3c-3.367,20.641-3.211,42.413,7.319,60.194,12.57,21.2,37.2,32.1,61.151,37.895s49.02,7.924,71.613,17.762c17.1,7.446,33.543,21.451,35.045,40.032,2.168,26.711-7.8,30.117-16.318,55.53-6.724,20.074.693,44.053,17.576,56.828a51.244,51.244,0,0,0,30.712,10.013c20.035.039,29.393-6.844,48.228,8.38,7.622,6.168,4.18,17.481,12.377,22.878A37.206,37.206,0,0,0,690.5,424.761Z" transform="translate(-406.765 -70.475)"/></svg>