<svg xmlns="http://www.w3.org/2000/svg" xmlns:xlink="http://www.w3.org/1999/xlink" width="427.199" height="474.295" viewBox="0 0 427.199 474.295"><defs><style>.a{stroke:rgba(0,0,0,0);opacity:0.5;fill:url(#a);}</style><linearGradient id="a" x1="0.137" y1="0.741" x2="0.154" y2="0.069" gradientUnits="objectBoundingBox"><stop offset="0" stop-color="#0052e0" stop-opacity="0.796"/><stop offset="1" stop-color="#0052e0" stop-opacity="0"/></linearGradient></defs><path class="a" d="M406.765,589.444V189.037c28.78-6,58.1-12.638,80.018-31.726,12.947-11.274,22.58-26.3,32.183-41.065H830.087c5.058,31.008,4.824,63.717-11,90.429-18.884,31.844-55.888,48.22-91.866,56.929s-73.642,11.9-107.583,26.683c-25.686,11.186-50.391,32.225-52.648,60.139-3.256,40.127,39.115,68.526,51.915,106.7,10.1,30.158-1.041,66.18-26.4,85.371-13.166,9.969-29.7,15.013-46.138,15.042-30.1.059-58.118-29.527-86.412-6.656-11.45,9.266-19.721,22.226-32.034,30.334A55.894,55.894,0,0,1,406.765,589.444Z" transform="translate(-406.265 -115.745)"/></svg>