<svg xmlns="http://www.w3.org/2000/svg" width="51.313" height="34.819" viewBox="0 0 51.313 34.819"><defs><style>.a{fill:#fff;}</style></defs><path class="a" d="M6929.582,34.819a.915.915,0,0,1-.916-.916V3.664h43.981V33.9a.915.915,0,0,1-.916.916Zm25.364-23.8V27.8a.915.915,0,0,0,.916.916h2.864a.917.917,0,0,0,.917-.916V11.018a.918.918,0,0,0-.917-.917h-2.864A.917.917,0,0,0,6954.946,11.018Zm-6.415,1.831V27.8a.917.917,0,0,0,.917.916h2.894a.917.917,0,0,0,.916-.916V12.849a.917.917,0,0,0-.916-.916h-2.894A.917.917,0,0,0,6948.531,12.849Zm-6.414,1.833V27.8a.915.915,0,0,0,.916.916h2.682a.917.917,0,0,0,.917-.916V14.682a.917.917,0,0,0-.917-.916h-2.682A.915.915,0,0,0,6942.117,14.682Zm-16.2-12.849a.917.917,0,1,1,0-1.833H6975.4a.917.917,0,1,1,0,1.833Z" transform="translate(-6925)"/></svg>