<svg xmlns="http://www.w3.org/2000/svg" width="60" height="50.001" viewBox="0 0 60 50.001"><defs><style>.a{fill:#fff;}</style></defs><path class="a" d="M6935.665,44.644v-9.11a8.661,8.661,0,0,0,1.756.181h8.79v8.93a5.274,5.274,0,1,1-10.546,0Zm28.123-5.357V3.571a3.516,3.516,0,1,1,7.031,0V39.287a3.516,3.516,0,1,1-7.031,0Zm-5.059-2.617a14.965,14.965,0,0,0-9-4.353V10.539a14.946,14.946,0,0,0,9-4.353l1.544-1.569V38.24Zm19.637-1.478-3.517-3.573a1.806,1.806,0,0,1,0-2.524,1.74,1.74,0,0,1,2.488,0l3.515,3.571a1.806,1.806,0,0,1,0,2.526,1.738,1.738,0,0,1-2.486,0Zm-40.945-3.048a5.271,5.271,0,0,1-4.949-3.571h-.324a7.143,7.143,0,1,1,0-14.287h.324a5.271,5.271,0,0,1,4.949-3.571h8.79V32.143ZM6977.851,25a1.786,1.786,0,0,1,0-3.571h5.39a1.786,1.786,0,0,1,0,3.571Zm-3-7.666a1.806,1.806,0,0,1,0-2.524l3.517-3.573a1.741,1.741,0,0,1,2.486,0,1.806,1.806,0,0,1,0,2.526l-3.515,3.571a1.74,1.74,0,0,1-2.488,0Z" transform="translate(-6925)"/></svg>