<svg xmlns="http://www.w3.org/2000/svg" xmlns:xlink="http://www.w3.org/1999/xlink" width="168" height="142" viewBox="0 0 168 142"><defs><style>.a{fill:url(#a);}.b{filter:url(#e);}.c{filter:url(#b);}</style><linearGradient id="a" x1="0.5" y1="-0.471" x2="0.5" y2="1.385" gradientUnits="objectBoundingBox"><stop offset="0" stop-color="#58f1ff"/><stop offset="1" stop-color="#47b3ff"/></linearGradient><filter id="b" x="0" y="0" width="88" height="142" filterUnits="userSpaceOnUse"><feOffset dy="3" input="SourceAlpha"/><feGaussianBlur stdDeviation="4.5" result="c"/><feFlood flood-color="#4fd0ff" flood-opacity="0.502"/><feComposite operator="in" in2="c"/><feComposite in="SourceGraphic"/></filter><filter id="e" x="80" y="0" width="88" height="142" filterUnits="userSpaceOnUse"><feOffset dy="3" input="SourceAlpha"/><feGaussianBlur stdDeviation="4.5" result="f"/><feFlood flood-color="#4fd0ff" flood-opacity="0.502"/><feComposite operator="in" in2="f"/><feComposite in="SourceGraphic"/></filter></defs><g transform="translate(13.5 10.5)"><g class="c" transform="matrix(1, 0, 0, 1, -13.5, -10.5)"><path class="a" d="M0,0H61V47.212q0,26.072-10.8,41.152T13.322,115L0,89.914q16.267-7.61,22.367-15.15a30.965,30.965,0,0,0,6.8-17.828H0Z" transform="translate(13.5 10.5)"/></g><g class="b" transform="matrix(1, 0, 0, 1, -13.5, -10.5)"><path class="a" d="M0,0H61V47.212q0,26.072-10.8,41.152T13.322,115L0,89.914q16.267-7.61,22.367-15.15a30.965,30.965,0,0,0,6.8-17.828H0Z" transform="translate(93.5 10.5)"/></g></g></svg>