<svg xmlns="http://www.w3.org/2000/svg" width="174.846" height="39.876" viewBox="0 0 174.846 39.876"><defs><style>.a,.b{fill:#fff;}.a{opacity:0.47;}</style></defs><path class="a" d="M29.126,18.315,22.11,13.7,2.883,1.892A17.554,17.554,0,0,1,6.221,7.438a18.429,18.429,0,0,1,1.048,4.1l14.416,9.015a1.175,1.175,0,0,1,.247,1.708h0l-.054.062-.062.062h-.039l-.1.077L7.756,30.923a.84.84,0,0,1-1.311-.692v-19.3a18.491,18.491,0,0,0-.933-3.492A16.362,16.362,0,0,0,.455.3L0,0V36.323a3.57,3.57,0,0,0,5.528,2.969l23.6-14.677a3.765,3.765,0,0,0,0-6.3Z"/><path class="b" d="M29.126,18.315,22.11,13.7a5.439,5.439,0,0,1-.17,8.554h0l-.054.062-.062.062h-.039l-.1.077L11.664,28.346h0L7.809,30.954A.84.84,0,0,1,6.5,30.262v-19.3a18.491,18.491,0,0,0-.987-3.523A16.362,16.362,0,0,0,.455.3L0,0V36.323a3.57,3.57,0,0,0,5.528,2.969l23.6-14.677a3.765,3.765,0,0,0,0-6.3Z"/><path class="b" d="M12.358,16.592H8.974c-.225,0-.315-.185-.412-.381l-.028-.058L5.55,10.57H5.3c-.241,0-.54-.013-.83-.025-.269-.011-.523-.022-.711-.022v5.631a.445.445,0,0,1-.439.438H.439A.446.446,0,0,1,0,16.154V1.354C0,.589.307.408.995.292A35.24,35.24,0,0,1,5.481,0C9.9,0,12.135,1.737,12.135,5.161v.284A4.43,4.43,0,0,1,9.282,9.861l3.338,6.224a.578.578,0,0,1,.069.246C12.689,16.5,12.575,16.592,12.358,16.592ZM5.474,3.208c-.312,0-1.458.046-1.727.069V7.515c.127,0,.475.012.812.024s.625.022.729.022A4.307,4.307,0,0,0,7.7,7.078a1.785,1.785,0,0,0,.674-1.609v-.3C8.372,3.868,7.4,3.208,5.474,3.208Z" transform="translate(38.392 10.769)"/><path class="b" d="M5.868,13.011q-.159,0-.318,0a5.851,5.851,0,0,1-3.778-1.24A5.484,5.484,0,0,1,0,7.339V5.8A5.981,5.981,0,0,1,1.48,1.567,5.515,5.515,0,0,1,5.6,0,5.244,5.244,0,0,1,9.644,1.651,6.094,6.094,0,0,1,11.055,5.8V7.077c-.039.332-.221.523-.5.523H3.5v.047a2.111,2.111,0,0,0,2.313,2.407c1.366,0,3.335-.105,4.247-.2h.07c.268,0,.416.126.416.354v1.677c0,.338-.067.5-.463.592A16.931,16.931,0,0,1,5.868,13.011ZM5.535,2.846C4.261,2.846,3.5,3.76,3.5,5.292v.085H7.524V5.292a2.78,2.78,0,0,0-.538-1.835A1.8,1.8,0,0,0,5.535,2.846Z" transform="translate(52.909 14.562)"/><path class="b" d="M10.454,12.838H7.74a.462.462,0,0,1-.439-.462V4.615c0-.969-.154-1.654-1.3-1.654H4.888c-1.149,0-1.3.685-1.3,1.654V12.4a.462.462,0,0,1-.439.462H.417A.447.447,0,0,1,0,12.4V4.615C0,1.538,1.7,0,4.888,0h1.1c3.184,0,4.888,1.538,4.888,4.615V12.4A.447.447,0,0,1,10.454,12.838Z" transform="translate(66.137 14.523)"/><path class="b" d="M5.55,17.154a5.509,5.509,0,0,1-4.119-1.485A5.746,5.746,0,0,1,0,11.507V9.777C0,6.136,1.971,4.131,5.55,4.131a15.319,15.319,0,0,1,1.812.154V.438A.446.446,0,0,1,7.8,0h2.651a.461.461,0,0,1,.463.438V15.9c-.023.388-.124.54-.679.677A20.686,20.686,0,0,1,5.55,17.154ZM5.52,7.092c-1.357,0-1.989.856-1.989,2.693v1.723c0,1.852.632,2.715,1.989,2.715h.036a12.24,12.24,0,0,0,1.776-.131V7.2A16.991,16.991,0,0,0,5.52,7.092Z" transform="translate(79.189 10.415)"/><path class="b" d="M5.868,13.011q-.159,0-.318,0a5.851,5.851,0,0,1-3.778-1.24A5.484,5.484,0,0,1,0,7.339V5.8A5.981,5.981,0,0,1,1.48,1.567,5.515,5.515,0,0,1,5.6,0,5.244,5.244,0,0,1,9.644,1.651,6.094,6.094,0,0,1,11.055,5.8V7.077c0,.337-.164.523-.463.523H3.539v.047a2.11,2.11,0,0,0,2.312,2.407c1.366,0,3.335-.105,4.248-.2h.031c.268,0,.416.126.416.354v1.677c0,.338-.067.5-.463.592A16.931,16.931,0,0,1,5.868,13.011ZM5.574,2.846c-1.274,0-2.035.914-2.035,2.446v.085H7.563V5.292C7.563,3.737,6.838,2.846,5.574,2.846Z" transform="translate(92.403 14.562)"/><path class="b" d="M5.566,2.988a13.242,13.242,0,0,0-1.989.131v9.269a.462.462,0,0,1-.439.462H.463A.485.485,0,0,1,0,12.388V1.357C0,1.049.177.826.686.649A14.74,14.74,0,0,1,5.574.011c.262,0,.594.108.594.415V2.565C6.16,2.811,6,2.988,5.566,2.988Z" transform="translate(105.786 14.535)"/><path class="b" d="M6.607,7.277H3.6v9.531a.485.485,0,0,1-.463.462H.463A.485.485,0,0,1,0,16.808V3.731C0,.654,2.081,0,4.309,0A19.7,19.7,0,0,1,6.722.2c.247.046.331.131.331.262V2.315c0,.246-.085.354-.308.354H4.433c-.686,0-.84.415-.84,1.062v.885H6.6a.447.447,0,0,1,.439.438V6.808a.447.447,0,0,1-.432.469Z" transform="translate(113.719 10.115)"/><path class="b" d="M5.55,13.016a5.483,5.483,0,0,1-4.119-1.554A5.961,5.961,0,0,1,0,7.277V5.738A5.959,5.959,0,0,1,1.431,1.554,5.483,5.483,0,0,1,5.55,0,5.45,5.45,0,0,1,9.659,1.554a5.982,5.982,0,0,1,1.419,4.184V7.277a5.985,5.985,0,0,1-1.419,4.188A5.453,5.453,0,0,1,5.55,13.016Zm0-9.969c-1.3,0-1.989.931-1.989,2.692V7.277c0,1.777.688,2.716,1.989,2.716s1.966-.939,1.966-2.716V5.738C7.517,3.977,6.837,3.047,5.55,3.047Z" transform="translate(122.292 14.546)"/><path class="b" d="M5.566,2.988a13.242,13.242,0,0,0-1.989.131v9.269a.462.462,0,0,1-.439.462H.463A.485.485,0,0,1,0,12.388V1.357C0,1.049.177.826.686.649A14.74,14.74,0,0,1,5.574.011c.262,0,.594.108.594.415V2.565C6.175,2.811,5.99,2.988,5.566,2.988Z" transform="translate(135.675 14.535)"/><path class="b" d="M5.868,13.011q-.159,0-.318,0a5.851,5.851,0,0,1-3.778-1.24A5.484,5.484,0,0,1,0,7.339V5.8A5.981,5.981,0,0,1,1.48,1.567,5.515,5.515,0,0,1,5.6,0,5.244,5.244,0,0,1,9.644,1.651,6.094,6.094,0,0,1,11.055,5.8V7.077a.536.536,0,0,1-.5.523H3.5v.047a2.111,2.111,0,0,0,2.313,2.407c1.366,0,3.335-.105,4.247-.2h.07c.268,0,.416.126.416.354v1.677c0,.338-.067.5-.463.592A16.931,16.931,0,0,1,5.868,13.011ZM5.535,2.846C4.261,2.846,3.5,3.76,3.5,5.292v.085H7.524V5.292a2.78,2.78,0,0,0-.538-1.835A1.8,1.8,0,0,0,5.535,2.846Z" transform="translate(143.384 14.562)"/><path class="b" d="M4.533,13.009a17.32,17.32,0,0,1-4.024-.485.5.5,0,0,1-.416-.508V10.232a.408.408,0,0,1,.416-.415H.594c1.195.154,3.084.308,3.762.308,1.064,0,1.3-.285,1.3-.862,0-.331-.2-.577-.817-.923L1.966,6.685A3.645,3.645,0,0,1,0,3.424C0,1.193,1.48,0,4.533,0A14.33,14.33,0,0,1,8.473.509a.5.5,0,0,1,.416.508V2.8c0,.262-.131.415-.355.415H8.449a35.539,35.539,0,0,0-3.67-.285c-.863,0-1.172.131-1.172.638,0,.331.247.508.686.769L7.039,5.878c1.835,1.062,2.236,2.208,2.236,3.4C9.267,11.378,7.763,13.009,4.533,13.009Z" transform="translate(156.32 14.553)"/><path class="b" d="M6.638,5.446H3.608V12c0,.769.355.908,1.3.908H6.568c.285,0,.463.131.463.377v1.692c0,.246-.154.4-.439.438a17.631,17.631,0,0,1-2.652.2C1.465,15.615,0,14.846,0,11.977V.9A.477.477,0,0,1,.439.462L3.138,0h.069a.454.454,0,0,1,.4.438V2.746h3.03a.447.447,0,0,1,.439.438V4.977a.447.447,0,0,1-.439.469Z" transform="translate(167.769 11.946)"/></svg>