<svg xmlns="http://www.w3.org/2000/svg" width="143" height="40" viewBox="0 0 143 40"><defs><style>.a{fill:#5690ff;}</style></defs><path class="a" d="M19.832,40A19.817,19.817,0,0,1,0,20.167,19.817,19.817,0,0,1,19.832.334V7.342a12.837,12.837,0,1,0,12.133,17.02c-2.465,0-5.326-.009-8.057-.023h-.237l0-7.342H39.426a20.306,20.306,0,0,1,.262,3.171A19.834,19.834,0,0,1,19.832,40Zm27.841-.333H46.338V0h1.335Zm46.673-9.321a10.209,10.209,0,0,1-3.528-.572,5.554,5.554,0,0,1-2.5-1.693,4.62,4.62,0,0,1-1.121-2.455A40.007,40.007,0,0,1,87,20.977V17.306a40.545,40.545,0,0,1,.167-4.577,4.676,4.676,0,0,1,1.1-2.455,5.962,5.962,0,0,1,2.455-1.716,9.907,9.907,0,0,1,3.623-.6,10.185,10.185,0,0,1,3.527.572,5.555,5.555,0,0,1,2.5,1.693,4.779,4.779,0,0,1,1.121,2.455,39.531,39.531,0,0,1,.191,4.624V21a40.582,40.582,0,0,1-.166,4.577,4.676,4.676,0,0,1-1.1,2.455,5.842,5.842,0,0,1-2.455,1.716A9.924,9.924,0,0,1,94.346,30.345Zm-.1-18.665a4.619,4.619,0,0,0-1.931.334c-.449.213-.667.86-.667,1.979v9.964a3.761,3.761,0,0,0,.428,2.289,3.144,3.144,0,0,0,2.027.428,2.971,2.971,0,0,0,2.1-.5,3.918,3.918,0,0,0,.454-2.383v-9.8h.023a2.687,2.687,0,0,0-.477-1.907A3.108,3.108,0,0,0,94.251,11.68ZM61.475,30.345a9.233,9.233,0,0,1-4.314-.882A4.432,4.432,0,0,1,54.9,27.008a15.542,15.542,0,0,1-.548-4.72V16.019a24.947,24.947,0,0,1,.167-3.48A4.748,4.748,0,0,1,55.54,10.3a5.559,5.559,0,0,1,2.336-1.692,9.111,9.111,0,0,1,3.433-.62,8.845,8.845,0,0,1,4.362.953,4.816,4.816,0,0,1,2.264,2.384c.059.159.106.273.148.372l.009.022.013.033c.209.5.258.614.258,2.244v1.669L63.5,15.59V14.136a3.486,3.486,0,0,0-.382-2.075,2.406,2.406,0,0,0-1.645-.4c-.971,0-1.571.164-1.835.5a3.878,3.878,0,0,0-.382,2.146v9.8a3.692,3.692,0,0,0,.382,2.074c.255.325.816.477,1.764.477a2.307,2.307,0,0,0,1.716-.477c.256-.327.4-.751.4-1.955L63.5,22.67h4.886V23a10.05,10.05,0,0,1-.4,3.838A5.259,5.259,0,0,1,65.718,29.3,8.1,8.1,0,0,1,61.475,30.345Zm13.992-.332H70.676l.071-21.55h4.315a34.916,34.916,0,0,1,5.863.31,4.089,4.089,0,0,1,2.5,1.55,6.6,6.6,0,0,1,.977,4,7.569,7.569,0,0,1-.715,3.743,3.718,3.718,0,0,1-2.646,1.049,4.779,4.779,0,0,1,2.407,1.1,3.156,3.156,0,0,1,.762,1.263,11.329,11.329,0,0,1,.215,2.766v5.649l-4.766.12V23.266h-.048c0-1.14-.234-1.833-.715-2.121a8.326,8.326,0,0,0-3.433-.406v9.274ZM75.443,11.68v6.078H75.5a12.532,12.532,0,0,0,3.092-.26c.653-.163,1-1.655,1-2.669V13.659h.024a1.737,1.737,0,0,0-.977-1.669,10.276,10.276,0,0,0-3.194-.31Zm36.875,18.213h-5.243L103,8.438h4.6l1.311,7.485.953,8.892A62.312,62.312,0,0,1,111.3,16.65l.01-.048c.577-2.672,1.173-5.433,1.58-8.164h5.34a7.746,7.746,0,0,0,.2.842l0,.006,0,.006,0,.01a33.6,33.6,0,0,1,1.127,6.217l1.335,9.154c.275-4,1.071-8.589,1.772-12.642l0-.018.024-.143c.205-1.181.4-2.331.584-3.431h4.266l-4.386,21.453h-4.958c-.758-3.609-2.33-11.51-2.86-15.59-.1.733-.46,2.466-.922,4.661l-.009.041c-.662,3.159-1.57,7.484-2.1,10.887Zm24.552,0h-7.7V8.438h4.577a25.68,25.68,0,0,1,5.649.382,4.589,4.589,0,0,1,2.383,1.216,3.781,3.781,0,0,1,1.025,1.883A24.689,24.689,0,0,1,143,15.995V23.5a14.656,14.656,0,0,1-.286,3.885,2.826,2.826,0,0,1-1.048,1.525,4.588,4.588,0,0,1-1.836.763A14.083,14.083,0,0,1,136.87,29.893Zm-2.837-17.9V26.316h.033a8.273,8.273,0,0,0,3.615-.475c.459-.314.691-1.2.691-2.622V14.637h-.024a5.057,5.057,0,0,0-.214-1.859,1.527,1.527,0,0,0-1.049-.6,16.581,16.581,0,0,0-3.052-.191Zm-101.091,2.6H23.693V13.373l3.218-3.885a19.936,19.936,0,0,0,1.454-1.573,11.439,11.439,0,0,0,.977-1.288c.044-.07.12-.166.216-.287a3.978,3.978,0,0,0,1.119-2.716,2.384,2.384,0,0,0-2.43-1.678,3.378,3.378,0,0,0-.478.032,2.811,2.811,0,0,0-2.121,2.289h-.014l-.013,0h-.008a13.263,13.263,0,0,1-1.967-.4A5.537,5.537,0,0,1,25.982.548a4.341,4.341,0,0,1,2.074-.5A6.072,6.072,0,0,1,29.867.31a3.676,3.676,0,0,1,1.382.763c.051.044.109.091.16.133l.016.013.009.007.028.022.023.019.008.006.037.03.016.013a2.766,2.766,0,0,1,.918,1,4.662,4.662,0,0,1,.548,1.979,5.263,5.263,0,0,1-1.253,3.058l-.025.035,0,0-.005.008c-.063.086-.112.155-.145.207a7.686,7.686,0,0,1-1.025,1.359c-.326.363-.7.727-.992,1.019l-.391.388L27.2,12.253h5.745v2.335Z"/></svg>