<svg xmlns="http://www.w3.org/2000/svg" width="51.759" height="44.577" viewBox="0 0 51.759 44.577"><defs><style>.a{fill:#fff;}</style></defs><path class="a" d="M6926.093,44.577A1.093,1.093,0,0,1,6925,43.483V23.139a1.092,1.092,0,0,1,1.093-1.093H6953a1.093,1.093,0,0,1,1.094,1.093V43.483A1.1,1.1,0,0,1,6953,44.577Zm30.9-12.756v-9.9a2.253,2.253,0,0,0-2.252-2.25h-15.8V12.218a1,1,0,0,1,1-1h24.6a1,1,0,0,1,1,1v18.6a1,1,0,0,1-1,1ZM6968.308,20.6V10.7a2.251,2.251,0,0,0-2.25-2.25h-15.9V1a1,1,0,0,1,1-1h24.6a1,1,0,0,1,1,1V19.6a1,1,0,0,1-1,1Z" transform="translate(-6925)"/></svg>