<svg xmlns="http://www.w3.org/2000/svg" width="1365.953" height="371.129" viewBox="0 0 1365.953 371.129"><defs><style>.a{fill:#387dff;}</style></defs><path class="a" d="M53.105,437.994c-10.806-9.949,20.245-53.961,52.848-63.834,21.409-6.437,41.007-4.6,44.774,6.407,3.8,11.021-11.268,15.384-31.838,25.564-16.787,8.308-36.467,36.754-54.172,36.754A16.712,16.712,0,0,1,53.105,437.994ZM0,71.754l1365.953.12V91.247c-202.84-41.018-181.805,141.161-315.428,171.813-74.314,17.046-127.834,4.558-182.5-7.928-56.8-12.975-114.828-25.951-198.7-5.8C534.872,281.646,549.46,317.2,393.559,342.626c-52.625,8.581-104.995-.2-154.86-8.975C145.489,317.245,61.029,300.837.016,397.805Z" transform="translate(0 -71.754)"/></svg>