<svg xmlns="http://www.w3.org/2000/svg" xmlns:xlink="http://www.w3.org/1999/xlink" width="440.511" height="327.082" viewBox="0 0 440.511 327.082"><defs><style>.a,.g{fill:#eef5ff;}.a{fill-rule:evenodd;}.b{fill:url(#a);}.c{fill:url(#b);}.d{fill:#fff;}.e{fill:#ccdeff;}.f{fill:#cfe0ff;}.h{fill:url(#c);}.i{fill:url(#d);}.j{fill:#b9cfff;}.k{fill:url(#e);}.l{fill:url(#f);}.m{fill:#f37c6a;}.n{fill:#f7cf06;}.o{fill:#4fdc6f;}.p{fill:#fdbd8a;}.q{fill:#fda674;}.r{fill:url(#g);}.s{fill:url(#h);}.t{fill:#f99564;}.u{fill:url(#i);}.v{fill:#9290f4;}.w{fill:url(#j);}.x{fill:url(#k);}.y{fill:url(#m);}.z{fill:url(#n);}.aa{fill:url(#o);}.ab{fill:#353f5a;}.ac{fill:#dde3f0;}.ad{fill:url(#p);}.ae{fill:url(#q);}.af{fill:url(#r);}.ag{fill:url(#s);}.ah{fill:url(#t);}.ai{fill:url(#u);}.aj{fill:url(#v);}.ak{fill:url(#w);}.al{fill:url(#x);}.am{fill:url(#y);}.an{fill:#766de8;}.ao{fill:url(#z);}.ap{fill:url(#aa);}.aq,.ax,.ay{stroke:rgba(0,0,0,0);}.aq{fill:url(#ac);}.ar{fill:#116ff7;}.as{fill:url(#ad);}.at{fill:url(#ae);}.au{fill:url(#af);}.av{fill:url(#ag);}.aw{fill:url(#ah);}.ax{fill:url(#ai);}.ay{fill:url(#aj);}.az{fill:#f07379;}.ba{fill:#4fceff;}.bb{fill:#387dff;}</style><linearGradient id="a" x1="0.38" y1="1" x2="0.383" y2="0.096" gradientUnits="objectBoundingBox"><stop offset="0" stop-color="#b0cfff"/><stop offset="1" stop-color="#83b3ff"/></linearGradient><linearGradient id="b" x1="-2.277" y1="2.874" x2="-2.277" y2="2.878" gradientUnits="objectBoundingBox"><stop offset="0.049" stop-color="#abc8ff"/><stop offset="1" stop-color="#dbe8ff"/></linearGradient><linearGradient id="c" x1="-13.369" y1="29.077" x2="-13.369" y2="29.12" gradientUnits="objectBoundingBox"><stop offset="0" stop-color="#cedfff"/><stop offset="1" stop-color="#e8f0ff"/></linearGradient><linearGradient id="d" x1="-11.334" y1="29.734" x2="-11.333" y2="29.728" gradientUnits="objectBoundingBox"><stop offset="0" stop-color="#e8f0ff"/><stop offset="1" stop-color="#cedfff"/></linearGradient><linearGradient id="e" x1="-9.197" y1="3.454" x2="-9.194" y2="3.451" xlink:href="#a"/><linearGradient id="f" x1="-19.313" y1="83.752" x2="-19.263" y2="83.693" xlink:href="#a"/><linearGradient id="g" x1="-28.972" y1="17.231" x2="-28.999" y2="17.22" gradientUnits="objectBoundingBox"><stop offset="0" stop-color="#fed8b9"/><stop offset="1" stop-color="#fdbd8a"/></linearGradient><linearGradient id="h" x1="-21.804" y1="16.457" x2="-21.772" y2="16.457" gradientUnits="objectBoundingBox"><stop offset="0" stop-color="#bf5055"/><stop offset="1" stop-color="#ea6a4d"/></linearGradient><linearGradient id="i" x1="-53.435" y1="106.459" x2="-53.394" y2="106.376" xlink:href="#g"/><linearGradient id="j" x1="-80.445" y1="51.619" x2="-80.327" y2="51.619" gradientUnits="objectBoundingBox"><stop offset="0" stop-color="#dad8ff"/><stop offset="1" stop-color="#c1bdfd"/></linearGradient><linearGradient id="k" x1="-0.288" y1="-0.72" x2="0.562" y2="0.869" gradientUnits="objectBoundingBox"><stop offset="0" stop-color="#b5b5ff"/><stop offset="1" stop-color="#9290f4"/></linearGradient><linearGradient id="m" x1="-20.355" y1="8.365" x2="-20.323" y2="8.365" gradientUnits="objectBoundingBox"><stop offset="0" stop-color="#5690ff"/><stop offset="1" stop-color="#387dff"/></linearGradient><linearGradient id="n" x1="-9.483" y1="17.633" x2="-9.484" y2="17.639" gradientUnits="objectBoundingBox"><stop offset="0" stop-color="#2d3651"/><stop offset="1" stop-color="#545f7e"/></linearGradient><linearGradient id="o" x1="0.539" y1="0.852" x2="0.364" y2="-0.294" xlink:href="#n"/><linearGradient id="p" x1="-55.996" y1="102.763" x2="-55.952" y2="102.673" xlink:href="#g"/><linearGradient id="q" x1="-22.907" y1="13.578" x2="-22.901" y2="13.566" xlink:href="#g"/><linearGradient id="r" x1="0.861" y1="0.217" x2="0.534" y2="1.101" xlink:href="#m"/><linearGradient id="s" x1="-56.141" y1="103.617" x2="-56.096" y2="103.527" xlink:href="#g"/><linearGradient id="t" x1="-56.016" y1="105.331" x2="-55.971" y2="105.241" xlink:href="#g"/><linearGradient id="u" x1="-60.879" y1="52.865" x2="-60.807" y2="52.865" gradientUnits="objectBoundingBox"><stop offset="0" stop-color="#545f7e"/><stop offset="1" stop-color="#2d3651"/></linearGradient><linearGradient id="v" y1="0.688" x2="1.201" y2="0.362" gradientUnits="objectBoundingBox"><stop offset="0" stop-color="#fdbd8a"/><stop offset="1" stop-color="#fed8b9"/></linearGradient><linearGradient id="w" x1="-27.294" y1="30.137" x2="-27.293" y2="30.122" xlink:href="#u"/><linearGradient id="x" x1="-39.059" y1="15.336" x2="-39.046" y2="15.325" xlink:href="#g"/><linearGradient id="y" x1="-39.492" y1="22.155" x2="-39.463" y2="22.13" xlink:href="#g"/><linearGradient id="z" x1="-38.618" y1="27.827" x2="-38.571" y2="27.827" gradientUnits="objectBoundingBox"><stop offset="0" stop-color="#c7c4ff"/><stop offset="1" stop-color="#b6b2fd"/></linearGradient><linearGradient id="aa" x1="-0.294" y1="0.5" x2="1" y2="0.5" gradientUnits="objectBoundingBox"><stop offset="0" stop-color="#9c95ff"/><stop offset="1" stop-color="#766de8"/></linearGradient><linearGradient id="ac" x2="0.945" y2="0.736" gradientUnits="objectBoundingBox"><stop offset="0" stop-color="#58f17b"/><stop offset="1" stop-color="#16cd6f"/></linearGradient><linearGradient id="ad" x1="-10.141" y1="4.515" x2="-10.141" y2="4.506" xlink:href="#m"/><linearGradient id="ae" x1="-30.391" y1="14.729" x2="-30.38" y2="14.709" gradientUnits="objectBoundingBox"><stop offset="0" stop-color="#51daff"/><stop offset="1" stop-color="#49baff"/></linearGradient><linearGradient id="af" x1="-15.508" y1="30.047" x2="-15.491" y2="30.047" xlink:href="#g"/><linearGradient id="ag" x1="-42.297" y1="22.353" x2="-42.273" y2="22.303" xlink:href="#ae"/><linearGradient id="ah" x1="-33.999" y1="11.183" x2="-33.994" y2="11.171" xlink:href="#g"/><linearGradient id="ai" x1="-33.62" y1="19.803" x2="-33.611" y2="19.793" xlink:href="#g"/><linearGradient id="aj" x1="0.5" y1="0.031" x2="0.79" y2="0.815" gradientUnits="objectBoundingBox"><stop offset="0" stop-color="#e05c68"/><stop offset="1" stop-color="#f88f57"/></linearGradient></defs><g transform="translate(3850.321 -4835.903)"><path class="a" d="M63.451,300.038c57.641,17.309,127.81-2.354,185.52,6.055,109.2,15.913,152.856-6.055,172.836-36.96,35.813-55.393,25.19-156.139-75.9-189.287s-250.923,9.5-311.217,68.8S-1.7,280.473,63.451,300.038Z" transform="translate(-3850.321 4851.571)"/><path class="b" d="M321.852,328.335H311.016L302.43,291.5H253.719l-8.586,36.836H234.3a2.977,2.977,0,1,0,0,5.955h87.555a2.977,2.977,0,1,0,0-5.955Z" transform="translate(-3881.557 4800.233)"/><path class="c" d="M399.1,269.2H128.745a13.076,13.076,0,0,1-13.086-13.087V79.023a13.076,13.076,0,0,1,13.086-13.086H399.1a13.077,13.077,0,0,1,13.087,13.086v177.12A13.069,13.069,0,0,1,399.1,269.2Z" transform="translate(-3867.405 4827.834)"/><rect class="d" width="274.054" height="153.933" transform="translate(-3740.592 4906.195)"/><path class="e" d="M412.19,267.2H115.7v21.015a6.376,6.376,0,0,0,6.371,6.37H405.855a6.375,6.375,0,0,0,6.37-6.37L412.19,267.2Z" transform="translate(-3867.409 4803.207)"/><rect class="f" width="43.034" height="140.574" transform="translate(-3740.286 4919.183)"/><rect class="g" width="273.607" height="28.043" transform="translate(-3740.286 4919.183)"/><path class="d" d="M395.987,80.138h-260.9a6.375,6.375,0,0,0-6.37,6.37v6.579H402.358V86.508A6.376,6.376,0,0,0,395.987,80.138Z" transform="translate(-3869.002 4826.096)"/><path class="h" d="M544.065,45.513a13.121,13.121,0,0,0-8.76,3.359,20.594,20.594,0,0,0-36.663.692,10.411,10.411,0,0,0-15.718,8.967h74.227A13.04,13.04,0,0,0,544.065,45.513Z" transform="translate(-3975.579 4819.463)"/><path class="i" d="M127.456,27.049a21.053,21.053,0,0,0-40.541-7.963,12.357,12.357,0,0,0-1.974-.139,14.5,14.5,0,0,0-13.017,8.067h55.531v.034Z" transform="translate(-3862.053 4835.168)"/><path class="j" d="M164.341,137.753H135.813a2.283,2.283,0,0,1-2.284-2.285h0a2.282,2.282,0,0,1,2.284-2.285h28.527a2.283,2.283,0,0,1,2.285,2.285h0A2.24,2.24,0,0,1,164.341,137.753Zm0,11.6H135.813a2.283,2.283,0,0,1-2.284-2.285h0a2.282,2.282,0,0,1,2.284-2.285h28.527a2.283,2.283,0,0,1,2.285,2.285h0A2.262,2.262,0,0,1,164.341,149.351Zm0,11.6H135.813a2.283,2.283,0,0,1-2.284-2.285h0a2.283,2.283,0,0,1,2.284-2.285h28.527a2.283,2.283,0,0,1,2.285,2.285h0A2.262,2.262,0,0,1,164.341,160.949Zm0,11.563H135.813a2.282,2.282,0,0,1-2.284-2.284h0a2.283,2.283,0,0,1,2.284-2.285h28.527a2.283,2.283,0,0,1,2.285,2.285h0A2.24,2.24,0,0,1,164.341,172.512Zm0,11.6H135.813a2.282,2.282,0,0,1-2.284-2.284h0a2.282,2.282,0,0,1,2.284-2.285h28.527a2.283,2.283,0,0,1,2.285,2.285h0A2.261,2.261,0,0,1,164.341,184.11Zm-5.677-79.593H139.137a5.57,5.57,0,0,0-5.574,5.574h0a5.57,5.57,0,0,0,5.574,5.574h19.526a5.571,5.571,0,0,0,5.574-5.574h0A5.571,5.571,0,0,0,158.664,104.517Zm232.858,2.008H357.213a3.561,3.561,0,0,0-3.566,3.566h0a3.561,3.561,0,0,0,3.566,3.566h34.309a3.561,3.561,0,0,0,3.566-3.566h0A3.538,3.538,0,0,0,391.522,106.525Z" transform="translate(-3869.592 4823.114)"/><path class="g" d="M322.831,228.455H192.8a3.856,3.856,0,0,1-3.842-3.843h0a3.856,3.856,0,0,1,3.842-3.843H322.831a3.857,3.857,0,0,1,3.843,3.843h0A3.835,3.835,0,0,1,322.831,228.455Zm0,13.987H192.8a3.856,3.856,0,0,1-3.842-3.843h0a3.856,3.856,0,0,1,3.842-3.843H322.831a3.857,3.857,0,0,1,3.843,3.843h0A3.857,3.857,0,0,1,322.831,242.442Z" transform="translate(-3876.374 4808.889)"/><path class="k" d="M141.382,320.864H90.42a9.279,9.279,0,0,1-9.278-9.278V190.205a9.279,9.279,0,0,1,9.278-9.278h50.962a9.279,9.279,0,0,1,9.278,9.278v121.38A9.279,9.279,0,0,1,141.382,320.864Z" transform="translate(-3863.181 4813.764)"/><path class="d" d="M141.038,317.536H91.807a6.383,6.383,0,0,1-6.4-6.37v-119.1a6.383,6.383,0,0,1,6.4-6.371h49.265a6.383,6.383,0,0,1,6.4,6.371V311.2A6.406,6.406,0,0,1,141.038,317.536Z" transform="translate(-3863.702 4813.179)"/><path class="g" d="M141.333,308.442H92.553a3.324,3.324,0,0,1-3.324-3.324h0a3.324,3.324,0,0,1,3.324-3.324h48.781a3.324,3.324,0,0,1,3.324,3.324h0A3.324,3.324,0,0,1,141.333,308.442Zm0,12.118H92.553a3.324,3.324,0,0,1-3.324-3.324h0a3.324,3.324,0,0,1,3.324-3.324h48.781a3.324,3.324,0,0,1,3.324,3.324h0A3.324,3.324,0,0,1,141.333,320.56Z" transform="translate(-3864.17 4798.974)"/><path class="d" d="M141.141,185.542H91.773a6.376,6.376,0,0,0-6.371,6.371v6.578h62.075v-6.578A6.347,6.347,0,0,0,141.141,185.542Z" transform="translate(-3863.702 4813.199)"/><path class="l" d="M131.671,190.509H105.29a3.635,3.635,0,0,1-3.635-3.635v-1.488h33.651v1.488A3.635,3.635,0,0,1,131.671,190.509Z" transform="translate(-3865.691 4813.218)"/><circle class="m" cx="3.185" cy="3.185" r="3.185" transform="translate(-3734.09 4910.216)"/><circle class="n" cx="3.185" cy="3.185" r="3.185" transform="translate(-3723.322 4910.216)"/><circle class="o" cx="3.185" cy="3.185" r="3.185" transform="translate(-3712.521 4910.216)"/><rect class="f" width="62.075" height="20.634" transform="translate(-3778.265 5032.254)"/><rect class="g" width="62.075" height="20.634" transform="translate(-3778.265 5011.62)"/><path class="j" d="M131.7,228.408H105.324a3.34,3.34,0,0,0-3.359,3.358h0a3.34,3.34,0,0,0,3.359,3.359H131.7a3.34,3.34,0,0,0,3.358-3.359h0A3.361,3.361,0,0,0,131.7,228.408Zm-2.666-23.3H107.955a6.028,6.028,0,0,0-6.024,6.024h0a6.028,6.028,0,0,0,6.024,6.024h21.083a6.028,6.028,0,0,0,6.024-6.024h0A6.007,6.007,0,0,0,129.038,205.108Z" transform="translate(-3865.725 4810.805)"/><path class="p" d="M61.728,257.807l-2.008,2.943-1.143,1.661-4.431,6.509-8.586-5.677,6.058-9.036,1-1.524L54.942,254Z" transform="translate(-3858.827 4804.983)"/><path class="q" d="M70.457,251.154c-1.453,3.117-1.8,7.34-5.3,7.444l-.173,1.108a8.744,8.744,0,0,1-2.7.312,8.094,8.094,0,0,1-1.316-.1l-1.143,1.661a8.861,8.861,0,0,1-2.735-3.046,9.127,9.127,0,0,1-.692-1.7,8.667,8.667,0,0,1-.242-3.67,11.187,11.187,0,0,1,.415-1.627,8.314,8.314,0,0,1,.935-1.834,9.063,9.063,0,0,1,1.731-1.9c.174-.139.312-.242.485-.381a13.266,13.266,0,0,1,1.177-.692,9.65,9.65,0,0,1,1.661-.623,8.572,8.572,0,0,1,1-.173,7.945,7.945,0,0,1,2.389.034c.347.069.692.139,1.039.242C70.423,247.139,70.007,247.831,70.457,251.154Z" transform="translate(-3860.113 4805.819)"/><path class="r" d="M72.239,243.845v.139L72.1,248.45a10.168,10.168,0,0,1-7.651,9.729,8.768,8.768,0,0,1-2.7.312,8.086,8.086,0,0,1-1.316-.1A10.426,10.426,0,0,1,56.591,257a10.235,10.235,0,0,1-4.258-5.158,10.1,10.1,0,0,1-.589-2.493c-.034-.38-.068-.8-.068-1.177l.138-4.466a10.207,10.207,0,0,1,5.125-8.689c.1-.069.242-.139.346-.208a9.582,9.582,0,0,1,2.943-1c.1,0,.173-.034.277-.034l.935-.1a4.553,4.553,0,0,1,.692,0,10.653,10.653,0,0,1,1.834.173,11.058,11.058,0,0,1,2.839,1,10.216,10.216,0,0,1,2.492,1.869,10.636,10.636,0,0,1,2.251,3.5A9.992,9.992,0,0,1,72.239,243.845Z" transform="translate(-3859.575 4807.312)"/><path class="s" d="M77.384,228.79a8.585,8.585,0,0,0,.069-.935,6.607,6.607,0,0,0-13.122-1.108,3.536,3.536,0,0,0-2.216-.8,3.473,3.473,0,0,0-3.462,3.462v.174a2.47,2.47,0,0,0-2.181,2.457,2.311,2.311,0,0,0,.312,1.178,5.017,5.017,0,0,0-5.5,5.158l.381,9.486a7.575,7.575,0,0,0,7.3-3.081l.139.035a3.867,3.867,0,0,0,4.432-3.289l.138-.935a3.991,3.991,0,0,0,1.732-2.631,4.846,4.846,0,0,0,2.838-1.246,6.05,6.05,0,1,0,9.141-7.929Z" transform="translate(-3859.527 4808.831)"/><circle class="p" cx="4.085" cy="4.085" r="4.085" transform="translate(-3804.993 5050.049)"/><path class="t" d="M59.682,250.893a1.336,1.336,0,0,1,.9-2.423,1.279,1.279,0,0,1,.865.554,3.387,3.387,0,0,0-.8-3.081l.276-.242a3.82,3.82,0,0,1,.692,4.085c-.034.069-.138.139-.207.1a.189.189,0,0,1-.139-.207.823.823,0,0,0-.692-.831.911.911,0,0,0-.97.589,1.036,1.036,0,0,0,.347,1.142Z" transform="translate(-3860.486 4805.838)"/><path class="u" d="M84.984,267.405l-.45-1.731,9.8-1.316a1.537,1.537,0,0,1,1.524,1.524h0a1.537,1.537,0,0,1-1.524,1.523Z" transform="translate(-3863.596 4803.554)"/><path class="v" d="M139.006,289.07a3.12,3.12,0,0,1-3.74,2.424l-16.41-3.428-17.726-3.7-11.425-2.389a3.068,3.068,0,0,1-1.766-1.038,3.2,3.2,0,0,1-.692-2.665L92.89,251.23a3.119,3.119,0,0,1,3.74-2.423l45.561,9.521a3.118,3.118,0,0,1,2.423,3.739l-3.981,19.041Z" transform="translate(-3863.92 4805.466)"/><circle class="w" cx="3.704" cy="3.704" r="3.704" transform="translate(-3764.764 5061.231)"/><path class="x" d="M119,291.093l-17.726-3.7L89.851,285a3.075,3.075,0,0,1-1.766-1.038l14.021-9.9a5.644,5.644,0,0,1,7.685,1.627l2.389,4.016Z" transform="translate(-3864.031 4802.475)"/><path class="x" d="M140.95,291.5a3.12,3.12,0,0,1-3.74,2.424L120.8,290.5l-17.726-3.7,10.905-7.72,13.571-9.59a5.643,5.643,0,0,1,7.686,1.627l7.409,12.394Z" transform="translate(-3865.865 4803.035)"/><path class="y" d="M57.584,305.592l-28.631-6.681s.449-12.326,4.881-22.676c4.709-11.01,13.432-20.08,13.432-20.08h0l10.352,8.413v41.025Z" transform="translate(-3856.795 4804.559)"/><g transform="translate(-3829.318 5103.365)"><path class="z" d="M85.281,338.351l-54.908-.692,3.67-9.9,49.992-9.278c4.847-.416,8.967,4.154,8.967,9.936h0C93,333.642,89.644,337.97,85.281,338.351Z" transform="translate(-27.651 -306.43)"/><path class="aa" d="M82.028,333.939l-45.146-8.932a11.018,11.018,0,0,1-7.513-5.435h0a16.232,16.232,0,0,1-.589-14.818h0l57.886,12.463a8.657,8.657,0,0,1,5.816,8.205h0A8.652,8.652,0,0,1,82.028,333.939Z" transform="translate(-27.271 -304.754)"/></g><g transform="translate(-3843.481 5122.172)"><path class="ab" d="M36.578,327.379l.346,1.316a28,28,0,0,1,.97,7.375h0l-11.252,3.324-6.335-.484-6.786.242a1.39,1.39,0,0,1-1.246-.658.468.468,0,0,1-.1-.173,1.471,1.471,0,0,1,.728-1.9l21.88-9.866a1.28,1.28,0,0,1,1.8.83Z" transform="translate(-11.246 -326.211)"/><path class="ac" d="M11.228,338.222h0a1.1,1.1,0,0,0,1.488.589l23.161-10.456a1.123,1.123,0,0,0,.623-1.316h0a1.138,1.138,0,0,0-1.558-.761L11.782,336.734A1.143,1.143,0,0,0,11.228,338.222Z" transform="translate(-11.134 -326.183)"/><path class="d" d="M21.144,341.532a2.382,2.382,0,0,1-.83-.173l.242-.589a1.512,1.512,0,0,0,1.766-.45l1.316-1.523.484.415-1.316,1.524A2.078,2.078,0,0,1,21.144,341.532Z" transform="translate(-12.257 -327.726)"/><path class="d" d="M23.59,341.532a2.387,2.387,0,0,1-.831-.173L23,340.77a1.512,1.512,0,0,0,1.766-.45l1.316-1.523.485.415-1.316,1.524A2.078,2.078,0,0,1,23.59,341.532Zm2.285.1a2.384,2.384,0,0,1-.831-.173l.242-.589a1.511,1.511,0,0,0,1.766-.449l1.316-1.524.484.415-1.316,1.524A2.076,2.076,0,0,1,25.875,341.635Z" transform="translate(-12.556 -327.726)"/><circle class="d" cx="1.8" cy="1.8" r="1.8" transform="translate(18.72 6.12)"/></g><path class="ad" d="M88.479,277.5v-3.081h9.313a1.537,1.537,0,0,1,1.523,1.524h0a1.537,1.537,0,0,1-1.523,1.524l-9.313.034Z" transform="translate(-3864.079 4802.323)"/><path class="ae" d="M86.377,267.587h0a4.746,4.746,0,0,0-7.236-.138L63.8,284.967a6.3,6.3,0,0,0,.588,8.9h0a6.3,6.3,0,0,0,8.9-.588l13.987-16.03A6.708,6.708,0,0,0,86.377,267.587Z" transform="translate(-3860.868 4803.373)"/><path class="af" d="M47.7,264.373h0a6.286,6.286,0,0,1,8.828,1.143l9.659,14.021,9.521-11.217,9.59,8.967L72.041,293c-2.908,3.047-5.955,3.5-8.794,1.454h0a5.669,5.669,0,0,1-1.488-1.523l-.034-.035-15.2-19.7A6.331,6.331,0,0,1,47.7,264.373Z" transform="translate(-3858.788 4803.713)"/><path class="ag" d="M90.333,274.462v-3.081h9.313a1.537,1.537,0,0,1,1.523,1.523h0a1.537,1.537,0,0,1-1.523,1.524l-9.313.035Z" transform="translate(-3864.306 4802.695)"/><path class="ah" d="M88.913,271.429v-3.046h9.313a1.537,1.537,0,0,1,1.523,1.523h0a1.537,1.537,0,0,1-1.523,1.524Z" transform="translate(-3864.132 4803.062)"/><g transform="translate(-3674.181 4844.913)"><path class="p" d="M222.73,53l3.713-23.949,12.829,1.989-3.713,23.949Z" transform="translate(-177.852 -12.566)"/><path class="q" d="M230.044,38.932a7.754,7.754,0,0,0,.208,3.358,7.941,7.941,0,0,0,6.37,5.609l.97.1.692-4.951c3.185-.1,3.427-3.081,4.777-5.955-.415-3.046-.068-3.669-3.081-4.535a4.327,4.327,0,0,0-.97-.208A7.863,7.863,0,0,0,230.044,38.932Z" transform="translate(-178.736 -12.958)"/><path class="ai" d="M236.6,31.689l5.159.8A5.492,5.492,0,0,0,248,27.949l.8-5.158-10.559-1.627Z" transform="translate(-179.55 -11.6)"/><path class="aj" d="M228.746,23.965l-1.7,10.871a5.821,5.821,0,0,0,2.77,5.92,4.8,4.8,0,0,0,2.112.728l3.254.484a8.761,8.761,0,0,0,1.316.1,7.168,7.168,0,0,0,6.2-4.051,9.035,9.035,0,0,0,.624-1.939L244.913,25.9a6.8,6.8,0,0,0-5.643-7.755l-2.077-.312A7.321,7.321,0,0,0,228.746,23.965Z" transform="translate(-178.372 -11.183)"/><path class="ak" d="M246.91,12.11l-11.356-1.766a6.041,6.041,0,0,0-6.474,3.566,6.369,6.369,0,0,0-4.224,5.055l-.727,4.639a6.366,6.366,0,0,0,5.332,7.3l.727-4.639a6.4,6.4,0,0,0,7.27-5.332,5.861,5.861,0,0,0,.069-1.35,10.52,10.52,0,0,1,7.617,3.635,5.661,5.661,0,0,0,6.439-4.709A5.571,5.571,0,0,0,246.91,12.11Z" transform="translate(-178.014 -10.267)"/><path class="p" d="M254.177,83.038h0a6.744,6.744,0,0,0,5.228-8.032l-3.289-15.579a6.744,6.744,0,0,0-8.032-5.228h0a6.743,6.743,0,0,0-5.227,8.032l3.288,15.579A6.8,6.8,0,0,0,254.177,83.038Z" transform="translate(-180.296 -15.623)"/><path class="al" d="M199.278,87.1a6.676,6.676,0,0,0,7.859-5.3l.623-3.116,3.012-15.51,1.316-6.751a6.676,6.676,0,0,0-4.743-7.721c-.173-.035-.347-.1-.554-.139a3.988,3.988,0,0,0-.9-.1h-.554a5.264,5.264,0,0,0-1.454.207A6.712,6.712,0,0,0,198.9,53.9l-1.869,9.624-3.081,15.787A6.719,6.719,0,0,0,199.278,87.1Z" transform="translate(-174.317 -14.941)"/><path class="am" d="M207.481,105.2l-.174.069a6.353,6.353,0,0,1-7.789-3.774l-5.3-14.922c-1.35-3.393.762-4.985,4.224-6.128h0a6.319,6.319,0,0,1,7.893,3.635L211.5,96.719A6.3,6.3,0,0,1,207.481,105.2Z" transform="translate(-174.313 -18.814)"/><path class="p" d="M268.408,90.579h0a6.782,6.782,0,0,0-1.177-9.521l-9.313-7.235A6.782,6.782,0,0,0,248.4,75h0a6.782,6.782,0,0,0,1.177,9.521l9.278,7.236A6.82,6.82,0,0,0,268.408,90.579Z" transform="translate(-180.817 -17.868)"/><g transform="translate(0 60.594)"><path class="an" d="M313.367,161.637,200.815,193.869a7.884,7.884,0,0,1-9.763-5.4l-19.145-66.852a7.884,7.884,0,0,1,5.4-9.763L289.895,79.621a7.884,7.884,0,0,1,9.763,5.4L318.8,151.874A7.932,7.932,0,0,1,313.367,161.637Z" transform="translate(-171.595 -79.309)"/><circle class="ao" cx="9.348" cy="9.348" r="9.348" transform="translate(22.677 39.641)"/><path class="ap" d="M276.186,182.805l-43.8,12.533L204.21,203.4a7.731,7.731,0,0,1-5.159-.277l19.561-38.5c3.289-6.473,12.775-9.174,18.973-5.366l10.039,6.128Z" transform="translate(-174.955 -88.879)"/><path class="ap" d="M326.776,156.327a7.941,7.941,0,0,1-5.435,9.8l-40.506,11.6-43.8,12.533,15.233-29.947,18.938-37.217c3.289-6.474,12.776-9.175,18.973-5.367l30.951,18.9Z" transform="translate(-179.603 -83.796)"/></g><g transform="translate(40.043 76.922)"><path class="p" d="M220.406,103.038l1.316-.416a2.321,2.321,0,0,0,1.524-2.908h0a2.322,2.322,0,0,0-2.908-1.524l-1.316.416a2.321,2.321,0,0,0-1.523,2.908h0A2.351,2.351,0,0,0,220.406,103.038Z" transform="translate(-217.243 -97.935)"/><path class="p" d="M219.693,103.293a2.479,2.479,0,0,1-.727-4.846l1.316-.416a2.486,2.486,0,0,1,1.488,4.744l-1.316.415A3.081,3.081,0,0,1,219.693,103.293Zm1.316-5.054a2.2,2.2,0,0,0-.657.1l-1.316.416a2.154,2.154,0,0,0-1.42,2.7,2.184,2.184,0,0,0,2.7,1.419l1.316-.415a2.155,2.155,0,0,0,1.42-2.7A2.069,2.069,0,0,0,221.008,98.239Z" transform="translate(-217.222 -97.914)"/></g><path class="p" d="M217.327,99.428c-3.842-3.877-13.779,1.661-13.779,1.661m11.633,2.147c.83,2.839,2.8,5.193,4.258,3.808s-1.108-8.759-4.57-9.278c-2.7-.415-3.982,2.458-4.258,6.163Z" transform="translate(-175.505 -20.969)"/><path class="p" d="M208.4,104.162c.312-3.669,1.627-6.336,4.328-5.885,3.462.554,5.678,7.617,4.224,8.967-1.454,1.385-2.908-.727-3.912-3.5-.312-.831-.519-.865-.519-.865Zm53.939-14.714c.312-3.669,1.627-6.336,4.328-5.885,3.462.554,5.366,6.647,3.843,7.963-1.108.935-2.528.312-3.532-2.458-.312-.831-.52-.865-.52-.865Z" transform="translate(-176.099 -19.23)"/><path class="p" d="M204.179,107.555c.312-3.67,1.627-6.336,4.328-5.885,3.462.554,5.367,6.646,3.843,7.963-1.108.935-2.528.312-3.532-2.458-.312-.831-.519-.865-.519-.865Z" transform="translate(-175.582 -21.445)"/><path class="t" d="M216.62,109.827a.685.685,0,0,1-.277-.034c-1.316-.312-2.32-2.631-2.838-4.016l.312-.1c.8,2.215,1.765,3.6,2.6,3.808a1.11,1.11,0,0,0,1.039-.381c.519-.484.554-1.973.034-3.669-.692-2.285-2.25-4.709-4.155-5.02l.035-.312c2.042.312,3.7,2.873,4.4,5.227.449,1.488.657,3.289-.1,4.016A1.44,1.44,0,0,1,216.62,109.827Z" transform="translate(-176.702 -21.259)"/><path class="t" d="M211.949,110.134a.685.685,0,0,1-.381-.069c-.9-.242-1.7-1.246-2.284-2.908l.312-.1c.554,1.559,1.28,2.528,2.077,2.736a1.345,1.345,0,0,0,1.211-.312c.554-.485.623-1.732.208-3.185-.554-2.008-2.008-4.19-3.982-4.5l.035-.312c2.077.347,3.635,2.6,4.223,4.709.45,1.627.347,2.978-.312,3.532A1.768,1.768,0,0,1,211.949,110.134Z" transform="translate(-176.186 -21.428)"/><path class="p" d="M271.679,89.029c.831,2.838,2.8,5.193,4.258,3.808s-1.143-8.759-4.57-9.313c-2.7-.416-4.155,1.869-4.466,5.539Z" transform="translate(-183.257 -19.225)"/><path class="p" d="M263.272,90.948c.312-3.669,1.627-6.336,4.328-5.885,3.462.554,5.678,7.617,4.224,8.967s-2.908-.727-3.912-3.5c-.312-.831-.52-.865-.52-.865Z" transform="translate(-182.813 -19.413)"/><path class="p" d="M262.26,91.361l1.316-.415a2.322,2.322,0,0,0,1.524-2.908h0a2.322,2.322,0,0,0-2.908-1.523l-1.316.415a2.322,2.322,0,0,0-1.524,2.908h0A2.322,2.322,0,0,0,262.26,91.361Z" transform="translate(-182.321 -19.584)"/><g transform="translate(80.217 64.299)"><path class="t" d="M275.625,93.4h-.208a3.709,3.709,0,0,1-2.354-2.112l.277-.173a3.56,3.56,0,0,0,2.146,1.939,1.175,1.175,0,0,0,.97-.347c.484-.484.484-1.869-.035-3.566-.761-2.423-2.423-5.3-4.431-5.608l.935.207c1.316.277,3.047,2.839,3.808,5.332.45,1.454.658,3.22-.034,3.912A1.677,1.677,0,0,1,275.625,93.4Z" transform="translate(-264.097 -83.531)"/><path class="t" d="M271.454,94.605a.943.943,0,0,1-.312-.035c-1.316-.312-2.32-2.631-2.839-3.981-.242-.658-.415-.762-.415-.762l.068-.312c.1.034.347.173.658.97.8,2.215,1.731,3.566,2.6,3.773a1.16,1.16,0,0,0,1.072-.346c.52-.484.555-1.974.035-3.67-.692-2.284-2.25-4.708-4.155-5.02l.035-.312c2.042.312,3.7,2.874,4.4,5.228.45,1.488.658,3.289-.1,4.016A1.717,1.717,0,0,1,271.454,94.605Z" transform="translate(-263.595 -83.7)"/><path class="t" d="M264.484,90.921l-.1-.312,1.316-.415a2.158,2.158,0,0,0-1.281-4.12l-1.316.416-.1-.312,1.316-.416a2.486,2.486,0,0,1,1.488,4.744Z" transform="translate(-262.996 -83.79)"/></g><circle class="p" cx="4.085" cy="4.085" r="4.085" transform="translate(45.595 12.887)"/><path class="t" d="M228.257,31.791a1.422,1.422,0,0,1-.728-1.454,1.3,1.3,0,0,1,1.247-1.039,1.12,1.12,0,0,1,.935.45,3.427,3.427,0,0,0-1.246-2.943l.242-.276a3.833,3.833,0,0,1,1.28,3.912.233.233,0,0,1-.207.139.164.164,0,0,1-.174-.173.822.822,0,0,0-.83-.728.922.922,0,0,0-.866.762,1.05,1.05,0,0,0,.52,1.073Z" transform="translate(-178.437 -12.257)"/><path class="aq" d="M0,22.364,3.67,10.213A11.08,11.08,0,0,1,5.747,6.335C9.388,1.94,14.677.434,22.2.171Q22.693.118,23.2.1L27.8,0l3.6,3.5c3.359,2.8,8.794,2.6,9.278-1.766a15.9,15.9,0,0,1,3.953,1.049c9.559,2.148,13.049,6.231,15.607,12.9s2.667,7.374,2.667,7.374l-18.7-.277-.645-4.706H18.519l-1.416,7.1Z" transform="translate(18.522 30.994)"/></g><path class="p" d="M75.132,252.05h-.381v-4.535L76.31,249.9A1.394,1.394,0,0,1,75.132,252.05Z" transform="translate(-3862.399 4805.616)"/><g transform="translate(-3595.418 4943.863)"><path class="ar" d="M301.806,339.582l-5.435.069-20.5.242a1.515,1.515,0,0,1-1.558-1.488.682.682,0,0,1,.034-.242,1.69,1.69,0,0,1,.208-.589,1.172,1.172,0,0,1,.692-.588l6.578-2.77,1.211-.692,1.87-1.038,2.007-1.143.728-.416,12.255-1.834.589,3.324.069.312.8,4.57.139.727Z" transform="translate(-262.928 -148.23)"/><path class="d" d="M301.843,340.2l-5.54.069-21.638.277a1.206,1.206,0,0,1-.83-.347,1.226,1.226,0,0,1-.347-.865,1.147,1.147,0,0,1,1-1.212h.173l21.015-.242,5.609-.069h.138Zm-17.172-4.985-1.939-.865a1.651,1.651,0,0,0-1.9.415l-.52-.45a2.283,2.283,0,0,1,2.666-.554l1.939.865Z" transform="translate(-262.826 -148.774)"/><path class="d" d="M287.99,333.952l-1.939-.865a1.651,1.651,0,0,0-1.9.415l-.52-.449a2.283,2.283,0,0,1,2.666-.555l1.939.866Zm2.076-1.108-1.939-.865a1.65,1.65,0,0,0-1.9.415l-.52-.45a2.282,2.282,0,0,1,2.666-.554l1.939.865Z" transform="translate(-264.067 -148.485)"/><path class="as" d="M370.029,315.762l-19.595-83.747h0a17.019,17.019,0,0,0-32.509-3.185h0l-.034.068a15.443,15.443,0,0,0-.692,2.147l-28.285,86.795,12.844-2.043,31.54-69.553,23.958,71.6Z" transform="translate(-264.714 -134.656)"/><path class="d" d="M304.933,340.106l-5.54.069c0-.034-.034-.034-.034-.069a5.277,5.277,0,0,1-.623-2.354v-.035a4.907,4.907,0,0,1,4.777-4.916l.069.312.8,4.57h.138Z" transform="translate(-265.916 -148.683)"/><path class="ar" d="M380.671,339.582l-5.885.069-21.118.242a1.516,1.516,0,0,1-1.559-1.488.665.665,0,0,1,.035-.242,1.689,1.689,0,0,1,.208-.589,1.169,1.169,0,0,1,.693-.588l6.612-2.77,5.816-3.289,12.256-1.834a27.749,27.749,0,0,1,1.316,3.324c.034.1.069.242.1.381a28.169,28.169,0,0,1,.935,3.842l.1.692.1.728Z" transform="translate(-272.447 -148.23)"/><path class="d" d="M380.7,340.2l-5.99.069-22.261.277a1.294,1.294,0,0,1-.865-.347,1.226,1.226,0,0,1-.346-.865,1.147,1.147,0,0,1,1-1.212h.173l21.4-.242,6.267-.069h.138Zm-18.245-4.985-1.939-.865a1.651,1.651,0,0,0-1.9.415l-.52-.45a2.283,2.283,0,0,1,2.666-.554l1.939.865Z" transform="translate(-272.341 -148.774)"/><path class="d" d="M365.82,333.952l-1.939-.865a1.651,1.651,0,0,0-1.9.415l-.519-.449a2.281,2.281,0,0,1,2.665-.555l1.939.866Zm2.112-1.108-1.939-.865a1.65,1.65,0,0,0-1.9.415l-.52-.45a2.281,2.281,0,0,1,2.665-.554l1.939.865Zm14.022,7.062-5.99.069c0-.034-.034-.034-.034-.069a4.586,4.586,0,0,1-.831-2.354v-.347a4.64,4.64,0,0,1,4.639-4.639,2.1,2.1,0,0,1,.484.035c.035.1.069.242.1.381a28.433,28.433,0,0,1,.935,3.842l.1.692h.139Z" transform="translate(-273.591 -148.485)"/><path class="at" d="M334.942,218.03h6.128a10.756,10.756,0,0,0,10.767-10.767V194.419a8.5,8.5,0,0,0-8.482-8.482H334.7A10.557,10.557,0,0,0,324.14,196.5v10.768A10.786,10.786,0,0,0,334.942,218.03Z" transform="translate(-269.025 -130.713)"/><path class="au" d="M312.578,200.772a6.612,6.612,0,0,0-7.27-5.885s-18.349,3.635-30.674,1.453c-2.908-.519-5.851-.276-5.955,1.246s4.466.831,3.843,3.186-6.889,2.112-9.451,2.6c-2.563.52-2.458,2.978,1.523,3.185,0,0-2.873,3.047,3.185,3.289a242.119,242.119,0,0,0,39.676-1.939C310.6,206.553,312.959,204.407,312.578,200.772Z" transform="translate(-261.34 -131.803)"/><path class="av" d="M326.562,188.422l-16.584,5.955.865,14.887,1.351-.208a64.076,64.076,0,0,0,16.964-5.124l.242-.1Z" transform="translate(-267.292 -131.016)"/><path class="aw" d="M344.18,162.381l-4.328-15.372h.069a110.289,110.289,0,0,0-8-19.976c-2.527-5.228-4.05-1.662-4.05-1.662-1.627-3.5-3.843-2.7-3.393-.242.45,2.492,2.908,8,1.039,9.382-1.9,1.385-3.809-1.9-5.125-1.28s-.034,2.562,1.627,4.847,3.012,3.323,4.986,10.247h.034l4.951,17.518a6.335,6.335,0,0,0,12.187-3.462Z" transform="translate(-268.5 -123.012)"/><path class="ax" d="M1.324,12.5a12.6,12.6,0,0,1,.127-1.786L.113,8.829A.6.6,0,0,1,.7,7.894l1.41.231A12.506,12.506,0,1,1,1.324,12.5Z" transform="translate(54.31 30.47)"/><path class="ay" d="M16.227,56.02a18.4,18.4,0,0,1-7.27-1.3A10.794,10.794,0,0,1,4.482,51.23a14.317,14.317,0,0,1-2.5-6.769,32.31,32.31,0,0,1,.134-8.14A95.047,95.047,0,0,1,5.772,21.044c.226-.745.439-1.445.622-2.068A38.888,38.888,0,0,0,.406,42.483l-.311.034A39,39,0,0,1,6.183,18.776a4.467,4.467,0,1,0-1.814-7.74,7.482,7.482,0,0,1-.5-6.254A6.424,6.424,0,0,1,8.75.557,30.172,30.172,0,0,1,14.218,0,17.235,17.235,0,0,1,16.5.141,11.919,11.919,0,0,1,23.1,3.456a9.49,9.49,0,0,1,2.857,7.21A17.766,17.766,0,0,1,24.469,17.6a12.239,12.239,0,0,0,3.7,7.05,23.238,23.238,0,0,0,4.786,3.157l.3.166c.2.112.4.222.61.339.366.2.744.41,1.121.631a20.586,20.586,0,0,1,3.262,2.242,9.759,9.759,0,0,1,2.589,3.333c1.219,2.718.925,6.149-.9,10.49l-.278-.139c1.762-4.215,2.046-7.543.867-10.178-1.141-2.558-3.652-4.248-5.712-5.435-.391-.23-.782-.446-1.161-.654q-.29-.16-.572-.316l-.153-.082a23.334,23.334,0,0,1-5-3.276,12.545,12.545,0,0,1-3.7-6.647c-.423,1.814.1,3.745,1.6,5.9a40.623,40.623,0,0,0,5.067,5.532c2.266,2.2,4.406,4.269,5.274,6.256a12.168,12.168,0,0,1,.912,5.282,11.418,11.418,0,0,1-1.659,5.654c-1.714,2.708-4.6,4.194-8.359,4.3a8.589,8.589,0,0,1-3.873,3.51A16.394,16.394,0,0,1,16.227,56.02Z" transform="translate(55.229 30.295)"/><path class="t" d="M330.454,174.686a1.816,1.816,0,0,1-1.038-.381.2.2,0,0,1,.242-.312,1.416,1.416,0,0,0,.9.312.67.67,0,0,0,.623-.52.582.582,0,0,0-.139-.449,1.1,1.1,0,0,0-.865-.416l-.312-.034.173-.277c.554-.865,1.212-1.7,2.181-1.661a2.93,2.93,0,0,1,2.043,1.488.2.2,0,1,1-.312.242c-.485-.657-1.073-1.316-1.766-1.35s-1.212.554-1.7,1.246a1.385,1.385,0,0,1,.831.52,1.027,1.027,0,0,1,.207.761,1.043,1.043,0,0,1-.969.8A.129.129,0,0,1,330.454,174.686Z" transform="translate(-269.661 -128.878)"/></g><path class="n" d="M82.236,126.137a2,2,0,0,1-.45-.034h0a4.1,4.1,0,0,1-2.77-1.488,3.762,3.762,0,0,1-.8-2.736,3.618,3.618,0,0,1,1.419-2.492,4.024,4.024,0,0,1,3.012-.831,4.171,4.171,0,0,1,2.77,1.488,3.762,3.762,0,0,1,.8,2.736A3.966,3.966,0,0,1,82.236,126.137Zm-.381-.969a2.941,2.941,0,0,0,3.358-2.493,2.906,2.906,0,0,0-.588-2.042,3.294,3.294,0,0,0-2.112-1.143,2.977,2.977,0,0,0-2.284.623,2.775,2.775,0,0,0-1.039,1.869,2.9,2.9,0,0,0,.589,2.043,2.874,2.874,0,0,0,2.077,1.143Z" transform="translate(-3862.821 4821.399)"/><path class="o" d="M343.684,51.2a1.7,1.7,0,0,1-1.558-1.835,1.728,1.728,0,0,1,1.939-1.454,1.7,1.7,0,0,1,1.558,1.835,1.727,1.727,0,0,1-1.939,1.454" transform="translate(-3895.115 4830.042)"/><path class="az" d="M573.555,104.451a2.064,2.064,0,0,1-.484-.069l-3.081-1.073a1.5,1.5,0,0,1-1.038-1.212,1.713,1.713,0,0,1,.554-1.592l2.458-2.112a1.554,1.554,0,0,1,1.523-.312,1.615,1.615,0,0,1,1.038,1.212h0l.623,3.185a1.743,1.743,0,0,1-.554,1.593A1.672,1.672,0,0,1,573.555,104.451Zm-.588-5.5a.718.718,0,0,0-.415.173l-2.458,2.112a.729.729,0,0,0-.242.692.7.7,0,0,0,.415.52l3.081,1.073a.584.584,0,0,0,.588-.139.7.7,0,0,0,.243-.658l-.624-3.185a.7.7,0,0,0-.415-.519A.19.19,0,0,0,572.967,98.947Z" transform="translate(-3986.103 4812.122)"/><path class="ba" d="M15.6,177.926l.623,3.185a1.158,1.158,0,0,1-1.454,1.351l-3.081-1.073a1.182,1.182,0,0,1-.346-2.008l2.458-2.112a1.1,1.1,0,0,1,1.8.658" transform="translate(-3854.589 4814.244)"/><path class="bb" d="M411.962,7.614a1.949,1.949,0,0,1-.45-.035h0a4.091,4.091,0,0,1-2.769-1.488,3.765,3.765,0,0,1-.8-2.735,3.619,3.619,0,0,1,1.42-2.492,4.021,4.021,0,0,1,3.012-.831,4.165,4.165,0,0,1,2.769,1.488,3.765,3.765,0,0,1,.8,2.735,3.625,3.625,0,0,1-1.316,2.424A4.244,4.244,0,0,1,411.962,7.614Zm-.381-.97a3.113,3.113,0,0,0,2.389-.692,2.673,2.673,0,0,0,.97-1.8,2.9,2.9,0,0,0-.589-2.042A3.288,3.288,0,0,0,412.239.967a2.974,2.974,0,0,0-2.285.623,2.776,2.776,0,0,0-1.038,1.869A2.908,2.908,0,0,0,409.5,5.5a2.876,2.876,0,0,0,2.077,1.142Z" transform="translate(-3903.168 4835.903)"/></g></svg>