<svg xmlns="http://www.w3.org/2000/svg" width="83" height="58" viewBox="0 0 83 58"><defs><style>.a{fill:#252e48;opacity:0.6;}</style></defs><path class="a" d="M79.765,50.9c-3-3.536-8.528-4.979-19.092-4.979H22.326c-10.806,0-16.431,1.536-19.416,5.3C0,54.888,0,60.3,0,67.783V82.051c0,14.5,3.453,21.866,22.326,21.866H60.674c9.161,0,14.237-1.273,17.522-4.394,3.368-3.2,4.8-8.426,4.8-17.472V67.783C83,59.889,82.775,54.448,79.765,50.9ZM53.286,76.887,35.873,85.924a2.7,2.7,0,0,1-2.627-.082,2.655,2.655,0,0,1-1.29-2.274V65.552a2.654,2.654,0,0,1,1.287-2.272,2.694,2.694,0,0,1,2.624-.087L53.28,72.171a2.65,2.65,0,0,1,.006,4.716Z" transform="translate(0 -45.917)"/></svg>